<?xml version="1.0" encoding="UTF-8"?>
<!DOCTYPE svg PUBLIC "-//W3C//DTD SVG 1.1//EN" "http://www.w3.org/Graphics/SVG/1.1/DTD/svg11.dtd">
<!-- Creator: CorelDRAW 2018 (64-Bit) -->
<svg xmlns="http://www.w3.org/2000/svg" xml:space="preserve" width="32in" height="20in" version="1.1" style="shape-rendering:geometricPrecision; text-rendering:geometricPrecision; image-rendering:optimizeQuality; fill-rule:evenodd; clip-rule:evenodd"
viewBox="0 0 32000 20000"
 xmlns:xlink="http://www.w3.org/1999/xlink">
 <defs>
  <style type="text/css">
   <![CDATA[
    .str1 {stroke:#ED3237;stroke-width:3;stroke-miterlimit:2.61313}
    .str2 {stroke:#ED3237;stroke-width:3;stroke-miterlimit:2.61313}
    .str0 {stroke:black;stroke-width:3;stroke-linejoin:bevel;stroke-miterlimit:2.61313}
    .fil0 {fill:none}
   ]]>
  </style>
 </defs>
 <g id="INTERIOR_PROFILES">
  <metadata id="CorelCorpID_0Corel-Layer"/>
  <path class="fil0 str0" d="M9729.04 2405.55c-0.31,-522.41 -197.72,-1023.29 -548.78,-1392.46 -351.06,-369.17 -816.74,-834.71 -1312.91,-834.38l-6738.51 12.5c-99.23,0.07 -710.81,218.72 -780.93,292.65 -70.12,73.93 -60.02,325.74 -59.95,430.22l-7.92 8769.74c0.06,104.48 19.76,79.66 89.97,153.49 70.21,73.83 659.6,48.61 758.83,48.54l6730.59 0c496.17,-0.33 971.88,-208.17 1322.5,-577.8 350.62,-369.63 547.42,-868.29 547.11,-1390.7l0 -5511.8z"/>
  <path class="fil0 str0" d="M9384.23 6894.3l0 78.74c0,35.17 18.76,67.66 49.21,85.24 30.45,17.58 67.97,17.58 98.43,0 30.45,-17.58 49.21,-50.07 49.21,-85.24l0 -78.74c0,-35.17 -18.76,-67.66 -49.21,-85.24 -30.45,-17.58 -67.97,-17.58 -98.43,0 -30.45,17.58 -49.21,50.07 -49.21,85.24z"/>
  <path class="fil0 str0" d="M9374.39 3350.99l0 78.74c0,38.68 20.63,74.42 54.13,93.76 33.5,19.34 74.77,19.34 108.27,0 33.5,-19.34 54.13,-55.08 54.13,-93.76l0 -78.74c0,-38.68 -20.64,-74.42 -54.13,-93.76 -33.5,-19.34 -74.77,-19.34 -108.27,0 -33.5,19.34 -54.13,55.08 -54.13,93.76z"/>
  <path class="fil0 str0" d="M1065.48 926.99c0,32.43 20.63,62.39 54.13,78.6 33.5,16.21 74.77,16.21 108.27,0 33.5,-16.22 54.13,-46.18 54.13,-78.6l0 -66.01c0,-32.43 14.77,-167.19 -18.71,-183.39 -33.48,-16.2 -139.37,-11.83 -172.86,4.37 -33.48,16.2 -24.96,146.59 -24.96,179.02l0 66.01z"/>
  <path class="fil0 str0" d="M1065.48 6381.91c0,38.68 20.63,74.42 54.13,93.76 33.5,19.34 74.77,19.34 108.27,0 33.5,-19.34 54.13,-55.08 54.13,-93.76l0 -78.74c0,-38.68 -20.63,-74.42 -54.13,-93.76 -33.5,-19.34 -74.77,-19.34 -108.27,0 -33.5,19.34 -54.13,55.08 -54.13,93.76l0 78.74z"/>
  <path class="fil0 str0" d="M1065.48 3940.98l0 78.74c0,38.68 20.63,74.42 54.13,93.76 33.5,19.34 74.77,19.34 108.27,0 33.5,-19.34 54.13,-55.08 54.13,-93.76l0 -78.74c0,-38.68 -20.63,-74.42 -54.13,-93.76 -33.5,-19.34 -74.77,-19.34 -108.27,0 -33.5,19.34 -54.13,55.08 -54.13,93.76z"/>
  <path class="fil0 str0" d="M1282.02 9492.15l0 -78.74c0,-38.68 -20.63,-74.42 -54.13,-93.76 -33.5,-19.34 -74.77,-19.34 -108.27,0 -33.5,19.34 -54.13,55.08 -54.13,93.76l0 78.74c0,38.68 20.63,74.42 54.13,93.76 33.5,19.34 74.77,19.34 108.27,0 33.5,-19.34 54.13,-55.08 54.13,-93.76z"/>
  <path class="fil0 str0" d="M9482.65 5053.75c59.8,0 108.27,48.47 108.27,108.27 0,59.8 -48.47,108.27 -108.27,108.27 -59.8,0 -108.27,-48.47 -108.27,-108.27 0,-59.8 48.47,-108.27 108.27,-108.27z"/>
  <path class="fil0 str0" d="M19853.88 2405.56c-0.31,-522.41 -197.72,-1023.29 -548.78,-1392.46 -351.06,-369.17 -816.74,-834.71 -1312.91,-834.38l-6738.51 12.5c-99.23,0.07 -710.81,218.72 -780.93,292.65 -70.12,73.93 -60.02,325.74 -59.95,430.22l-7.92 8769.74c0.06,104.48 19.76,79.66 89.97,153.49 70.21,73.83 659.6,48.61 758.83,48.54l6730.59 0c496.17,-0.33 971.88,-208.17 1322.5,-577.8 350.62,-369.63 547.42,-868.29 547.11,-1390.7l0 -5511.8z"/>
  <path class="fil0 str0" d="M19509.06 6894.31l0 78.74c0,35.17 18.76,67.66 49.21,85.24 30.45,17.58 67.97,17.58 98.43,0 30.45,-17.58 49.21,-50.07 49.21,-85.24l0 -78.74c0,-35.17 -18.76,-67.66 -49.21,-85.24 -30.45,-17.58 -67.97,-17.58 -98.43,0 -30.45,17.58 -49.21,50.07 -49.21,85.24z"/>
  <path class="fil0 str0" d="M19499.22 3351l0 78.74c0,38.68 20.63,74.42 54.13,93.76 33.5,19.34 74.77,19.34 108.27,0 33.5,-19.34 54.13,-55.08 54.13,-93.76l0 -78.74c0,-38.68 -20.64,-74.42 -54.13,-93.76 -33.5,-19.34 -74.77,-19.34 -108.27,0 -33.5,19.34 -54.13,55.08 -54.13,93.76z"/>
  <path class="fil0 str0" d="M11190.32 927c0,32.43 20.63,62.39 54.13,78.6 33.5,16.21 74.77,16.21 108.27,0 33.5,-16.22 54.13,-46.18 54.13,-78.6l0 -66.01c0,-32.43 14.77,-167.19 -18.71,-183.39 -33.48,-16.2 -139.37,-11.83 -172.86,4.37 -33.48,16.2 -24.96,146.59 -24.96,179.02l0 66.01z"/>
  <path class="fil0 str0" d="M11190.32 6381.92c0,38.68 20.63,74.42 54.13,93.76 33.5,19.34 74.77,19.34 108.27,0 33.5,-19.34 54.13,-55.08 54.13,-93.76l0 -78.74c0,-38.68 -20.63,-74.42 -54.13,-93.76 -33.5,-19.34 -74.77,-19.34 -108.27,0 -33.5,19.34 -54.13,55.08 -54.13,93.76l0 78.74z"/>
  <path class="fil0 str0" d="M11190.32 3940.99l0 78.74c0,38.68 20.63,74.42 54.13,93.76 33.5,19.34 74.77,19.34 108.27,0 33.5,-19.34 54.13,-55.08 54.13,-93.76l0 -78.74c0,-38.68 -20.63,-74.42 -54.13,-93.76 -33.5,-19.34 -74.77,-19.34 -108.27,0 -33.5,19.34 -54.13,55.08 -54.13,93.76z"/>
  <path class="fil0 str0" d="M11406.85 9492.16l0 -78.74c0,-38.68 -20.63,-74.42 -54.13,-93.76 -33.5,-19.34 -74.77,-19.34 -108.27,0 -33.5,19.34 -54.13,55.08 -54.13,93.76l0 78.74c0,38.68 20.63,74.42 54.13,93.76 33.5,19.34 74.77,19.34 108.27,0 33.5,-19.34 54.13,-55.08 54.13,-93.76z"/>
  <path class="fil0 str0" d="M19607.49 5053.76c59.8,0 108.27,48.47 108.27,108.27 0,59.8 -48.47,108.27 -108.27,108.27 -59.8,0 -108.27,-48.47 -108.27,-108.27 0,-59.8 48.47,-108.27 108.27,-108.27z"/>
  <path class="fil0 str0" d="M30024 2405.56c-0.31,-522.41 -197.72,-1023.29 -548.78,-1392.46 -351.06,-369.17 -816.75,-834.71 -1312.91,-834.38l-6738.51 12.5c-99.23,0.07 -710.81,218.72 -780.93,292.65 -70.12,73.93 -60.02,325.74 -59.95,430.22l-7.92 8769.74c0.06,104.48 19.76,79.66 89.97,153.49 70.21,73.83 659.6,48.61 758.83,48.54l6730.59 0c496.17,-0.33 971.88,-208.17 1322.5,-577.8 350.62,-369.63 547.42,-868.29 547.11,-1390.7l0 -5511.8z"/>
  <path class="fil0 str0" d="M29679.19 6894.31l0 78.74c0,35.17 18.76,67.66 49.21,85.24 30.45,17.58 67.97,17.58 98.43,0 30.45,-17.58 49.21,-50.07 49.21,-85.24l0 -78.74c0,-35.17 -18.76,-67.66 -49.21,-85.24 -30.45,-17.58 -67.97,-17.58 -98.43,0 -30.45,17.58 -49.21,50.07 -49.21,85.24z"/>
  <path class="fil0 str0" d="M29669.34 3351l0 78.74c0,38.68 20.63,74.42 54.13,93.76 33.5,19.34 74.77,19.34 108.27,0 33.5,-19.34 54.13,-55.08 54.13,-93.76l0 -78.74c0,-38.68 -20.64,-74.42 -54.13,-93.76 -33.5,-19.34 -74.77,-19.34 -108.27,0 -33.5,19.34 -54.13,55.08 -54.13,93.76z"/>
  <path class="fil0 str0" d="M21360.44 927.01c0,32.43 20.63,62.38 54.13,78.6 33.5,16.21 74.77,16.21 108.27,0 33.5,-16.22 54.13,-46.17 54.13,-78.6l0 -66.01c0,-32.43 14.77,-167.19 -18.71,-183.39 -33.48,-16.2 -139.37,-11.83 -172.86,4.37 -33.48,16.2 -24.96,146.59 -24.96,179.02l0 66.01z"/>
  <path class="fil0 str0" d="M21360.44 6381.92c0,38.68 20.63,74.42 54.13,93.76 33.5,19.34 74.77,19.34 108.27,0 33.5,-19.34 54.13,-55.08 54.13,-93.76l0 -78.74c0,-38.68 -20.63,-74.42 -54.13,-93.76 -33.5,-19.34 -74.77,-19.34 -108.27,0 -33.5,19.34 -54.13,55.08 -54.13,93.76l0 78.74z"/>
  <path class="fil0 str0" d="M21360.44 3940.99l0 78.74c0,38.68 20.63,74.42 54.13,93.76 33.5,19.34 74.77,19.34 108.27,0 33.5,-19.34 54.13,-55.08 54.13,-93.76l0 -78.74c0,-38.68 -20.63,-74.42 -54.13,-93.76 -33.5,-19.34 -74.77,-19.34 -108.27,0 -33.5,19.34 -54.13,55.08 -54.13,93.76z"/>
  <path class="fil0 str0" d="M21576.98 9492.16l0 -78.74c0,-38.68 -20.63,-74.42 -54.13,-93.76 -33.5,-19.34 -74.77,-19.34 -108.27,0 -33.5,19.34 -54.13,55.08 -54.13,93.76l0 78.74c0,38.68 20.63,74.42 54.13,93.76 33.5,19.34 74.77,19.34 108.27,0 33.5,-19.34 54.13,-55.08 54.13,-93.76z"/>
  <path class="fil0 str0" d="M29777.61 5053.76c59.8,0 108.27,48.47 108.27,108.27 0,59.8 -48.47,108.27 -108.27,108.27 -59.8,0 -108.27,-48.47 -108.27,-108.27 0,-59.8 48.47,-108.27 108.27,-108.27z"/>
  <path class="fil0 str0" d="M9620.16 12205.57c-0.31,-522.41 -197.72,-1023.29 -548.78,-1392.46 -351.06,-369.17 -816.74,-834.71 -1312.91,-834.38l-6738.51 12.5c-99.23,0.07 -710.81,218.72 -780.93,292.65 -70.12,73.93 -60.02,325.74 -59.95,430.22l-7.92 8769.74c0.06,104.48 19.76,79.66 89.97,153.49 70.21,73.83 659.6,48.61 758.83,48.54l6730.59 0c496.17,-0.33 971.88,-208.17 1322.5,-577.8 350.62,-369.63 547.42,-868.29 547.11,-1390.7l0 -5511.8z"/>
  <path class="fil0 str0" d="M9275.35 16694.33l0 78.74c0,35.17 18.76,67.66 49.21,85.24 30.45,17.58 67.97,17.58 98.43,0 30.45,-17.58 49.21,-50.07 49.21,-85.24l0 -78.74c0,-35.17 -18.76,-67.66 -49.21,-85.24 -30.45,-17.58 -67.97,-17.58 -98.43,0 -30.45,17.58 -49.21,50.07 -49.21,85.24z"/>
  <path class="fil0 str0" d="M9265.5 13151.02l0 78.74c0,38.68 20.63,74.42 54.13,93.76 33.5,19.34 74.77,19.34 108.27,0 33.5,-19.34 54.13,-55.08 54.13,-93.76l0 -78.74c0,-38.68 -20.64,-74.42 -54.13,-93.76 -33.5,-19.34 -74.77,-19.34 -108.27,0 -33.5,19.34 -54.13,55.08 -54.13,93.76z"/>
  <path class="fil0 str0" d="M956.6 10727.11c0,32.39 20.63,62.32 54.13,78.52 33.5,16.19 74.77,16.19 108.27,0 33.5,-16.2 54.13,-46.13 54.13,-78.52l0 -65.94c0,-32.39 14.77,-167.02 -18.71,-183.21 -33.48,-16.18 -139.37,-11.81 -172.86,4.37 -33.48,16.19 -24.96,146.45 -24.96,178.85l0 65.94z"/>
  <path class="fil0 str0" d="M956.6 16181.94c0,38.68 20.63,74.42 54.13,93.76 33.5,19.34 74.77,19.34 108.27,0 33.5,-19.34 54.13,-55.08 54.13,-93.76l0 -78.74c0,-38.68 -20.63,-74.42 -54.13,-93.76 -33.5,-19.34 -74.77,-19.34 -108.27,0 -33.5,19.34 -54.13,55.08 -54.13,93.76l0 78.74z"/>
  <path class="fil0 str0" d="M956.6 13741.01l0 78.74c0,38.68 20.63,74.42 54.13,93.76 33.5,19.34 74.77,19.34 108.27,0 33.5,-19.34 54.13,-55.08 54.13,-93.76l0 -78.74c0,-38.68 -20.63,-74.42 -54.13,-93.76 -33.5,-19.34 -74.77,-19.34 -108.27,0 -33.5,19.34 -54.13,55.08 -54.13,93.76z"/>
  <path class="fil0 str0" d="M1173.14 19292.17l0 -78.74c0,-38.68 -20.63,-74.42 -54.13,-93.76 -33.5,-19.34 -74.77,-19.34 -108.27,0 -33.5,19.34 -54.13,55.08 -54.13,93.76l0 78.74c0,38.68 20.63,74.42 54.13,93.76 33.5,19.34 74.77,19.34 108.27,0 33.5,-19.34 54.13,-55.08 54.13,-93.76z"/>
  <path class="fil0 str0" d="M9373.77 14853.78c59.8,0 108.27,48.47 108.27,108.27 0,59.8 -48.47,108.27 -108.27,108.27 -59.8,0 -108.27,-48.47 -108.27,-108.27 0,-59.8 48.47,-108.27 108.27,-108.27z"/>
  <path class="fil0 str0" d="M19744.98 12205.57c-0.31,-522.41 -197.72,-1023.29 -548.78,-1392.46 -351.06,-369.17 -816.74,-834.71 -1312.91,-834.38l-6738.51 12.5c-99.23,0.07 -710.81,218.72 -780.93,292.65 -70.12,73.93 -60.02,325.74 -59.95,430.22l-7.92 8769.74c0.06,104.48 19.76,79.66 89.97,153.49 70.21,73.83 659.6,48.61 758.83,48.54l6730.59 0c496.17,-0.33 971.88,-208.17 1322.5,-577.8 350.62,-369.63 547.42,-868.29 547.11,-1390.7l0 -5511.8z"/>
  <path class="fil0 str0" d="M19400.17 16694.33l0 78.74c0,35.17 18.76,67.66 49.21,85.24 30.45,17.58 67.97,17.58 98.43,0 30.45,-17.58 49.21,-50.07 49.21,-85.24l0 -78.74c0,-35.17 -18.76,-67.66 -49.21,-85.24 -30.45,-17.58 -67.97,-17.58 -98.43,0 -30.45,17.58 -49.21,50.07 -49.21,85.24z"/>
  <path class="fil0 str0" d="M19390.33 13151.02l0 78.74c0,38.68 20.63,74.42 54.13,93.76 33.5,19.34 74.77,19.34 108.27,0 33.5,-19.34 54.13,-55.08 54.13,-93.76l0 -78.74c0,-38.68 -20.64,-74.42 -54.13,-93.76 -33.5,-19.34 -74.77,-19.34 -108.27,0 -33.5,19.34 -54.13,55.08 -54.13,93.76z"/>
  <path class="fil0 str0" d="M11081.43 10727.11c0,32.39 20.63,62.32 54.13,78.52 33.5,16.19 74.77,16.19 108.27,0 33.5,-16.2 54.13,-46.13 54.13,-78.52l0 -65.94c0,-32.39 14.77,-167.02 -18.71,-183.21 -33.48,-16.18 -139.37,-11.81 -172.86,4.37 -33.48,16.19 -24.96,146.45 -24.96,178.85l0 65.94z"/>
  <path class="fil0 str0" d="M11081.43 16181.94c0,38.68 20.63,74.42 54.13,93.76 33.5,19.34 74.77,19.34 108.27,0 33.5,-19.34 54.13,-55.08 54.13,-93.76l0 -78.74c0,-38.68 -20.63,-74.42 -54.13,-93.76 -33.5,-19.34 -74.77,-19.34 -108.27,0 -33.5,19.34 -54.13,55.08 -54.13,93.76l0 78.74z"/>
  <path class="fil0 str0" d="M11081.43 13741.01l0 78.74c0,38.68 20.63,74.42 54.13,93.76 33.5,19.34 74.77,19.34 108.27,0 33.5,-19.34 54.13,-55.08 54.13,-93.76l0 -78.74c0,-38.68 -20.63,-74.42 -54.13,-93.76 -33.5,-19.34 -74.77,-19.34 -108.27,0 -33.5,19.34 -54.13,55.08 -54.13,93.76z"/>
  <path class="fil0 str0" d="M11297.96 19292.17l0 -78.74c0,-38.68 -20.63,-74.42 -54.13,-93.76 -33.5,-19.34 -74.77,-19.34 -108.27,0 -33.5,19.34 -54.13,55.08 -54.13,93.76l0 78.74c0,38.68 20.63,74.42 54.13,93.76 33.5,19.34 74.77,19.34 108.27,0 33.5,-19.34 54.13,-55.08 54.13,-93.76z"/>
  <path class="fil0 str0" d="M19498.59 14853.78c59.8,0 108.27,48.47 108.27,108.27 0,59.8 -48.47,108.27 -108.27,108.27 -59.8,0 -108.27,-48.47 -108.27,-108.27 0,-59.8 48.47,-108.27 108.27,-108.27z"/>
  <path class="fil0 str0" d="M29915.11 12205.57c-0.31,-522.41 -197.72,-1023.29 -548.78,-1392.46 -351.06,-369.17 -816.74,-834.71 -1312.91,-834.38l-6738.51 12.5c-99.23,0.07 -710.81,218.72 -780.93,292.65 -70.12,73.93 -60.02,325.74 -59.95,430.22l-7.92 8769.74c0.06,104.48 19.76,79.66 89.97,153.49 70.21,73.83 659.6,48.61 758.83,48.54l6730.59 0c496.17,-0.33 971.88,-208.17 1322.5,-577.8 350.62,-369.63 547.42,-868.29 547.11,-1390.7l0 -5511.8z"/>
  <path class="fil0 str0" d="M29560.29 16694.33l0 78.74c0,35.17 18.76,67.66 49.21,85.24 30.45,17.58 67.97,17.58 98.43,0 30.45,-17.58 49.21,-50.07 49.21,-85.24l0 -78.74c0,-35.17 -18.76,-67.66 -49.21,-85.24 -30.45,-17.58 -67.97,-17.58 -98.43,0 -30.45,17.58 -49.21,50.07 -49.21,85.24z"/>
  <path class="fil0 str0" d="M29550.45 13151.02l0 78.74c0,38.68 20.63,74.42 54.13,93.76 33.5,19.34 74.77,19.34 108.27,0 33.5,-19.34 54.13,-55.08 54.13,-93.76l0 -78.74c0,-38.68 -20.64,-74.42 -54.13,-93.76 -33.5,-19.34 -74.77,-19.34 -108.27,0 -33.5,19.34 -54.13,55.08 -54.13,93.76z"/>
  <path class="fil0 str0" d="M21251.55 10727.11c0,32.39 20.63,62.32 54.13,78.52 33.5,16.19 74.77,16.19 108.27,0 33.5,-16.2 54.13,-46.13 54.13,-78.52l0 -65.94c0,-32.39 14.77,-167.02 -18.71,-183.21 -33.48,-16.18 -139.37,-11.81 -172.86,4.37 -33.48,16.19 -24.96,146.45 -24.96,178.84l0 65.94z"/>
  <path class="fil0 str0" d="M21251.55 16181.94c0,38.68 20.63,74.42 54.13,93.76 33.5,19.34 74.77,19.34 108.27,0 33.5,-19.34 54.13,-55.08 54.13,-93.76l0 -78.74c0,-38.68 -20.63,-74.42 -54.13,-93.76 -33.5,-19.34 -74.77,-19.34 -108.27,0 -33.5,19.34 -54.13,55.08 -54.13,93.76l0 78.74z"/>
  <path class="fil0 str0" d="M21251.55 13741.01l0 78.74c0,38.68 20.63,74.42 54.13,93.76 33.5,19.34 74.77,19.34 108.27,0 33.5,-19.34 54.13,-55.08 54.13,-93.76l0 -78.74c0,-38.68 -20.63,-74.42 -54.13,-93.76 -33.5,-19.34 -74.77,-19.34 -108.27,0 -33.5,19.34 -54.13,55.08 -54.13,93.76z"/>
  <path class="fil0 str0" d="M21468.08 19292.17l0 -78.74c0,-38.68 -20.63,-74.42 -54.13,-93.76 -33.5,-19.34 -74.77,-19.34 -108.27,0 -33.5,19.34 -54.13,55.08 -54.13,93.76l0 78.74c0,38.68 20.63,74.42 54.13,93.76 33.5,19.34 74.77,19.34 108.27,0 33.5,-19.34 54.13,-55.08 54.13,-93.76z"/>
  <path class="fil0 str0" d="M29658.72 14853.78c59.8,0 108.27,48.47 108.27,108.27 0,59.8 -48.47,108.27 -108.27,108.27 -59.8,0 -108.27,-48.47 -108.27,-108.27 0,-59.8 48.47,-108.27 108.27,-108.27z"/>
  <rect class="fil0 str1" x="597.85" y="2387.4" width="465.28" height="76.39"/>
  <rect class="fil0 str2" x="597.85" y="2265.86" width="465.28" height="76.39"/>
  <rect class="fil0 str2" x="10717.64" y="2390.99" width="465.28" height="76.39"/>
  <rect class="fil0 str1" x="10717.64" y="2269.46" width="465.28" height="76.39"/>
  <rect class="fil0 str1" x="20883.2" y="2389.88" width="465.28" height="76.39"/>
  <rect class="fil0 str1" x="20883.2" y="2268.35" width="465.28" height="76.39"/>
  <rect class="fil0 str1" x="494.31" y="12155.02" width="465.28" height="76.39"/>
  <rect class="fil0 str1" x="494.31" y="12033.49" width="465.28" height="76.39"/>
  <rect class="fil0 str1" x="10615" y="12134.32" width="465.28" height="76.39"/>
  <rect class="fil0 str1" x="10615" y="12012.79" width="465.28" height="76.39"/>
  <rect class="fil0 str1" x="20778.75" y="12135.44" width="465.28" height="76.39"/>
  <rect class="fil0 str1" x="20778.75" y="12013.91" width="465.28" height="76.39"/>
 </g>
</svg>
