  0
SECTION
  2
HEADER
  9
$ACADVER
  1
AC1009
  9
$INSBASE
 10
0.0
 20
0.0
 30
0.0
  9
$EXTMIN
 10
1.145027460112203
 20
10.9059982757755094
 30
0.0
  9
$EXTMAX
 10
40.663700388937599
 20
28.1199049404159105
 30
0.0
  9
$LIMMIN
 10
0.0
 20
0.0
  9
$LIMMAX
 10
12.0
 20
9.0
  9
$ORTHOMODE
 70
     0
  9
$REGENMODE
 70
     1
  9
$FILLMODE
 70
     1
  9
$QTEXTMODE
 70
     0
  9
$MIRRTEXT
 70
     0
  9
$DRAGMODE
 70
     2
  9
$LTSCALE
 40
1.0
  9
$OSMODE
 70
  4095
  9
$ATTMODE
 70
     1
  9
$TEXTSIZE
 40
0.2
  9
$TRACEWID
 40
0.05
  9
$TEXTSTYLE
  7
STANDARD
  9
$CLAYER
  8
0
  9
$CELTYPE
  6
BYLAYER
  9
$CECOLOR
 62
   256
  9
$DIMSCALE
 40
1.0
  9
$DIMASZ
 40
0.18
  9
$DIMEXO
 40
0.0625
  9
$DIMDLI
 40
0.38
  9
$DIMRND
 40
0.0
  9
$DIMDLE
 40
0.0
  9
$DIMEXE
 40
0.18
  9
$DIMTP
 40
0.0
  9
$DIMTM
 40
0.0
  9
$DIMTXT
 40
0.18
  9
$DIMCEN
 40
0.09
  9
$DIMTSZ
 40
0.0
  9
$DIMTOL
 70
     0
  9
$DIMLIM
 70
     0
  9
$DIMTIH
 70
     1
  9
$DIMTOH
 70
     1
  9
$DIMSE1
 70
     0
  9
$DIMSE2
 70
     0
  9
$DIMTAD
 70
     0
  9
$DIMZIN
 70
     0
  9
$DIMBLK
  1

  9
$DIMASO
 70
     1
  9
$DIMSHO
 70
     1
  9
$DIMPOST
  1

  9
$DIMAPOST
  1

  9
$DIMALT
 70
     0
  9
$DIMALTD
 70
     2
  9
$DIMALTF
 40
25.3999999999999986
  9
$DIMLFAC
 40
1.0
  9
$DIMTOFL
 70
     0
  9
$DIMTVP
 40
0.0
  9
$DIMTIX
 70
     0
  9
$DIMSOXD
 70
     0
  9
$DIMSAH
 70
     0
  9
$DIMBLK1
  1

  9
$DIMBLK2
  1

  9
$DIMSTYLE
  2
STANDARD
  9
$DIMCLRD
 70
     0
  9
$DIMCLRE
 70
     0
  9
$DIMCLRT
 70
     0
  9
$DIMTFAC
 40
1.0
  9
$DIMGAP
 40
0.09
  9
$LUNITS
 70
     2
  9
$LUPREC
 70
     4
  9
$SKETCHINC
 40
0.1
  9
$FILLETRAD
 40
2.5
  9
$AUNITS
 70
     0
  9
$AUPREC
 70
     0
  9
$MENU
  1
.
  9
$ELEVATION
 40
0.0
  9
$PELEVATION
 40
0.0
  9
$THICKNESS
 40
0.0
  9
$LIMCHECK
 70
     0
  9
$BLIPMODE
 70
     0
  9
$CHAMFERA
 40
0.0
  9
$CHAMFERB
 40
0.0
  9
$SKPOLY
 70
     0
  9
$TDCREATE
 40
2458927.567546296864748
  9
$TDUPDATE
 40
2458929.7007754631340504
  9
$TDINDWG
 40
1.4217939815
  9
$TDUSRTIMER
 40
1.4217939815
  9
$USRTIMER
 70
     1
  9
$ANGBASE
 50
0.0
  9
$ANGDIR
 70
     0
  9
$PDMODE
 70
     0
  9
$PDSIZE
 40
0.0
  9
$PLINEWID
 40
0.0
  9
$COORDS
 70
     1
  9
$SPLFRAME
 70
     0
  9
$SPLINETYPE
 70
     6
  9
$SPLINESEGS
 70
     8
  9
$ATTDIA
 70
     1
  9
$ATTREQ
 70
     1
  9
$HANDLING
 70
     1
  9
$HANDSEED
  5
4A5C
  9
$SURFTAB1
 70
     6
  9
$SURFTAB2
 70
     6
  9
$SURFTYPE
 70
     6
  9
$SURFU
 70
     6
  9
$SURFV
 70
     6
  9
$UCSNAME
  2

  9
$UCSORG
 10
0.0
 20
0.0
 30
0.0
  9
$UCSXDIR
 10
1.0
 20
0.0
 30
0.0
  9
$UCSYDIR
 10
0.0
 20
1.0
 30
0.0
  9
$PUCSNAME
  2

  9
$PUCSORG
 10
0.0
 20
0.0
 30
0.0
  9
$PUCSXDIR
 10
1.0
 20
0.0
 30
0.0
  9
$PUCSYDIR
 10
0.0
 20
1.0
 30
0.0
  9
$USERI1
 70
     0
  9
$USERI2
 70
     0
  9
$USERI3
 70
     0
  9
$USERI4
 70
     0
  9
$USERI5
 70
     0
  9
$USERR1
 40
0.0
  9
$USERR2
 40
0.0
  9
$USERR3
 40
0.0
  9
$USERR4
 40
0.0
  9
$USERR5
 40
0.0
  9
$WORLDVIEW
 70
     1
  9
$SHADEDGE
 70
     3
  9
$SHADEDIF
 70
    70
  9
$TILEMODE
 70
     1
  9
$MAXACTVP
 70
    64
  9
$PLIMCHECK
 70
     0
  9
$PEXTMIN
 10
0.0
 20
0.0
 30
0.0
  9
$PEXTMAX
 10
0.0
 20
0.0
 30
0.0
  9
$PLIMMIN
 10
0.0
 20
0.0
  9
$PLIMMAX
 10
12.0
 20
9.0
  9
$UNITMODE
 70
     0
  9
$VISRETAIN
 70
     1
  9
$PLINEGEN
 70
     0
  9
$PSLTSCALE
 70
     1
  0
ENDSEC
  0
SECTION
  2
TABLES
  0
TABLE
  2
VPORT
 70
     1
  0
VPORT
  2
*ACTIVE
 70
     0
 10
0.0
 20
0.0
 11
1.0
 21
1.0
 12
4.2980815648002881
 22
23.8493063102052005
 13
0.0
 23
0.0
 14
0.5
 24
0.5
 15
0.5
 25
0.5
 16
0.0
 26
0.0
 36
1.0
 17
0.0
 27
0.0
 37
0.0
 40
15.7012729278161203
 41
2.2927120669056151
 42
50.0
 43
0.0
 44
0.0
 50
0.0
 51
0.0
 71
     0
 72
  1000
 73
     1
 74
     3
 75
     0
 76
     1
 77
     0
 78
     0
  0
ENDTAB
  0
TABLE
  2
LTYPE
 70
     2
  0
LTYPE
  2
CONTINUOUS
 70
     0
  3
Solid line
 72
    65
 73
     0
 40
0.0
  0
ENDTAB
  0
TABLE
  2
LAYER
 70
     2
  0
LAYER
  2
0
 70
     0
 62
     7
  6
CONTINUOUS
  0
LAYER
  2
LAYER_1
 70
     0
 62
    18
  6
CONTINUOUS
  0
ENDTAB
  0
TABLE
  2
STYLE
 70
     2
  0
STYLE
  2
STANDARD
 70
     0
 40
0.0
 41
1.0
 50
0.0
 71
     0
 42
0.2
  3
txt
  4

  0
STYLE
  2
ANNOTATIVE
 70
     0
 40
0.0
 41
1.0
 50
0.0
 71
     0
 42
0.2
  3
txt
  4

  0
ENDTAB
  0
TABLE
  2
VIEW
 70
     1
  0
ENDTAB
  0
TABLE
  2
UCS
 70
     0
  0
ENDTAB
  0
TABLE
  2
APPID
 70
    12
  0
APPID
  2
ACAD
 70
     0
  0
APPID
  2
ACADANNOPO
 70
     0
  0
APPID
  2
ACADANNOTATIVE
 70
     0
  0
APPID
  2
ACAD_DSTYLE_DIMJAG
 70
     0
  0
APPID
  2
ACAD_DSTYLE_DIMTALN
 70
     0
  0
APPID
  2
ACAD_MLEADERVER
 70
     0
  0
APPID
  2
ACAD_NAV_VCDISPLAY
 70
     0
  0
APPID
  2
ACAD_EXEMPT_FROM_CAD_STANDARDS
 70
     0
  0
APPID
  2
ACAUTHENVIRON
 70
     0
  0
APPID
  2
ACDBDYNAMICBLOCKTRUENAME
 70
     0
  0
APPID
  2
ACDBDYNAMICBLOCKGUID
 70
     0
  0
APPID
  2
CONTENTBLOCKICON
 70
     0
  0
ENDTAB
  0
TABLE
  2
DIMSTYLE
 70
     3
  0
DIMSTYLE
  2
STANDARD
 70
     0
  3

  4

  5

  6

  7

 40
1.0
 41
0.18
 42
0.0625
 43
0.38
 44
0.18
 45
0.0
 46
0.0
 47
0.0
 48
0.0
140
0.18
141
0.09
142
0.0
143
25.3999999999999986
144
1.0
145
0.0
146
1.0
147
0.09
 71
     0
 72
     0
 73
     1
 74
     1
 75
     0
 76
     0
 77
     0
 78
     0
170
     0
171
     2
172
     0
173
     0
174
     0
175
     0
176
     0
177
     0
178
     0
  0
DIMSTYLE
  2
ANNOTATIVE
 70
     0
  3

  4

  5

  6

  7

 40
0.0
 41
0.18
 42
0.0625
 43
0.38
 44
0.18
 45
0.0
 46
0.0
 47
0.0
 48
0.0
140
0.18
141
0.09
142
0.0
143
25.3999999999999986
144
1.0
145
0.0
146
1.0
147
0.09
 71
     0
 72
     0
 73
     1
 74
     1
 75
     0
 76
     0
 77
     0
 78
     0
170
     0
171
     2
172
     0
173
     0
174
     0
175
     0
176
     0
177
     0
178
     0
  0
ENDTAB
  0
ENDSEC
  0
SECTION
  2
BLOCKS
  0
BLOCK
  8
0
  2
$MODEL_SPACE
 70
     0
 10
0.0
 20
0.0
 30
0.0
  3
$MODEL_SPACE
  1

  0
ENDBLK
  5
21
  8
0
  0
BLOCK
 67
     1
  8
0
  2
$PAPER_SPACE
 70
     0
 10
0.0
 20
0.0
 30
0.0
  3
$PAPER_SPACE
  1

  0
ENDBLK
  5
5B
 67
     1
  8
0
  0
BLOCK
  8
0
  2
1
 70
     0
 10
0.0
 20
0.0
 30
0.0
  3
1
  1

  0
POLYLINE
  5
F4D
  8
LAYER_1
 62
     0
 66
     1
 10
0.0
 20
0.0
 30
0.0
 70
     1
  0
VERTEX
  5
443C
  8
LAYER_1
 62
     0
 10
-5.1743872973361507
 20
22.9236488906929807
 30
0.0
  0
VERTEX
  5
443D
  8
LAYER_1
 62
     0
 10
-5.1571231989365973
 20
22.8876451581988896
 30
0.0
  0
VERTEX
  5
443E
  8
LAYER_1
 62
     0
 10
-5.1138766857756934
 20
22.9716862384292888
 30
0.0
  0
VERTEX
  5
443F
  8
LAYER_1
 62
     0
 10
-5.099336278469849
 20
22.9950522757981588
 30
0.0
  0
VERTEX
  5
4440
  8
LAYER_1
 62
     0
 10
-5.0953787851456447
 20
23.0013441694988998
 30
0.0
  0
VERTEX
  5
4441
  8
LAYER_1
 62
     0
 10
-5.0914052118702076
 20
23.0075245756829112
 30
0.0
  0
VERTEX
  5
4442
  8
LAYER_1
 62
     0
 10
-5.0874125903406959
 20
23.0135953429097206
 30
0.0
  0
VERTEX
  5
4443
  8
LAYER_1
 62
     0
 10
-5.083397952254276
 20
23.0195583197388416
 30
0.0
  0
VERTEX
  5
4444
  8
LAYER_1
 62
     0
 10
-5.0793583293081026
 20
23.0254153547298017
 30
0.0
  0
VERTEX
  5
4445
  8
LAYER_1
 62
     0
 10
-5.0752907531993428
 20
23.0311682964421216
 30
0.0
  0
VERTEX
  5
4446
  8
LAYER_1
 62
     0
 10
-5.0711922556251539
 20
23.0368189934353111
 30
0.0
  0
VERTEX
  5
4447
  8
LAYER_1
 62
     0
 10
-5.0670598682826968
 20
23.0423692942689016
 30
0.0
  0
VERTEX
  5
4448
  8
LAYER_1
 62
     0
 10
-5.0628906228691326
 20
23.0478210475024099
 30
0.0
  0
VERTEX
  5
4449
  8
LAYER_1
 62
     0
 10
-5.0586815510816239
 20
23.0531761016953602
 30
0.0
  0
VERTEX
  5
444A
  8
LAYER_1
 62
     0
 10
-5.0544296846173333
 20
23.0584363054072803
 30
0.0
  0
VERTEX
  5
444B
  8
LAYER_1
 62
     0
 10
-5.0501320551734148
 20
23.0636035071976799
 30
0.0
  0
VERTEX
  5
444C
  8
LAYER_1
 62
     0
 10
-5.0457856944470381
 20
23.0686795556260904
 30
0.0
  0
VERTEX
  5
444D
  8
LAYER_1
 62
     0
 10
-5.0413876341353587
 20
23.073666299252011
 30
0.0
  0
VERTEX
  5
444E
  8
LAYER_1
 62
     0
 10
-5.0369349059355368
 20
23.0785655866349906
 30
0.0
  0
VERTEX
  5
444F
  8
LAYER_1
 62
     0
 10
-5.0324245415447377
 20
23.0833792663345285
 30
0.0
  0
VERTEX
  5
4450
  8
LAYER_1
 62
     0
 10
-5.0278535726601232
 20
23.0881091869101702
 30
0.0
  0
VERTEX
  5
4451
  8
LAYER_1
 62
     0
 10
-5.023219030978848
 20
23.0927571969214114
 30
0.0
  0
VERTEX
  5
4452
  8
LAYER_1
 62
     0
 10
-5.0185179481980748
 20
23.0973251449277903
 30
0.0
  0
VERTEX
  5
4453
  8
LAYER_1
 62
     0
 10
-5.0137473560149699
 20
23.1018148794888205
 30
0.0
  0
VERTEX
  5
4454
  8
LAYER_1
 62
     0
 10
-5.0089042861266897
 20
23.106228249164019
 30
0.0
  0
VERTEX
  5
4455
  8
LAYER_1
 62
     0
 10
-5.003985770230396
 20
23.1105671025129311
 30
0.0
  0
VERTEX
  5
4456
  8
LAYER_1
 62
     0
 10
-4.9989888400232507
 20
23.1148332880950385
 30
0.0
  0
VERTEX
  5
4457
  8
LAYER_1
 62
     0
 10
-4.9939105272024138
 20
23.11902865446989
 30
0.0
  0
VERTEX
  5
4458
  8
LAYER_1
 62
     0
 10
-4.9887478634650462
 20
23.1231550501969991
 30
0.0
  0
VERTEX
  5
4459
  8
LAYER_1
 62
     0
 10
-4.9834978805083088
 20
23.1272143238359007
 30
0.0
  0
VERTEX
  5
445A
  8
LAYER_1
 62
     0
 10
-4.9781576100293661
 20
23.1312083239460904
 30
0.0
  0
VERTEX
  5
445B
  8
LAYER_1
 62
     0
 10
-4.9727240837253763
 20
23.1351388990871101
 30
0.0
  0
VERTEX
  5
445C
  8
LAYER_1
 62
     0
 10
-4.967194333293496
 20
23.1390078978184697
 30
0.0
  0
VERTEX
  5
445D
  8
LAYER_1
 62
     0
 10
-4.9615653904308941
 20
23.1428171686996897
 30
0.0
  0
VERTEX
  5
445E
  8
LAYER_1
 62
     0
 10
-4.9558342868347278
 20
23.1465685602903015
 30
0.0
  0
VERTEX
  5
445F
  8
LAYER_1
 62
     0
 10
-4.9499980542021582
 20
23.1502639211498114
 30
0.0
  0
VERTEX
  5
4460
  8
LAYER_1
 62
     0
 10
-4.9440537242303471
 20
23.1539050998377611
 30
0.0
  0
VERTEX
  5
4461
  8
LAYER_1
 62
     0
 10
-4.9379983286164553
 20
23.1574939449136608
 30
0.0
  0
VERTEX
  5
4462
  8
LAYER_1
 62
     0
 10
-4.931828899057642
 20
23.1610323049370201
 30
0.0
  0
VERTEX
  5
4463
  8
LAYER_1
 62
     0
 10
-4.9255424672510699
 20
23.1645220284673812
 30
0.0
  0
VERTEX
  5
4464
  8
LAYER_1
 62
     0
 10
-4.9191360648939
 20
23.1679649640642502
 30
0.0
  0
VERTEX
  5
4465
  8
LAYER_1
 62
     0
 10
-4.9126067236832931
 20
23.1713629602871514
 30
0.0
  0
VERTEX
  5
4466
  8
LAYER_1
 62
     0
 10
-4.9059514753164102
 20
23.1747178656956088
 30
0.0
  0
VERTEX
  5
4467
  8
LAYER_1
 62
     0
 10
-4.8991673514904148
 20
23.1780315288491501
 30
0.0
  0
VERTEX
  5
4468
  8
LAYER_1
 62
     0
 10
-4.8922513839024626
 20
23.1813057983072817
 30
0.0
  0
VERTEX
  5
4469
  8
LAYER_1
 62
     0
 10
-4.8852006042497189
 20
23.1845425226295312
 30
0.0
  0
VERTEX
  5
446A
  8
LAYER_1
 62
     0
 10
-4.8780120442293411
 20
23.1877435503754192
 30
0.0
  0
VERTEX
  5
446B
  8
LAYER_1
 62
     0
 10
-4.8706827355384954
 20
23.1909107301044699
 30
0.0
  0
VERTEX
  5
446C
  8
LAYER_1
 62
     0
 10
-4.8632097098743383
 20
23.1940459103762109
 30
0.0
  0
VERTEX
  5
446D
  8
LAYER_1
 62
     0
 10
-4.8555899989340308
 20
23.1971509397501414
 30
0.0
  0
VERTEX
  5
446E
  8
LAYER_1
 62
     0
 10
-4.847820634414739
 20
23.2002276667858105
 30
0.0
  0
VERTEX
  5
446F
  8
LAYER_1
 62
     0
 10
-4.8398986480136168
 20
23.2032779400427209
 30
0.0
  0
VERTEX
  5
4470
  8
LAYER_1
 62
     0
 10
-4.8318210714278287
 20
23.2063036080804004
 30
0.0
  0
VERTEX
  5
4471
  8
LAYER_1
 62
     0
 10
-4.8235849363545391
 20
23.2093065194583588
 30
0.0
  0
VERTEX
  5
4472
  8
LAYER_1
 62
     0
 10
-4.8066251175340859
 20
23.2152514664732301
 30
0.0
  0
VERTEX
  5
4473
  8
LAYER_1
 62
     0
 10
-4.7889954451295473
 20
23.2211275695635209
 30
0.0
  0
VERTEX
  5
4474
  8
LAYER_1
 62
     0
 10
-4.7706721727182071
 20
23.2269496172053813
 30
0.0
  0
VERTEX
  5
4475
  8
LAYER_1
 62
     0
 10
-4.751631553877357
 20
23.2327323978749796
 30
0.0
  0
VERTEX
  5
4476
  8
LAYER_1
 62
     0
 10
-4.7318498421842836
 20
23.2384907000485015
 30
0.0
  0
VERTEX
  5
4477
  8
LAYER_1
 62
     0
 10
-4.711303291216276
 20
23.2442393122021009
 30
0.0
  0
VERTEX
  5
4478
  8
LAYER_1
 62
     0
 10
-4.6899681545506233
 20
23.2499930228119602
 30
0.0
  0
VERTEX
  5
4479
  8
LAYER_1
 62
     0
 10
-4.6472991108855766
 20
23.2613018758118812
 30
0.0
  0
VERTEX
  5
447A
  8
LAYER_1
 62
     0
 10
-4.6376993389851986
 20
23.2630127861593685
 30
0.0
  0
VERTEX
  5
447B
  8
LAYER_1
 62
     0
 10
-4.6358131951180086
 20
23.2633941565197695
 30
0.0
  0
VERTEX
  5
447C
  8
LAYER_1
 62
     0
 10
-4.6341352588076301
 20
23.2638227901627914
 30
0.0
  0
VERTEX
  5
447D
  8
LAYER_1
 62
     0
 10
-4.6326964141274889
 20
23.2642840967087317
 30
0.0
  0
VERTEX
  5
447E
  8
LAYER_1
 62
     0
 10
-4.6315275451510081
 20
23.2647634857778591
 30
0.0
  0
VERTEX
  5
447F
  8
LAYER_1
 62
     0
 10
-4.6306595359516116
 20
23.2652463669904392
 30
0.0
  0
VERTEX
  5
4480
  8
LAYER_1
 62
     0
 10
-4.6301232706027289
 20
23.2657181499667693
 30
0.0
  0
VERTEX
  5
4481
  8
LAYER_1
 62
     0
 10
-4.6299891931451711
 20
23.2659453201226789
 30
0.0
  0
VERTEX
  5
4482
  8
LAYER_1
 62
     0
 10
-4.6299496331777776
 20
23.2661642443271184
 30
0.0
  0
VERTEX
  5
4483
  8
LAYER_1
 62
     0
 10
-4.6300084512097248
 20
23.2663730987826511
 30
0.0
  0
VERTEX
  5
4484
  8
LAYER_1
 62
     0
 10
-4.6301695077501899
 20
23.2665700596917695
 30
0.0
  0
VERTEX
  5
4485
  8
LAYER_1
 62
     0
 10
-4.63223944841556
 20
23.2684164228766797
 30
0.0
  0
VERTEX
  5
4486
  8
LAYER_1
 62
     0
 10
-4.6648687171005951
 20
23.276421240916239
 30
0.0
  0
VERTEX
  5
4487
  8
LAYER_1
 62
     0
 10
-4.6827888838983256
 20
23.2809371367191815
 30
0.0
  0
VERTEX
  5
4488
  8
LAYER_1
 62
     0
 10
-4.7015666923628316
 20
23.2858903047225105
 30
0.0
  0
VERTEX
  5
4489
  8
LAYER_1
 62
     0
 10
-4.7207781160335669
 20
23.2911582029865798
 30
0.0
  0
VERTEX
  5
448A
  8
LAYER_1
 62
     0
 10
-4.739999128449977
 20
23.2966182895717004
 30
0.0
  0
VERTEX
  5
448B
  8
LAYER_1
 62
     0
 10
-4.7588057031515181
 20
23.3021480225382014
 30
0.0
  0
VERTEX
  5
448C
  8
LAYER_1
 62
     0
 10
-4.7767738136776421
 20
23.3076248599464115
 30
0.0
  0
VERTEX
  5
448D
  8
LAYER_1
 62
     0
 10
-4.793479433567799
 20
23.3129262598566704
 30
0.0
  0
VERTEX
  5
448E
  8
LAYER_1
 62
     0
 10
-4.8084985363614381
 20
23.3179296803292786
 30
0.0
  0
VERTEX
  5
448F
  8
LAYER_1
 62
     0
 10
-4.8240111971189812
 20
23.3233839688552109
 30
0.0
  0
VERTEX
  5
4490
  8
LAYER_1
 62
     0
 10
-4.8390409929544758
 20
23.3289455730054698
 30
0.0
  0
VERTEX
  5
4491
  8
LAYER_1
 62
     0
 10
-4.8536030550658404
 20
23.3346279077802912
 30
0.0
  0
VERTEX
  5
4492
  8
LAYER_1
 62
     0
 10
-4.860713414474322
 20
23.337518541339481
 30
0.0
  0
VERTEX
  5
4493
  8
LAYER_1
 62
     0
 10
-4.8677125146509903
 20
23.3404443881798791
 30
0.0
  0
VERTEX
  5
4494
  8
LAYER_1
 62
     0
 10
-4.8746022469955843
 20
23.3434071251765296
 30
0.0
  0
VERTEX
  5
4495
  8
LAYER_1
 62
     0
 10
-4.8813845029078431
 20
23.3464084292044696
 30
0.0
  0
VERTEX
  5
4496
  8
LAYER_1
 62
     0
 10
-4.8880611737875084
 20
23.3494499771387005
 30
0.0
  0
VERTEX
  5
4497
  8
LAYER_1
 62
     0
 10
-4.8946341510343174
 20
23.3525334458542595
 30
0.0
  0
VERTEX
  5
4498
  8
LAYER_1
 62
     0
 10
-4.901105326048012
 20
23.3556605122261907
 30
0.0
  0
VERTEX
  5
4499
  8
LAYER_1
 62
     0
 10
-4.9074765902283302
 20
23.3588328531294991
 30
0.0
  0
VERTEX
  5
449A
  8
LAYER_1
 62
     0
 10
-4.9137498349750111
 20
23.3620521454392183
 30
0.0
  0
VERTEX
  5
449B
  8
LAYER_1
 62
     0
 10
-4.9199269516877973
 20
23.3653200660303888
 30
0.0
  0
VERTEX
  5
449C
  8
LAYER_1
 62
     0
 10
-4.926009831766426
 20
23.3686382917780193
 30
0.0
  0
VERTEX
  5
449D
  8
LAYER_1
 62
     0
 10
-4.9320003666106338
 20
23.3720084995571504
 30
0.0
  0
VERTEX
  5
449E
  8
LAYER_1
 62
     0
 10
-4.9379004476201667
 20
23.3754323662428085
 30
0.0
  0
VERTEX
  5
449F
  8
LAYER_1
 62
     0
 10
-4.9437119661947619
 20
23.37891156871002
 30
0.0
  0
VERTEX
  5
44A0
  8
LAYER_1
 62
     0
 10
-4.9494368137341569
 20
23.3824477838338005
 30
0.0
  0
VERTEX
  5
44A1
  8
LAYER_1
 62
     0
 10
-4.955076881638095
 20
23.3860426884892014
 30
0.0
  0
VERTEX
  5
44A2
  8
LAYER_1
 62
     0
 10
-4.9606340613063109
 20
23.3896979595512207
 30
0.0
  0
VERTEX
  5
44A3
  8
LAYER_1
 62
     0
 10
-4.9661102441385481
 20
23.3934152738949095
 30
0.0
  0
VERTEX
  5
44A4
  8
LAYER_1
 62
     0
 10
-4.9715073215345473
 20
23.3971963083952907
 30
0.0
  0
VERTEX
  5
44A5
  8
LAYER_1
 62
     0
 10
-4.9768271848940442
 20
23.4010427399273802
 30
0.0
  0
VERTEX
  5
44A6
  8
LAYER_1
 62
     0
 10
-4.9820717256167804
 20
23.404956245366229
 30
0.0
  0
VERTEX
  5
44A7
  8
LAYER_1
 62
     0
 10
-4.9872428351024949
 20
23.4089385015868388
 30
0.0
  0
VERTEX
  5
44A8
  8
LAYER_1
 62
     0
 10
-4.9923424047509286
 20
23.4129911854642501
 30
0.0
  0
VERTEX
  5
44A9
  8
LAYER_1
 62
     0
 10
-4.9973723259618188
 20
23.4171159738734893
 30
0.0
  0
VERTEX
  5
44AA
  8
LAYER_1
 62
     0
 10
-5.0023344901349089
 20
23.4213145436895793
 30
0.0
  0
VERTEX
  5
44AB
  8
LAYER_1
 62
     0
 10
-5.0072307886699363
 20
23.4255885717875607
 30
0.0
  0
VERTEX
  5
44AC
  8
LAYER_1
 62
     0
 10
-5.01206311296664
 20
23.4299397350424492
 30
0.0
  0
VERTEX
  5
44AD
  8
LAYER_1
 62
     0
 10
-5.016833354424759
 20
23.4343697103292712
 30
0.0
  0
VERTEX
  5
44AE
  8
LAYER_1
 62
     0
 10
-5.0215434044440359
 20
23.4388801745230602
 30
0.0
  0
VERTEX
  5
44AF
  8
LAYER_1
 62
     0
 10
-5.0261951544242081
 20
23.443472804498839
 30
0.0
  0
VERTEX
  5
44B0
  8
LAYER_1
 62
     0
 10
-5.030790495765018
 20
23.4481492771316411
 30
0.0
  0
VERTEX
  5
44B1
  8
LAYER_1
 62
     0
 10
-5.0353313198661986
 20
23.4529112692964894
 30
0.0
  0
VERTEX
  5
44B2
  8
LAYER_1
 62
     0
 10
-5.039819518127497
 20
23.4577604578684102
 30
0.0
  0
VERTEX
  5
44B3
  8
LAYER_1
 62
     0
 10
-5.0442569819486467
 20
23.4626985197224407
 30
0.0
  0
VERTEX
  5
44B4
  8
LAYER_1
 62
     0
 10
-5.0486456027293949
 20
23.4677271317336
 30
0.0
  0
VERTEX
  5
44B5
  8
LAYER_1
 62
     0
 10
-5.0529872718694744
 20
23.4728479707769111
 30
0.0
  0
VERTEX
  5
44B6
  8
LAYER_1
 62
     0
 10
-5.0572838807686269
 20
23.4780627137274109
 30
0.0
  0
VERTEX
  5
44B7
  8
LAYER_1
 62
     0
 10
-5.0615373208265932
 20
23.4833730374601295
 30
0.0
  0
VERTEX
  5
44B8
  8
LAYER_1
 62
     0
 10
-5.0657494834431089
 20
23.488780618850079
 30
0.0
  0
VERTEX
  5
44B9
  8
LAYER_1
 62
     0
 10
-5.069922260017921
 20
23.4942871347722999
 30
0.0
  0
VERTEX
  5
44BA
  8
LAYER_1
 62
     0
 10
-5.0740575419507614
 20
23.4998942621018188
 30
0.0
  0
VERTEX
  5
44BB
  8
LAYER_1
 62
     0
 10
-5.0781572206413763
 20
23.5056036777136583
 30
0.0
  0
VERTEX
  5
44BC
  8
LAYER_1
 62
     0
 10
-5.0822231874895003
 20
23.5114170584828592
 30
0.0
  0
VERTEX
  5
44BD
  8
LAYER_1
 62
     0
 10
-5.0862573338948751
 20
23.5173360812844301
 30
0.0
  0
VERTEX
  5
44BE
  8
LAYER_1
 62
     0
 10
-5.0902615512572407
 20
23.5233624229934009
 30
0.0
  0
VERTEX
  5
44BF
  8
LAYER_1
 62
     0
 10
-5.0942377309763351
 20
23.5294977604848086
 30
0.0
  0
VERTEX
  5
44C0
  8
LAYER_1
 62
     0
 10
-5.0981877644519003
 20
23.5357437706336796
 30
0.0
  0
VERTEX
  5
44C1
  8
LAYER_1
 62
     0
 10
-5.102113543083675
 20
23.5421021303150404
 30
0.0
  0
VERTEX
  5
44C2
  8
LAYER_1
 62
     0
 10
-5.1060169582713959
 20
23.5485745164039209
 30
0.0
  0
VERTEX
  5
44C3
  8
LAYER_1
 62
     0
 10
-5.1098999014148081
 20
23.5551626057753403
 30
0.0
  0
VERTEX
  5
44C4
  8
LAYER_1
 62
     0
 10
-5.113764263913648
 20
23.5618680753043286
 30
0.0
  0
VERTEX
  5
44C5
  8
LAYER_1
 62
     0
 10
-5.1176119371676547
 20
23.5686926018659193
 30
0.0
  0
VERTEX
  5
44C6
  8
LAYER_1
 62
     0
 10
-5.1252647815401309
 20
23.5827055335869993
 30
0.0
  0
VERTEX
  5
44C7
  8
LAYER_1
 62
     0
 10
-5.1328735657301516
 20
23.5972148159388198
 30
0.0
  0
VERTEX
  5
44C8
  8
LAYER_1
 62
     0
 10
-5.1404534209356356
 20
23.6122338639215812
 30
0.0
  0
VERTEX
  5
44C9
  8
LAYER_1
 62
     0
 10
-5.1567184194351769
 20
23.6450593503511115
 30
0.0
  0
VERTEX
  5
44CA
  8
LAYER_1
 62
     0
 10
-5.1998606143235193
 20
23.5615230185049285
 30
0.0
  0
VERTEX
  5
44CB
  8
LAYER_1
 62
     0
 10
-5.214602824553082
 20
23.5377483613691183
 30
0.0
  0
VERTEX
  5
44CC
  8
LAYER_1
 62
     0
 10
-5.2194471336141071
 20
23.5300440205466685
 30
0.0
  0
VERTEX
  5
44CD
  8
LAYER_1
 62
     0
 10
-5.2243148666845167
 20
23.5225198942868907
 30
0.0
  0
VERTEX
  5
44CE
  8
LAYER_1
 62
     0
 10
-5.2292102950082571
 20
23.5151719544338285
 30
0.0
  0
VERTEX
  5
44CF
  8
LAYER_1
 62
     0
 10
-5.2341376898292751
 20
23.5079961728315787
 30
0.0
  0
VERTEX
  5
44D0
  8
LAYER_1
 62
     0
 10
-5.2391013223915079
 20
23.5009885213241816
 30
0.0
  0
VERTEX
  5
44D1
  8
LAYER_1
 62
     0
 10
-5.2441054639389053
 20
23.4941449717557092
 30
0.0
  0
VERTEX
  5
44D2
  8
LAYER_1
 62
     0
 10
-5.2491543857154088
 20
23.4874614959702299
 30
0.0
  0
VERTEX
  5
44D3
  8
LAYER_1
 62
     0
 10
-5.2542523589649619
 20
23.4809340658118195
 30
0.0
  0
VERTEX
  5
44D4
  8
LAYER_1
 62
     0
 10
-5.2594036549315089
 20
23.4745586531245216
 30
0.0
  0
VERTEX
  5
44D5
  8
LAYER_1
 62
     0
 10
-5.2646125448589949
 20
23.4683312297524189
 30
0.0
  0
VERTEX
  5
44D6
  8
LAYER_1
 62
     0
 10
-5.2698832999913634
 20
23.4622477675395693
 30
0.0
  0
VERTEX
  5
44D7
  8
LAYER_1
 62
     0
 10
-5.2752201915725561
 20
23.4563042383300413
 30
0.0
  0
VERTEX
  5
44D8
  8
LAYER_1
 62
     0
 10
-5.2806274908465181
 20
23.4504966139679105
 30
0.0
  0
VERTEX
  5
44D9
  8
LAYER_1
 62
     0
 10
-5.2861094690571937
 20
23.4448208662972206
 30
0.0
  0
VERTEX
  5
44DA
  8
LAYER_1
 62
     0
 10
-5.2916703974485282
 20
23.4392729671620508
 30
0.0
  0
VERTEX
  5
44DB
  8
LAYER_1
 62
     0
 10
-5.2973145472644623
 20
23.4338488884064695
 30
0.0
  0
VERTEX
  5
44DC
  8
LAYER_1
 62
     0
 10
-5.303046189748942
 20
23.4285446018745311
 30
0.0
  0
VERTEX
  5
44DD
  8
LAYER_1
 62
     0
 10
-5.3088695961459109
 20
23.4233560794103113
 30
0.0
  0
VERTEX
  5
44DE
  8
LAYER_1
 62
     0
 10
-5.3147890376993132
 20
23.4182792928578785
 30
0.0
  0
VERTEX
  5
44DF
  8
LAYER_1
 62
     0
 10
-5.3208087856530906
 20
23.4133102140612905
 30
0.0
  0
VERTEX
  5
44E0
  8
LAYER_1
 62
     0
 10
-5.3269331112511891
 20
23.4084448148646089
 30
0.0
  0
VERTEX
  5
44E1
  8
LAYER_1
 62
     0
 10
-5.3331662857375539
 20
23.4036790671119093
 30
0.0
  0
VERTEX
  5
44E2
  8
LAYER_1
 62
     0
 10
-5.3395125803561259
 20
23.3990089426472601
 30
0.0
  0
VERTEX
  5
44E3
  8
LAYER_1
 62
     0
 10
-5.3459762663508501
 20
23.3944304133147192
 30
0.0
  0
VERTEX
  5
44E4
  8
LAYER_1
 62
     0
 10
-5.3525616149656701
 20
23.3899394509583516
 30
0.0
  0
VERTEX
  5
44E5
  8
LAYER_1
 62
     0
 10
-5.3592728974445309
 20
23.3855320274222187
 30
0.0
  0
VERTEX
  5
44E6
  8
LAYER_1
 62
     0
 10
-5.3661143850313771
 20
23.3812041145503997
 30
0.0
  0
VERTEX
  5
44E7
  8
LAYER_1
 62
     0
 10
-5.37309034897015
 20
23.3769516841869489
 30
0.0
  0
VERTEX
  5
44E8
  8
LAYER_1
 62
     0
 10
-5.3802050605047933
 20
23.372770708175949
 30
0.0
  0
VERTEX
  5
44E9
  8
LAYER_1
 62
     0
 10
-5.3874627908792521
 20
23.3686571583614509
 30
0.0
  0
VERTEX
  5
44EA
  8
LAYER_1
 62
     0
 10
-5.3948678113374724
 20
23.3646070065875087
 30
0.0
  0
VERTEX
  5
44EB
  8
LAYER_1
 62
     0
 10
-5.4024243931233951
 20
23.3606162246982194
 30
0.0
  0
VERTEX
  5
44EC
  8
LAYER_1
 62
     0
 10
-5.4101314060492429
 20
23.3566375039071303
 30
0.0
  0
VERTEX
  5
44ED
  8
LAYER_1
 62
     0
 10
-5.4160348197868489
 20
23.3536860686058709
 30
0.0
  0
VERTEX
  5
44EE
  8
LAYER_1
 62
     0
 10
-5.4204272244439924
 20
23.3516815074529198
 30
0.0
  0
VERTEX
  5
44EF
  8
LAYER_1
 62
     0
 10
-5.4221482327760686
 20
23.3510091761378398
 30
0.0
  0
VERTEX
  5
44F0
  8
LAYER_1
 62
     0
 10
-5.4236012101284459
 20
23.3505434091067912
 30
0.0
  0
VERTEX
  5
44F1
  8
LAYER_1
 62
     0
 10
-5.4248227302645962
 20
23.3502741549420598
 30
0.0
  0
VERTEX
  5
44F2
  8
LAYER_1
 62
     0
 10
-5.4258493669479879
 20
23.3501913622259707
 30
0.0
  0
VERTEX
  5
44F3
  8
LAYER_1
 62
     0
 10
-5.4267176939420976
 20
23.3502849795408416
 30
0.0
  0
VERTEX
  5
44F4
  8
LAYER_1
 62
     0
 10
-5.4274642850103962
 20
23.350544955468969
 30
0.0
  0
VERTEX
  5
44F5
  8
LAYER_1
 62
     0
 10
-5.4281257139163541
 20
23.3509612385926815
 30
0.0
  0
VERTEX
  5
44F6
  8
LAYER_1
 62
     0
 10
-5.4287385544234441
 20
23.351523777494279
 30
0.0
  0
VERTEX
  5
44F7
  8
LAYER_1
 62
     0
 10
-5.4299647652949119
 20
23.3530474169604005
 30
0.0
  0
VERTEX
  5
44F8
  8
LAYER_1
 62
     0
 10
-5.4335420537543859
 20
23.3579170337411099
 30
0.0
  0
VERTEX
  5
44F9
  8
LAYER_1
 62
     0
 10
-5.4572118590018057
 20
23.4046515344422588
 30
0.0
  0
VERTEX
  5
44FA
  8
LAYER_1
 62
     0
 10
-5.4590165024076009
 20
23.4046515344422588
 30
0.0
  0
VERTEX
  5
44FB
  8
LAYER_1
 62
     0
 10
-5.4710634401895444
 20
23.3807107083050312
 30
0.0
  0
VERTEX
  5
44FC
  8
LAYER_1
 62
     0
 10
-5.47376517176692
 20
23.3754808342318299
 30
0.0
  0
VERTEX
  5
44FD
  8
LAYER_1
 62
     0
 10
-5.4768303166176491
 20
23.36978862330567
 30
0.0
  0
VERTEX
  5
44FE
  8
LAYER_1
 62
     0
 10
-5.4801528426722044
 20
23.3638168062942988
 30
0.0
  0
VERTEX
  5
44FF
  8
LAYER_1
 62
     0
 10
-5.4836267178610596
 20
23.3577481139654992
 30
0.0
  0
VERTEX
  5
4500
  8
LAYER_1
 62
     0
 10
-5.4871459101146929
 20
23.3517652770870292
 30
0.0
  0
VERTEX
  5
4501
  8
LAYER_1
 62
     0
 10
-5.4906043873635779
 20
23.346051026426661
 30
0.0
  0
VERTEX
  5
4502
  8
LAYER_1
 62
     0
 10
-5.4938961175381902
 20
23.3407880927521383
 30
0.0
  0
VERTEX
  5
4503
  8
LAYER_1
 62
     0
 10
-5.4969150685690007
 20
23.3361592068312405
 30
0.0
  0
VERTEX
  5
4504
  8
LAYER_1
 62
     0
 10
-5.501540326231912
 20
23.3293349254476503
 30
0.0
  0
VERTEX
  5
4505
  8
LAYER_1
 62
     0
 10
-5.5035468718356739
 20
23.3265322471754502
 30
0.0
  0
VERTEX
  5
4506
  8
LAYER_1
 62
     0
 10
-5.5054449555149088
 20
23.3240744736442096
 30
0.0
  0
VERTEX
  5
4507
  8
LAYER_1
 62
     0
 10
-5.5073062724400659
 20
23.3219155521998509
 30
0.0
  0
VERTEX
  5
4508
  8
LAYER_1
 62
     0
 10
-5.5092025177815982
 20
23.3200094301882714
 30
0.0
  0
VERTEX
  5
4509
  8
LAYER_1
 62
     0
 10
-5.5112053867099533
 20
23.3183100549554112
 30
0.0
  0
VERTEX
  5
450A
  8
LAYER_1
 62
     0
 10
-5.5133865743955823
 20
23.3167713738471782
 30
0.0
  0
VERTEX
  5
450B
  8
LAYER_1
 62
     0
 10
-5.5158177760089364
 20
23.3153473342094983
 30
0.0
  0
VERTEX
  5
450C
  8
LAYER_1
 62
     0
 10
-5.5185706867204649
 20
23.3139918833882795
 30
0.0
  0
VERTEX
  5
450D
  8
LAYER_1
 62
     0
 10
-5.5217170017006199
 20
23.3126589687294512
 30
0.0
  0
VERTEX
  5
450E
  8
LAYER_1
 62
     0
 10
-5.5253284161198533
 20
23.3113025375789213
 30
0.0
  0
VERTEX
  5
450F
  8
LAYER_1
 62
     0
 10
-5.5294766251486109
 20
23.3098765372826193
 30
0.0
  0
VERTEX
  5
4510
  8
LAYER_1
 62
     0
 10
-5.5342333239573476
 20
23.3083349151864603
 30
0.0
  0
VERTEX
  5
4511
  8
LAYER_1
 62
     0
 10
-5.5458589715965552
 20
23.304720594978221
 30
0.0
  0
VERTEX
  5
4512
  8
LAYER_1
 62
     0
 10
-5.5539166508642639
 20
23.3022898680885504
 30
0.0
  0
VERTEX
  5
4513
  8
LAYER_1
 62
     0
 10
-5.5633648487711742
 20
23.2995280649942487
 30
0.0
  0
VERTEX
  5
4514
  8
LAYER_1
 62
     0
 10
-5.5850533118896131
 20
23.2933943527622382
 30
0.0
  0
VERTEX
  5
4515
  8
LAYER_1
 62
     0
 10
-5.6081653837259209
 20
23.2870857034229388
 30
0.0
  0
VERTEX
  5
4516
  8
LAYER_1
 62
     0
 10
-5.6299420870541459
 20
23.2813683621170995
 30
0.0
  0
VERTEX
  5
4517
  8
LAYER_1
 62
     0
 10
-5.6788859900816986
 20
23.2688440657724094
 30
0.0
  0
VERTEX
  5
4518
  8
LAYER_1
 62
     0
 10
-5.6864158213167073
 20
23.2659453678165384
 30
0.0
  0
VERTEX
  5
4519
  8
LAYER_1
 62
     0
 10
-5.6048426496041186
 20
23.2440151347620905
 30
0.0
  0
VERTEX
  5
451A
  8
LAYER_1
 62
     0
 10
-5.6048426496041186
 20
23.2415051910170796
 30
0.0
  0
VERTEX
  5
451B
  8
LAYER_1
 62
     0
 10
-5.6316808790669119
 20
23.2299739280093611
 30
0.0
  0
VERTEX
  5
451C
  8
LAYER_1
 62
     0
 10
-5.6378690848206494
 20
23.227433479855609
 30
0.0
  0
VERTEX
  5
451D
  8
LAYER_1
 62
     0
 10
-5.6451827753334776
 20
23.224630329877499
 30
0.0
  0
VERTEX
  5
451E
  8
LAYER_1
 62
     0
 10
-5.6533517149629331
 20
23.2216568008136584
 30
0.0
  0
VERTEX
  5
451F
  8
LAYER_1
 62
     0
 10
-5.6621056680665456
 20
23.2186052154027607
 30
0.0
  0
VERTEX
  5
4520
  8
LAYER_1
 62
     0
 10
-5.6711743990018499
 20
23.2155678963834617
 30
0.0
  0
VERTEX
  5
4521
  8
LAYER_1
 62
     0
 10
-5.6802876721263784
 20
23.2126371664943889
 30
0.0
  0
VERTEX
  5
4522
  8
LAYER_1
 62
     0
 10
-5.6891752517976624
 20
23.2099053484742193
 30
0.0
  0
VERTEX
  5
4523
  8
LAYER_1
 62
     0
 10
-5.697566902373234
 20
23.2074647650616015
 30
0.0
  0
VERTEX
  5
4524
  8
LAYER_1
 62
     0
 10
-5.7366146962167619
 20
23.1964868651215603
 30
0.0
  0
VERTEX
  5
4525
  8
LAYER_1
 62
     0
 10
-5.7592041899217872
 20
23.1906670387212692
 30
0.0
  0
VERTEX
  5
4526
  8
LAYER_1
 62
     0
 10
-5.7228100056192472
 20
23.1811081021554983
 30
0.0
  0
VERTEX
  5
4527
  8
LAYER_1
 62
     0
 10
-5.7095738799747897
 20
23.177555942189219
 30
0.0
  0
VERTEX
  5
4528
  8
LAYER_1
 62
     0
 10
-5.6968384948335471
 20
23.1739791844771403
 30
0.0
  0
VERTEX
  5
4529
  8
LAYER_1
 62
     0
 10
-5.6845882617636567
 20
23.1703666290425794
 30
0.0
  0
VERTEX
  5
452A
  8
LAYER_1
 62
     0
 10
-5.6728075923332577
 20
23.16670707590891
 30
0.0
  0
VERTEX
  5
452B
  8
LAYER_1
 62
     0
 10
-5.66148089811049
 20
23.1629893250994883
 30
0.0
  0
VERTEX
  5
452C
  8
LAYER_1
 62
     0
 10
-5.6505925906634866
 20
23.1592021766376597
 30
0.0
  0
VERTEX
  5
452D
  8
LAYER_1
 62
     0
 10
-5.640127081560391
 20
23.1553344305467697
 30
0.0
  0
VERTEX
  5
452E
  8
LAYER_1
 62
     0
 10
-5.6300687823693387
 20
23.1513748868501885
 30
0.0
  0
VERTEX
  5
452F
  8
LAYER_1
 62
     0
 10
-5.6204021046584707
 20
23.1473123455712688
 30
0.0
  0
VERTEX
  5
4530
  8
LAYER_1
 62
     0
 10
-5.6111114599959242
 20
23.1431356067333596
 30
0.0
  0
VERTEX
  5
4531
  8
LAYER_1
 62
     0
 10
-5.6021812599498348
 20
23.1388334703597991
 30
0.0
  0
VERTEX
  5
4532
  8
LAYER_1
 62
     0
 10
-5.5935959160883471
 20
23.1343947364739684
 30
0.0
  0
VERTEX
  5
4533
  8
LAYER_1
 62
     0
 10
-5.589427693841869
 20
23.1321206454712502
 30
0.0
  0
VERTEX
  5
4534
  8
LAYER_1
 62
     0
 10
-5.5853398399795919
 20
23.1298082050991987
 30
0.0
  0
VERTEX
  5
4535
  8
LAYER_1
 62
     0
 10
-5.5813304059475364
 20
23.1274560153607709
 30
0.0
  0
VERTEX
  5
4536
  8
LAYER_1
 62
     0
 10
-5.5773974431917139
 20
23.1250626762588709
 30
0.0
  0
VERTEX
  5
4537
  8
LAYER_1
 62
     0
 10
-5.5735390031581451
 20
23.1226267877963991
 30
0.0
  0
VERTEX
  5
4538
  8
LAYER_1
 62
     0
 10
-5.5697531372928486
 20
23.1201469499762986
 30
0.0
  0
VERTEX
  5
4539
  8
LAYER_1
 62
     0
 10
-5.5660378970418387
 20
23.1176217628014911
 30
0.0
  0
VERTEX
  5
453A
  8
LAYER_1
 62
     0
 10
-5.562391333851135
 20
23.1150498262748698
 30
0.0
  0
VERTEX
  5
453B
  8
LAYER_1
 62
     0
 10
-5.5588114991667519
 20
23.1124297403993815
 30
0.0
  0
VERTEX
  5
453C
  8
LAYER_1
 62
     0
 10
-5.5552964444347106
 20
23.1097601051779193
 30
0.0
  0
VERTEX
  5
453D
  8
LAYER_1
 62
     0
 10
-5.5518442211010246
 20
23.1070395206134194
 30
0.0
  0
VERTEX
  5
453E
  8
LAYER_1
 62
     0
 10
-5.5484528806117153
 20
23.1042665867088104
 30
0.0
  0
VERTEX
  5
453F
  8
LAYER_1
 62
     0
 10
-5.5451204744127951
 20
23.1014399034669893
 30
0.0
  0
VERTEX
  5
4540
  8
LAYER_1
 62
     0
 10
-5.5418450539502837
 20
23.0985580708908884
 30
0.0
  0
VERTEX
  5
4541
  8
LAYER_1
 62
     0
 10
-5.5386246706702016
 20
23.0956196889834189
 30
0.0
  0
VERTEX
  5
4542
  8
LAYER_1
 62
     0
 10
-5.5354573760185612
 20
23.0926233577475095
 30
0.0
  0
VERTEX
  5
4543
  8
LAYER_1
 62
     0
 10
-5.5323412214413814
 20
23.0895676771860714
 30
0.0
  0
VERTEX
  5
4544
  8
LAYER_1
 62
     0
 10
-5.5292742583846799
 20
23.0864512473020298
 30
0.0
  0
VERTEX
  5
4545
  8
LAYER_1
 62
     0
 10
-5.5262545382944728
 20
23.0832726680982994
 30
0.0
  0
VERTEX
  5
4546
  8
LAYER_1
 62
     0
 10
-5.5232801126167796
 20
23.0800305395777983
 30
0.0
  0
VERTEX
  5
4547
  8
LAYER_1
 62
     0
 10
-5.5203490327976157
 20
23.0767234617434589
 30
0.0
  0
VERTEX
  5
4548
  8
LAYER_1
 62
     0
 10
-5.5174593502830014
 20
23.0733500345981817
 30
0.0
  0
VERTEX
  5
4549
  8
LAYER_1
 62
     0
 10
-5.5146091165189493
 20
23.0699088581448883
 30
0.0
  0
VERTEX
  5
454A
  8
LAYER_1
 62
     0
 10
-5.5117963829514789
 20
23.0663985323865113
 30
0.0
  0
VERTEX
  5
454B
  8
LAYER_1
 62
     0
 10
-5.5062756221903548
 20
23.0591648329661609
 30
0.0
  0
VERTEX
  5
454C
  8
LAYER_1
 62
     0
 10
-5.5008814795677656
 20
23.051637736360469
 30
0.0
  0
VERTEX
  5
454D
  8
LAYER_1
 62
     0
 10
-5.4955983666518513
 20
23.0438060425927986
 30
0.0
  0
VERTEX
  5
454E
  8
LAYER_1
 62
     0
 10
-5.4904106950107483
 20
23.0356585516865096
 30
0.0
  0
VERTEX
  5
454F
  8
LAYER_1
 62
     0
 10
-5.4853028762125939
 20
23.0271840636649401
 30
0.0
  0
VERTEX
  5
4550
  8
LAYER_1
 62
     0
 10
-5.4802593218255291
 20
23.0183713785514392
 30
0.0
  0
VERTEX
  5
4551
  8
LAYER_1
 62
     0
 10
-5.475264443417692
 20
23.0092092963693915
 30
0.0
  0
VERTEX
  5
4552
  8
LAYER_1
 62
     0
 10
-5.47030265255722
 20
22.999686617142121
 30
0.0
  0
VERTEX
  5
4553
  8
LAYER_1
 62
     0
 10
-5.4581749968032538
 20
22.9759069988455309
 30
0.0
  0
VERTEX
  5
4554
  8
LAYER_1
 62
     0
 10
-5.4438307975923879
 20
23.0031498702336314
 30
0.0
  0
VERTEX
  5
4555
  8
LAYER_1
 62
     0
 10
-5.4401526512681579
 20
23.0100236326779815
 30
0.0
  0
VERTEX
  5
4556
  8
LAYER_1
 62
     0
 10
-5.4364559029933917
 20
23.0167068135898312
 30
0.0
  0
VERTEX
  5
4557
  8
LAYER_1
 62
     0
 10
-5.4327369701259078
 20
23.0232029534053098
 30
0.0
  0
VERTEX
  5
4558
  8
LAYER_1
 62
     0
 10
-5.4289922700235307
 20
23.0295155925605783
 30
0.0
  0
VERTEX
  5
4559
  8
LAYER_1
 62
     0
 10
-5.4252182200440808
 20
23.035648271491791
 30
0.0
  0
VERTEX
  5
455A
  8
LAYER_1
 62
     0
 10
-5.4214112375453833
 20
23.041604530635091
 30
0.0
  0
VERTEX
  5
455B
  8
LAYER_1
 62
     0
 10
-5.4175677398852571
 20
23.0473879104266111
 30
0.0
  0
VERTEX
  5
455C
  8
LAYER_1
 62
     0
 10
-5.413684144421528
 20
23.0530019513025088
 30
0.0
  0
VERTEX
  5
455D
  8
LAYER_1
 62
     0
 10
-5.4097568685120194
 20
23.0584501936989383
 30
0.0
  0
VERTEX
  5
455E
  8
LAYER_1
 62
     0
 10
-5.4057823295145493
 20
23.0637361780520393
 30
0.0
  0
VERTEX
  5
455F
  8
LAYER_1
 62
     0
 10
-5.4017569447869427
 20
23.0688634447979588
 30
0.0
  0
VERTEX
  5
4560
  8
LAYER_1
 62
     0
 10
-5.3976771316870229
 20
23.0738355343728507
 30
0.0
  0
VERTEX
  5
4561
  8
LAYER_1
 62
     0
 10
-5.3935393075726124
 20
23.0786559872128691
 30
0.0
  0
VERTEX
  5
4562
  8
LAYER_1
 62
     0
 10
-5.3893398898015308
 20
23.0833283437541503
 30
0.0
  0
VERTEX
  5
4563
  8
LAYER_1
 62
     0
 10
-5.385075295731605
 20
23.0878561444328305
 30
0.0
  0
VERTEX
  5
4564
  8
LAYER_1
 62
     0
 10
-5.380741942720654
 20
23.0922429296850815
 30
0.0
  0
VERTEX
  5
4565
  8
LAYER_1
 62
     0
 10
-5.3763362481265018
 20
23.0964922399470396
 30
0.0
  0
VERTEX
  5
4566
  8
LAYER_1
 62
     0
 10
-5.3718546293069727
 20
23.1006076156548517
 30
0.0
  0
VERTEX
  5
4567
  8
LAYER_1
 62
     0
 10
-5.3672935036198854
 20
23.1045925972446717
 30
0.0
  0
VERTEX
  5
4568
  8
LAYER_1
 62
     0
 10
-5.3626492884230643
 20
23.1084507251526396
 30
0.0
  0
VERTEX
  5
4569
  8
LAYER_1
 62
     0
 10
-5.3579184010743317
 20
23.1121855398149094
 30
0.0
  0
VERTEX
  5
456A
  8
LAYER_1
 62
     0
 10
-5.35309725893151
 20
23.1158005816676315
 30
0.0
  0
VERTEX
  5
456B
  8
LAYER_1
 62
     0
 10
-5.3481822793524234
 20
23.1192993911469387
 30
0.0
  0
VERTEX
  5
456C
  8
LAYER_1
 62
     0
 10
-5.3431698796948917
 20
23.1226855086889884
 30
0.0
  0
VERTEX
  5
456D
  8
LAYER_1
 62
     0
 10
-5.3380564773167398
 20
23.1259624747299313
 30
0.0
  0
VERTEX
  5
456E
  8
LAYER_1
 62
     0
 10
-5.3328384895757894
 20
23.1291338297059212
 30
0.0
  0
VERTEX
  5
456F
  8
LAYER_1
 62
     0
 10
-5.327512333829862
 20
23.1322031140530804
 30
0.0
  0
VERTEX
  5
4570
  8
LAYER_1
 62
     0
 10
-5.3220744274367799
 20
23.1351738682075805
 30
0.0
  0
VERTEX
  5
4571
  8
LAYER_1
 62
     0
 10
-5.3165211877543692
 20
23.1380496326055614
 30
0.0
  0
VERTEX
  5
4572
  8
LAYER_1
 62
     0
 10
-5.3108490321404469
 20
23.1408339476831806
 30
0.0
  0
VERTEX
  5
4573
  8
LAYER_1
 62
     0
 10
-5.3050543779528407
 20
23.1435303538765602
 30
0.0
  0
VERTEX
  5
4574
  8
LAYER_1
 62
     0
 10
-5.2991336425493696
 20
23.1461423916218791
 30
0.0
  0
VERTEX
  5
4575
  8
LAYER_1
 62
     0
 10
-5.293686707944846
 20
23.1484346774355885
 30
0.0
  0
VERTEX
  5
4576
  8
LAYER_1
 62
     0
 10
-5.2879707154311379
 20
23.1507484815474207
 30
0.0
  0
VERTEX
  5
4577
  8
LAYER_1
 62
     0
 10
-5.2820030779011589
 20
23.1530780804079583
 30
0.0
  0
VERTEX
  5
4578
  8
LAYER_1
 62
     0
 10
-5.2758012082478229
 20
23.1554177504678194
 30
0.0
  0
VERTEX
  5
4579
  8
LAYER_1
 62
     0
 10
-5.2627644241427278
 20
23.1601044099878806
 30
0.0
  0
VERTEX
  5
457A
  8
LAYER_1
 62
     0
 10
-5.2489996662591558
 20
23.1647626717123885
 30
0.0
  0
VERTEX
  5
457B
  8
LAYER_1
 62
     0
 10
-5.2346462377404102
 20
23.1693467472461485
 30
0.0
  0
VERTEX
  5
457C
  8
LAYER_1
 62
     0
 10
-5.2198434417297941
 20
23.1738108481939307
 30
0.0
  0
VERTEX
  5
457D
  8
LAYER_1
 62
     0
 10
-5.2047305813706126
 20
23.1781091861605404
 30
0.0
  0
VERTEX
  5
457E
  8
LAYER_1
 62
     0
 10
-5.1894469598061672
 20
23.1821959727507583
 30
0.0
  0
VERTEX
  5
457F
  8
LAYER_1
 62
     0
 10
-5.1568176911211312
 20
23.1906409972543486
 30
0.0
  0
VERTEX
  5
4580
  8
LAYER_1
 62
     0
 10
-5.1794071848261547
 20
23.1964868651215603
 30
0.0
  0
VERTEX
  5
4581
  8
LAYER_1
 62
     0
 10
-5.2186129048695618
 20
23.2075099206563209
 30
0.0
  0
VERTEX
  5
4582
  8
LAYER_1
 62
     0
 10
-5.2308010089918939
 20
23.2110447125445489
 30
0.0
  0
VERTEX
  5
4583
  8
LAYER_1
 62
     0
 10
-5.2426697516234269
 20
23.2147032518064016
 30
0.0
  0
VERTEX
  5
4584
  8
LAYER_1
 62
     0
 10
-5.254198118850816
 20
23.2184759618095704
 30
0.0
  0
VERTEX
  5
4585
  8
LAYER_1
 62
     0
 10
-5.2653650967607151
 20
23.2223532659217717
 30
0.0
  0
VERTEX
  5
4586
  8
LAYER_1
 62
     0
 10
-5.2761496714397778
 20
23.2263255875106793
 30
0.0
  0
VERTEX
  5
4587
  8
LAYER_1
 62
     0
 10
-5.2865308289746586
 20
23.2303833499440415
 30
0.0
  0
VERTEX
  5
4588
  8
LAYER_1
 62
     0
 10
-5.2964875554520123
 20
23.2345169765895108
 30
0.0
  0
VERTEX
  5
4589
  8
LAYER_1
 62
     0
 10
-5.3059988369584898
 20
23.2387168908148212
 30
0.0
  0
VERTEX
  5
458A
  8
LAYER_1
 62
     0
 10
-5.3150436595807466
 20
23.2429735159876714
 30
0.0
  0
VERTEX
  5
458B
  8
LAYER_1
 62
     0
 10
-5.3236010094054391
 20
23.2472772754757493
 30
0.0
  0
VERTEX
  5
458C
  8
LAYER_1
 62
     0
 10
-5.3316498725192183
 20
23.2516185926467607
 30
0.0
  0
VERTEX
  5
458D
  8
LAYER_1
 62
     0
 10
-5.3354770547115944
 20
23.2538003426657802
 30
0.0
  0
VERTEX
  5
458E
  8
LAYER_1
 62
     0
 10
-5.339169235008737
 20
23.2559878908684183
 30
0.0
  0
VERTEX
  5
458F
  8
LAYER_1
 62
     0
 10
-5.3427237866714803
 20
23.2581800401756489
 30
0.0
  0
VERTEX
  5
4590
  8
LAYER_1
 62
     0
 10
-5.3461380829606533
 20
23.2603755935084209
 30
0.0
  0
VERTEX
  5
4591
  8
LAYER_1
 62
     0
 10
-5.3494094971370876
 20
23.2625733537877117
 30
0.0
  0
VERTEX
  5
4592
  8
LAYER_1
 62
     0
 10
-5.3525354024616174
 20
23.2647721239344705
 30
0.0
  0
VERTEX
  5
4593
  8
LAYER_1
 62
     0
 10
-5.3555131721950717
 20
23.2669707068696709
 30
0.0
  0
VERTEX
  5
4594
  8
LAYER_1
 62
     0
 10
-5.3583401795982848
 20
23.2691679055142693
 30
0.0
  0
VERTEX
  5
4595
  8
LAYER_1
 62
     0
 10
-5.3610137979320882
 20
23.2713625227892287
 30
0.0
  0
VERTEX
  5
4596
  8
LAYER_1
 62
     0
 10
-5.36353140045731
 20
23.2735533616155088
 30
0.0
  0
VERTEX
  5
4597
  8
LAYER_1
 62
     0
 10
-5.3665366647063237
 20
23.2762697134948802
 30
0.0
  0
VERTEX
  5
4598
  8
LAYER_1
 62
     0
 10
-5.3687192681854379
 20
23.2783640350448486
 30
0.0
  0
VERTEX
  5
4599
  8
LAYER_1
 62
     0
 10
-5.3695128066437556
 20
23.2792238928889113
 30
0.0
  0
VERTEX
  5
459A
  8
LAYER_1
 62
     0
 10
-5.3701135613185667
 20
23.2799833932817286
 30
0.0
  0
VERTEX
  5
459B
  8
LAYER_1
 62
     0
 10
-5.3705258260128597
 20
23.2806609196003507
 30
0.0
  0
VERTEX
  5
459C
  8
LAYER_1
 62
     0
 10
-5.370753894529626
 20
23.2812748552218203
 30
0.0
  0
VERTEX
  5
459D
  8
LAYER_1
 62
     0
 10
-5.3708020606718554
 20
23.2818435835231696
 30
0.0
  0
VERTEX
  5
459E
  8
LAYER_1
 62
     0
 10
-5.3706746182425329
 20
23.2823854878814416
 30
0.0
  0
VERTEX
  5
459F
  8
LAYER_1
 62
     0
 10
-5.3703758610446526
 20
23.2829189516736683
 30
0.0
  0
VERTEX
  5
45A0
  8
LAYER_1
 62
     0
 10
-5.3699100828812041
 20
23.2834623582768891
 30
0.0
  0
VERTEX
  5
45A1
  8
LAYER_1
 62
     0
 10
-5.3684946388695547
 20
23.2846525334244809
 30
0.0
  0
VERTEX
  5
45A2
  8
LAYER_1
 62
     0
 10
-5.3664626366315034
 20
23.2861030803405313
 30
0.0
  0
VERTEX
  5
45A3
  8
LAYER_1
 62
     0
 10
-5.3620471496088689
 20
23.2892377631879306
 30
0.0
  0
VERTEX
  5
45A4
  8
LAYER_1
 62
     0
 10
-5.3577314755374612
 20
23.2923932898256787
 30
0.0
  0
VERTEX
  5
45A5
  8
LAYER_1
 62
     0
 10
-5.3535114832898172
 20
23.2955746402154915
 30
0.0
  0
VERTEX
  5
45A6
  8
LAYER_1
 62
     0
 10
-5.3493830417384771
 20
23.2987867943191098
 30
0.0
  0
VERTEX
  5
45A7
  8
LAYER_1
 62
     0
 10
-5.3453420197559796
 20
23.3020347320982495
 30
0.0
  0
VERTEX
  5
45A8
  8
LAYER_1
 62
     0
 10
-5.3413842862148684
 20
23.3053234335146406
 30
0.0
  0
VERTEX
  5
45A9
  8
LAYER_1
 62
     0
 10
-5.3375057099876804
 20
23.3086578785300205
 30
0.0
  0
VERTEX
  5
45AA
  8
LAYER_1
 62
     0
 10
-5.3337021599469541
 20
23.3120430471061084
 30
0.0
  0
VERTEX
  5
45AB
  8
LAYER_1
 62
     0
 10
-5.3299695049652316
 20
23.315483919204631
 30
0.0
  0
VERTEX
  5
45AC
  8
LAYER_1
 62
     0
 10
-5.3263036139150532
 20
23.3189854747873184
 30
0.0
  0
VERTEX
  5
45AD
  8
LAYER_1
 62
     0
 10
-5.3227003556689558
 20
23.3225526938159007
 30
0.0
  0
VERTEX
  5
45AE
  8
LAYER_1
 62
     0
 10
-5.3191555990994814
 20
23.3261905562520901
 30
0.0
  0
VERTEX
  5
45AF
  8
LAYER_1
 62
     0
 10
-5.3156652130791686
 20
23.3299040420576382
 30
0.0
  0
VERTEX
  5
45B0
  8
LAYER_1
 62
     0
 10
-5.3122250664805586
 20
23.3336981311942608
 30
0.0
  0
VERTEX
  5
45B1
  8
LAYER_1
 62
     0
 10
-5.308831028176189
 20
23.3375778036236703
 30
0.0
  0
VERTEX
  5
45B2
  8
LAYER_1
 62
     0
 10
-5.305478967038602
 20
23.3415480393076287
 30
0.0
  0
VERTEX
  5
45B3
  8
LAYER_1
 62
     0
 10
-5.3021647519403361
 20
23.3456138182078305
 30
0.0
  0
VERTEX
  5
45B4
  8
LAYER_1
 62
     0
 10
-5.2988842517539299
 20
23.3497801202860202
 30
0.0
  0
VERTEX
  5
45B5
  8
LAYER_1
 62
     0
 10
-5.2956333353519254
 20
23.3540519255039207
 30
0.0
  0
VERTEX
  5
45B6
  8
LAYER_1
 62
     0
 10
-5.2924078716068621
 20
23.3584342138232515
 30
0.0
  0
VERTEX
  5
45B7
  8
LAYER_1
 62
     0
 10
-5.2892037293912777
 20
23.3629319652057603
 30
0.0
  0
VERTEX
  5
45B8
  8
LAYER_1
 62
     0
 10
-5.2860167775777134
 20
23.3675501596131596
 30
0.0
  0
VERTEX
  5
45B9
  8
LAYER_1
 62
     0
 10
-5.2828428850387086
 20
23.3722937770071795
 30
0.0
  0
VERTEX
  5
45BA
  8
LAYER_1
 62
     0
 10
-5.2796779206468036
 20
23.37716779734955
 30
0.0
  0
VERTEX
  5
45BB
  8
LAYER_1
 62
     0
 10
-5.2765177532745389
 20
23.3821772006019906
 30
0.0
  0
VERTEX
  5
45BC
  8
LAYER_1
 62
     0
 10
-5.2733582517944528
 20
23.3873269667262385
 30
0.0
  0
VERTEX
  5
45BD
  8
LAYER_1
 62
     0
 10
-5.2670247220009774
 20
23.3980675074370588
 30
0.0
  0
VERTEX
  5
45BE
  8
LAYER_1
 62
     0
 10
-5.2606442822466937
 20
23.4094292591758197
 30
0.0
  0
VERTEX
  5
45BF
  8
LAYER_1
 62
     0
 10
-5.2541838835119217
 20
23.4214520616363515
 30
0.0
  0
VERTEX
  5
45C0
  8
LAYER_1
 62
     0
 10
-5.2395380220365224
 20
23.4492678577415887
 30
0.0
  0
VERTEX
  5
45C1
  8
LAYER_1
 62
     0
 10
-5.2258108871693283
 20
23.4225672945381689
 30
0.0
  0
VERTEX
  5
45C2
  8
LAYER_1
 62
     0
 10
-5.2201701003443546
 20
23.4118843177392684
 30
0.0
  0
VERTEX
  5
45C3
  8
LAYER_1
 62
     0
 10
-5.2143949206974041
 20
23.4015148133235087
 30
0.0
  0
VERTEX
  5
45C4
  8
LAYER_1
 62
     0
 10
-5.2084916023199606
 20
23.3914666186753806
 30
0.0
  0
VERTEX
  5
45C5
  8
LAYER_1
 62
     0
 10
-5.2024663993035087
 20
23.3817475711794209
 30
0.0
  0
VERTEX
  5
45C6
  8
LAYER_1
 62
     0
 10
-5.1963255657395342
 20
23.3723655082201489
 30
0.0
  0
VERTEX
  5
45C7
  8
LAYER_1
 62
     0
 10
-5.1900753557195136
 20
23.3633282671820695
 30
0.0
  0
VERTEX
  5
45C8
  8
LAYER_1
 62
     0
 10
-5.18691118894208
 20
23.3589414040661509
 30
0.0
  0
VERTEX
  5
45C9
  8
LAYER_1
 62
     0
 10
-5.1837220233349397
 20
23.3546436854497195
 30
0.0
  0
VERTEX
  5
45CA
  8
LAYER_1
 62
     0
 10
-5.1805086406595322
 20
23.3504360910058608
 30
0.0
  0
VERTEX
  5
45CB
  8
LAYER_1
 62
     0
 10
-5.1772718226772918
 20
23.346319600407611
 30
0.0
  0
VERTEX
  5
45CC
  8
LAYER_1
 62
     0
 10
-5.1740123511496536
 20
23.34229519332807
 30
0.0
  0
VERTEX
  5
45CD
  8
LAYER_1
 62
     0
 10
-5.1707310078380564
 20
23.3383638494402703
 30
0.0
  0
VERTEX
  5
45CE
  8
LAYER_1
 62
     0
 10
-5.167428574503929
 20
23.3345265484173012
 30
0.0
  0
VERTEX
  5
45CF
  8
LAYER_1
 62
     0
 10
-5.1641058329087173
 20
23.3307842699322094
 30
0.0
  0
VERTEX
  5
45D0
  8
LAYER_1
 62
     0
 10
-5.1607635648138466
 20
23.3271379936580701
 30
0.0
  0
VERTEX
  5
45D1
  8
LAYER_1
 62
     0
 10
-5.1574025519807538
 20
23.3235886992679511
 30
0.0
  0
VERTEX
  5
45D2
  8
LAYER_1
 62
     0
 10
-5.154023576170883
 20
23.3201373664348992
 30
0.0
  0
VERTEX
  5
45D3
  8
LAYER_1
 62
     0
 10
-5.1506274191456578
 20
23.3167849748320002
 30
0.0
  0
VERTEX
  5
45D4
  8
LAYER_1
 62
     0
 10
-5.1472148626665231
 20
23.3135325041323185
 30
0.0
  0
VERTEX
  5
45D5
  8
LAYER_1
 62
     0
 10
-5.1437866884949113
 20
23.3103809340089008
 30
0.0
  0
VERTEX
  5
45D6
  8
LAYER_1
 62
     0
 10
-5.140343678392254
 20
23.3073312441348293
 30
0.0
  0
VERTEX
  5
45D7
  8
LAYER_1
 62
     0
 10
-5.1368866141199936
 20
23.3043844141831684
 30
0.0
  0
VERTEX
  5
45D8
  8
LAYER_1
 62
     0
 10
-5.1334162774395589
 20
23.3015414238269685
 30
0.0
  0
VERTEX
  5
45D9
  8
LAYER_1
 62
     0
 10
-5.1299334501123921
 20
23.2988032527393116
 30
0.0
  0
VERTEX
  5
45DA
  8
LAYER_1
 62
     0
 10
-5.1264389138999258
 20
23.296170880593241
 30
0.0
  0
VERTEX
  5
45DB
  8
LAYER_1
 62
     0
 10
-5.1229334505635942
 20
23.2936452870618496
 30
0.0
  0
VERTEX
  5
45DC
  8
LAYER_1
 62
     0
 10
-5.1164301127770822
 20
23.2892234200445998
 30
0.0
  0
VERTEX
  5
45DD
  8
LAYER_1
 62
     0
 10
-5.10956644625655
 20
23.2848620250100886
 30
0.0
  0
VERTEX
  5
45DE
  8
LAYER_1
 62
     0
 10
-5.1023432744726867
 20
23.2805614569301511
 30
0.0
  0
VERTEX
  5
45DF
  8
LAYER_1
 62
     0
 10
-5.0947614208961749
 20
23.2763220707766614
 30
0.0
  0
VERTEX
  5
45E0
  8
LAYER_1
 62
     0
 10
-5.0868217089977037
 20
23.2721442215214402
 30
0.0
  0
VERTEX
  5
45E1
  8
LAYER_1
 62
     0
 10
-5.0785249622479531
 20
23.2680282641363902
 30
0.0
  0
VERTEX
  5
45E2
  8
LAYER_1
 62
     0
 10
-5.0698720041176086
 20
23.2639745535933287
 30
0.0
  0
VERTEX
  5
45E3
  8
LAYER_1
 62
     0
 10
-5.06086365807736
 20
23.259983444864119
 30
0.0
  0
VERTEX
  5
45E4
  8
LAYER_1
 62
     0
 10
-5.0515007475978901
 20
23.2560552929206388
 30
0.0
  0
VERTEX
  5
45E5
  8
LAYER_1
 62
     0
 10
-5.0417840961498817
 20
23.2521904527347196
 30
0.0
  0
VERTEX
  5
45E6
  8
LAYER_1
 62
     0
 10
-5.0317145272040209
 20
23.2483892792782285
 30
0.0
  0
VERTEX
  5
45E7
  8
LAYER_1
 62
     0
 10
-5.021292864230996
 20
23.2446521275230182
 30
0.0
  0
VERTEX
  5
45E8
  8
LAYER_1
 62
     0
 10
-5.0105199307014869
 20
23.2409793524409309
 30
0.0
  0
VERTEX
  5
45E9
  8
LAYER_1
 62
     0
 10
-4.9993965500861854
 20
23.2373713090038514
 30
0.0
  0
VERTEX
  5
45EA
  8
LAYER_1
 62
     0
 10
-4.9879235458557742
 20
23.2338283521836004
 30
0.0
  0
VERTEX
  5
45EB
  8
LAYER_1
 62
     0
 10
-4.9761017414809343
 20
23.2303508369520593
 30
0.0
  0
VERTEX
  5
45EC
  8
LAYER_1
 62
     0
 10
-4.9384525853058934
 20
23.2195397410698199
 30
0.0
  0
VERTEX
  5
45ED
  8
LAYER_1
 62
     0
 10
-4.9240204087721278
 20
23.2163183685372303
 30
0.0
  0
VERTEX
  5
45EE
  8
LAYER_1
 62
     0
 10
-4.918416665227376
 20
23.2149230766265902
 30
0.0
  0
VERTEX
  5
45EF
  8
LAYER_1
 62
     0
 10
-4.9159657321226691
 20
23.2142066590466882
 30
0.0
  0
VERTEX
  5
45F0
  8
LAYER_1
 62
     0
 10
-4.913827684095156
 20
23.2135053583225215
 30
0.0
  0
VERTEX
  5
45F1
  8
LAYER_1
 62
     0
 10
-4.912061715618905
 20
23.2128398979081609
 30
0.0
  0
VERTEX
  5
45F2
  8
LAYER_1
 62
     0
 10
-4.9107270211679781
 20
23.2122310012576989
 30
0.0
  0
VERTEX
  5
45F3
  8
LAYER_1
 62
     0
 10
-4.9098827952164434
 20
23.2116993918252206
 30
0.0
  0
VERTEX
  5
45F4
  8
LAYER_1
 62
     0
 10
-4.9096631062010907
 20
23.2114690458951287
 30
0.0
  0
VERTEX
  5
45F5
  8
LAYER_1
 62
     0
 10
-4.9095882322383613
 20
23.2112657930648112
 30
0.0
  0
VERTEX
  5
45F6
  8
LAYER_1
 62
     0
 10
-4.909637063083621
 20
23.2110701023315116
 30
0.0
  0
VERTEX
  5
45F7
  8
LAYER_1
 62
     0
 10
-4.9097803385284147
 20
23.210861944483689
 30
0.0
  0
VERTEX
  5
45F8
  8
LAYER_1
 62
     0
 10
-4.9103309206707211
 20
23.2104155999190986
 30
0.0
  0
VERTEX
  5
45F9
  8
LAYER_1
 62
     0
 10
-4.9112013735734994
 20
23.2099415043202093
 30
0.0
  0
VERTEX
  5
45FA
  8
LAYER_1
 62
     0
 10
-4.912353092144965
 20
23.2094544026361689
 30
0.0
  0
VERTEX
  5
45FB
  8
LAYER_1
 62
     0
 10
-4.9137474712933438
 20
23.2089690398161501
 30
0.0
  0
VERTEX
  5
45FC
  8
LAYER_1
 62
     0
 10
-4.9153459059268503
 20
23.2085001608093009
 30
0.0
  0
VERTEX
  5
45FD
  8
LAYER_1
 62
     0
 10
-4.9171097909537016
 20
23.2080625105647691
 30
0.0
  0
VERTEX
  5
45FE
  8
LAYER_1
 62
     0
 10
-4.9190005212821211
 20
23.2076708340317488
 30
0.0
  0
VERTEX
  5
45FF
  8
LAYER_1
 62
     0
 10
-4.9284128103258809
 20
23.2059070779385088
 30
0.0
  0
VERTEX
  5
4600
  8
LAYER_1
 62
     0
 10
-5.015234210661597
 20
23.1810150763446892
 30
0.0
  0
VERTEX
  5
4601
  8
LAYER_1
 62
     0
 10
-5.0378709875989962
 20
23.1723765557965606
 30
0.0
  0
VERTEX
  5
4602
  8
LAYER_1
 62
     0
 10
-5.045750724497216
 20
23.1692986342100902
 30
0.0
  0
VERTEX
  5
4603
  8
LAYER_1
 62
     0
 10
-5.0534292480089027
 20
23.1661540290699683
 30
0.0
  0
VERTEX
  5
4604
  8
LAYER_1
 62
     0
 10
-5.060911751686529
 20
23.1629382552482497
 30
0.0
  0
VERTEX
  5
4605
  8
LAYER_1
 62
     0
 10
-5.0682034290825682
 20
23.1596468276169816
 30
0.0
  0
VERTEX
  5
4606
  8
LAYER_1
 62
     0
 10
-5.0753094737494902
 20
23.1562752610482114
 30
0.0
  0
VERTEX
  5
4607
  8
LAYER_1
 62
     0
 10
-5.0822350792397648
 20
23.1528190704139902
 30
0.0
  0
VERTEX
  5
4608
  8
LAYER_1
 62
     0
 10
-5.0889854391058682
 20
23.1492737705863689
 30
0.0
  0
VERTEX
  5
4609
  8
LAYER_1
 62
     0
 10
-5.0955657469002711
 20
23.1456348764373985
 30
0.0
  0
VERTEX
  5
460A
  8
LAYER_1
 62
     0
 10
-5.1019811961754433
 20
23.1418979028391192
 30
0.0
  0
VERTEX
  5
460B
  8
LAYER_1
 62
     0
 10
-5.1082369804838583
 20
23.1380583646635891
 30
0.0
  0
VERTEX
  5
460C
  8
LAYER_1
 62
     0
 10
-5.1143382933779877
 20
23.1341117767828486
 30
0.0
  0
VERTEX
  5
460D
  8
LAYER_1
 62
     0
 10
-5.1202903284103041
 20
23.1300536540689592
 30
0.0
  0
VERTEX
  5
460E
  8
LAYER_1
 62
     0
 10
-5.1260982791332781
 20
23.1258795113939684
 30
0.0
  0
VERTEX
  5
460F
  8
LAYER_1
 62
     0
 10
-5.1317673390993832
 20
23.1215848636299093
 30
0.0
  0
VERTEX
  5
4610
  8
LAYER_1
 62
     0
 10
-5.1373027018610902
 20
23.1171652256488613
 30
0.0
  0
VERTEX
  5
4611
  8
LAYER_1
 62
     0
 10
-5.1427095609708688
 20
23.11261611232284
 30
0.0
  0
VERTEX
  5
4612
  8
LAYER_1
 62
     0
 10
-5.1479931099811953
 20
23.1079330385239103
 30
0.0
  0
VERTEX
  5
4613
  8
LAYER_1
 62
     0
 10
-5.1531585424445403
 20
23.1031115191241305
 30
0.0
  0
VERTEX
  5
4614
  8
LAYER_1
 62
     0
 10
-5.1582110519133728
 20
23.0981470689955302
 30
0.0
  0
VERTEX
  5
4615
  8
LAYER_1
 62
     0
 10
-5.1631558319401663
 20
23.0930352030101815
 30
0.0
  0
VERTEX
  5
4616
  8
LAYER_1
 62
     0
 10
-5.167998076077394
 20
23.0877714360401214
 30
0.0
  0
VERTEX
  5
4617
  8
LAYER_1
 62
     0
 10
-5.1727429778775269
 20
23.08235128295739
 30
0.0
  0
VERTEX
  5
4618
  8
LAYER_1
 62
     0
 10
-5.1773957308930374
 20
23.0767702586340491
 30
0.0
  0
VERTEX
  5
4619
  8
LAYER_1
 62
     0
 10
-5.1819615286763954
 20
23.0710238779421495
 30
0.0
  0
VERTEX
  5
461A
  8
LAYER_1
 62
     0
 10
-5.1864455647800751
 20
23.0651076557537387
 30
0.0
  0
VERTEX
  5
461B
  8
LAYER_1
 62
     0
 10
-5.1908530327565456
 20
23.0590171069408498
 30
0.0
  0
VERTEX
  5
461C
  8
LAYER_1
 62
     0
 10
-5.1951891261582839
 20
23.0527477463755588
 30
0.0
  0
VERTEX
  5
461D
  8
LAYER_1
 62
     0
 10
-5.1994590385377562
 20
23.0462950889298988
 30
0.0
  0
VERTEX
  5
461E
  8
LAYER_1
 62
     0
 10
-5.2036679634474394
 20
23.0396546494759207
 30
0.0
  0
VERTEX
  5
461F
  8
LAYER_1
 62
     0
 10
-5.2078210944397991
 20
23.0328219428856791
 30
0.0
  0
VERTEX
  5
4620
  8
LAYER_1
 62
     0
 10
-5.2119236250673131
 20
23.0257924840312214
 30
0.0
  0
VERTEX
  5
4621
  8
LAYER_1
 62
     0
 10
-5.2159807488824503
 20
23.0185617877845914
 30
0.0
  0
VERTEX
  5
4622
  8
LAYER_1
 62
     0
 10
-5.2179370480884231
 20
23.0149728672119416
 30
0.0
  0
VERTEX
  5
4623
  8
LAYER_1
 62
     0
 10
-5.2193493136740781
 20
23.0121739579735696
 30
0.0
  0
VERTEX
  5
4624
  8
LAYER_1
 62
     0
 10
-5.2198557576655844
 20
23.0110024901333894
 30
0.0
  0
VERTEX
  5
4625
  8
LAYER_1
 62
     0
 10
-5.220231381819568
 20
23.0099466041611507
 30
0.0
  0
VERTEX
  5
4626
  8
LAYER_1
 62
     0
 10
-5.2204779156585497
 20
23.0089789930683217
 30
0.0
  0
VERTEX
  5
4627
  8
LAYER_1
 62
     0
 10
-5.2205970887050483
 20
23.0080723498663602
 30
0.0
  0
VERTEX
  5
4628
  8
LAYER_1
 62
     0
 10
-5.220590630481583
 20
23.0071993675667308
 30
0.0
  0
VERTEX
  5
4629
  8
LAYER_1
 62
     0
 10
-5.22046027051067
 20
23.0063327391808805
 30
0.0
  0
VERTEX
  5
462A
  8
LAYER_1
 62
     0
 10
-5.2202077383148353
 20
23.0054451577202812
 30
0.0
  0
VERTEX
  5
462B
  8
LAYER_1
 62
     0
 10
-5.2198347634165909
 20
23.0045093161963798
 30
0.0
  0
VERTEX
  5
462C
  8
LAYER_1
 62
     0
 10
-5.218734403602963
 20
23.0023836250045512
 30
0.0
  0
VERTEX
  5
462D
  8
LAYER_1
 62
     0
 10
-5.2171730272499408
 20
22.99973720969707
 30
0.0
  0
VERTEX
  5
462E
  8
LAYER_1
 62
     0
 10
-5.2123914721055398
 20
22.9917657883893085
 30
0.0
  0
SEQEND
  5
462F
  8
LAYER_1
 62
     0
  0
ENDBLK
  5
F47
  8
0
  0
BLOCK
  8
0
  2
2
 70
     0
 10
0.0
 20
0.0
 30
0.0
  3
2
  1

  0
POLYLINE
  5
F64
  8
LAYER_1
 62
     0
 66
     1
 10
0.0
 20
0.0
 30
0.0
 70
     1
  0
VERTEX
  5
4631
  8
LAYER_1
 62
     0
 10
-6.3526092190425274
 20
27.2080577828344516
 30
0.0
  0
VERTEX
  5
4632
  8
LAYER_1
 62
     0
 10
-6.325179560780902
 20
27.2371335394115484
 30
0.0
  0
VERTEX
  5
4633
  8
LAYER_1
 62
     0
 10
-6.2753207772345432
 20
27.2371427962917316
 30
0.0
  0
VERTEX
  5
4634
  8
LAYER_1
 62
     0
 10
-6.2629103933296788
 20
27.2483417105946799
 30
0.0
  0
VERTEX
  5
4635
  8
LAYER_1
 62
     0
 10
-6.2587828326113213
 20
27.2520467399326805
 30
0.0
  0
VERTEX
  5
4636
  8
LAYER_1
 62
     0
 10
-6.257051473249593
 20
27.2535625157375989
 30
0.0
  0
VERTEX
  5
4637
  8
LAYER_1
 62
     0
 10
-6.2554863243865908
 20
27.2548841845488212
 30
0.0
  0
VERTEX
  5
4638
  8
LAYER_1
 62
     0
 10
-6.2540458333976341
 20
27.2560345355530806
 30
0.0
  0
VERTEX
  5
4639
  8
LAYER_1
 62
     0
 10
-6.2526884476580404
 20
27.2570363579371602
 30
0.0
  0
VERTEX
  5
463A
  8
LAYER_1
 62
     0
 10
-6.2513726145431274
 20
27.2579124408877895
 30
0.0
  0
VERTEX
  5
463B
  8
LAYER_1
 62
     0
 10
-6.250717295024713
 20
27.2583104516964312
 30
0.0
  0
VERTEX
  5
463C
  8
LAYER_1
 62
     0
 10
-6.2500567814282144
 20
27.258685573591741
 30
0.0
  0
VERTEX
  5
463D
  8
LAYER_1
 62
     0
 10
-6.248699395688619
 20
27.2593785452357587
 30
0.0
  0
VERTEX
  5
463E
  8
LAYER_1
 62
     0
 10
-6.2472589046996632
 20
27.2600141450066111
 30
0.0
  0
VERTEX
  5
463F
  8
LAYER_1
 62
     0
 10
-6.2456937558366601
 20
27.2606151620910495
 30
0.0
  0
VERTEX
  5
4640
  8
LAYER_1
 62
     0
 10
-6.2439623964749327
 20
27.2612043856758284
 30
0.0
  0
VERTEX
  5
4641
  8
LAYER_1
 62
     0
 10
-6.2420232739897976
 20
27.2618046049477094
 30
0.0
  0
VERTEX
  5
4642
  8
LAYER_1
 62
     0
 10
-6.2398348357565752
 20
27.2624386090934401
 30
0.0
  0
VERTEX
  5
4643
  8
LAYER_1
 62
     0
 10
-6.2345438015471348
 20
27.2638991287534793
 30
0.0
  0
VERTEX
  5
4644
  8
LAYER_1
 62
     0
 10
-6.2272011757484229
 20
27.2659336209135503
 30
0.0
  0
VERTEX
  5
4645
  8
LAYER_1
 62
     0
 10
-6.2190042279862601
 20
27.2682511313084284
 30
0.0
  0
VERTEX
  5
4646
  8
LAYER_1
 62
     0
 10
-6.2109535454629761
 20
27.2705663593317205
 30
0.0
  0
VERTEX
  5
4647
  8
LAYER_1
 62
     0
 10
-6.2040497153808998
 20
27.2725940043770301
 30
0.0
  0
VERTEX
  5
4648
  8
LAYER_1
 62
     0
 10
-6.1895118370923461
 20
27.2769303761447404
 30
0.0
  0
VERTEX
  5
4649
  8
LAYER_1
 62
     0
 10
-6.1292328295544394
 20
27.2959205434465488
 30
0.0
  0
VERTEX
  5
464A
  8
LAYER_1
 62
     0
 10
-6.1100853801012223
 20
27.3016673448154492
 30
0.0
  0
VERTEX
  5
464B
  8
LAYER_1
 62
     0
 10
-6.1087959169770691
 20
27.3016675357168417
 30
0.0
  0
VERTEX
  5
464C
  8
LAYER_1
 62
     0
 10
-6.0942179296644019
 20
27.2874842398255701
 30
0.0
  0
VERTEX
  5
464D
  8
LAYER_1
 62
     0
 10
-6.0925779301562031
 20
27.2874002161238316
 30
0.0
  0
VERTEX
  5
464E
  8
LAYER_1
 62
     0
 10
-6.0915717649542849
 20
27.2873660155557616
 30
0.0
  0
VERTEX
  5
464F
  8
LAYER_1
 62
     0
 10
-6.090731312893662
 20
27.2873838558571791
 30
0.0
  0
VERTEX
  5
4650
  8
LAYER_1
 62
     0
 10
-6.0900232432686678
 20
27.2874653076132212
 30
0.0
  0
VERTEX
  5
4651
  8
LAYER_1
 62
     0
 10
-6.0897084360240097
 20
27.287533503594581
 30
0.0
  0
VERTEX
  5
4652
  8
LAYER_1
 62
     0
 10
-6.0894142253736332
 20
27.2876219414090286
 30
0.0
  0
VERTEX
  5
4653
  8
LAYER_1
 62
     0
 10
-6.0891364449793279
 20
27.2877320673796895
 30
0.0
  0
VERTEX
  5
4654
  8
LAYER_1
 62
     0
 10
-6.088870928502887
 20
27.2878653278297207
 30
0.0
  0
VERTEX
  5
4655
  8
LAYER_1
 62
     0
 10
-6.0886135096061027
 20
27.2880231690822583
 30
0.0
  0
VERTEX
  5
4656
  8
LAYER_1
 62
     0
 10
-6.0883600219507663
 20
27.2882070374604417
 30
0.0
  0
VERTEX
  5
4657
  8
LAYER_1
 62
     0
 10
-6.0878481750116
 20
27.2886586408863216
 30
0.0
  0
VERTEX
  5
4658
  8
LAYER_1
 62
     0
 10
-6.0873020569797189
 20
27.2892317086924798
 30
0.0
  0
VERTEX
  5
4659
  8
LAYER_1
 62
     0
 10
-6.0857936776951247
 20
27.2909063065219186
 30
0.0
  0
VERTEX
  5
465A
  8
LAYER_1
 62
     0
 10
-6.0790574752174198
 20
27.3032012778663713
 30
0.0
  0
VERTEX
  5
465B
  8
LAYER_1
 62
     0
 10
-6.0726340098267038
 20
27.3150093587544411
 30
0.0
  0
VERTEX
  5
465C
  8
LAYER_1
 62
     0
 10
-6.0666497071538847
 20
27.3261337211292883
 30
0.0
  0
VERTEX
  5
465D
  8
LAYER_1
 62
     0
 10
-6.0609781415680537
 20
27.3367711930477384
 30
0.0
  0
VERTEX
  5
465E
  8
LAYER_1
 62
     0
 10
-6.0487023345560473
 20
27.3605282136656207
 30
0.0
  0
VERTEX
  5
465F
  8
LAYER_1
 62
     0
 10
-6.0431656240826293
 20
27.3713301130534816
 30
0.0
  0
VERTEX
  5
4660
  8
LAYER_1
 62
     0
 10
-6.0371650999325688
 20
27.38317925938793
 30
0.0
  0
VERTEX
  5
4661
  8
LAYER_1
 62
     0
 10
-6.0314238618338036
 20
27.3946401379398914
 30
0.0
  0
VERTEX
  5
4662
  8
LAYER_1
 62
     0
 10
-6.0266650095142644
 20
27.4042772339802809
 30
0.0
  0
VERTEX
  5
4663
  8
LAYER_1
 62
     0
 10
-6.016903491484487
 20
27.4242692336770695
 30
0.0
  0
VERTEX
  5
4664
  8
LAYER_1
 62
     0
 10
-6.0049247078018482
 20
27.4502375601779214
 30
0.0
  0
VERTEX
  5
4665
  8
LAYER_1
 62
     0
 10
-5.9985192264488738
 20
27.4651300208637501
 30
0.0
  0
VERTEX
  5
4666
  8
LAYER_1
 62
     0
 10
-5.9963571227074288
 20
27.4704001253392214
 30
0.0
  0
VERTEX
  5
4667
  8
LAYER_1
 62
     0
 10
-5.988865740214055
 20
27.466524034711
 30
0.0
  0
VERTEX
  5
4668
  8
LAYER_1
 62
     0
 10
-5.9873071993849489
 20
27.4657353360299616
 30
0.0
  0
VERTEX
  5
4669
  8
LAYER_1
 62
     0
 10
-5.9858495571862269
 20
27.4650353507392317
 30
0.0
  0
VERTEX
  5
466A
  8
LAYER_1
 62
     0
 10
-5.9844882481837951
 20
27.4644233764971588
 30
0.0
  0
VERTEX
  5
466B
  8
LAYER_1
 62
     0
 10
-5.9832187069435561
 20
27.4638987109620807
 30
0.0
  0
VERTEX
  5
466C
  8
LAYER_1
 62
     0
 10
-5.982036368031415
 20
27.4634606517922997
 30
0.0
  0
VERTEX
  5
466D
  8
LAYER_1
 62
     0
 10
-5.9809366660132772
 20
27.4631084966461785
 30
0.0
  0
VERTEX
  5
466E
  8
LAYER_1
 62
     0
 10
-5.9799150354550461
 20
27.4628415431820407
 30
0.0
  0
VERTEX
  5
466F
  8
LAYER_1
 62
     0
 10
-5.9789669109226251
 20
27.4626590890582101
 30
0.0
  0
VERTEX
  5
4670
  8
LAYER_1
 62
     0
 10
-5.9780877269819221
 20
27.4625604319330208
 30
0.0
  0
VERTEX
  5
4671
  8
LAYER_1
 62
     0
 10
-5.9772729181988371
 20
27.4625448694648107
 30
0.0
  0
VERTEX
  5
4672
  8
LAYER_1
 62
     0
 10
-5.9765179191392779
 20
27.4626116993118998
 30
0.0
  0
VERTEX
  5
4673
  8
LAYER_1
 62
     0
 10
-5.9761614215576637
 20
27.46267579187192
 30
0.0
  0
VERTEX
  5
4674
  8
LAYER_1
 62
     0
 10
-5.975818164369147
 20
27.4627602191326403
 30
0.0
  0
VERTEX
  5
4675
  8
LAYER_1
 62
     0
 10
-5.9754875768944622
 20
27.4628648933013508
 30
0.0
  0
VERTEX
  5
4676
  8
LAYER_1
 62
     0
 10
-5.9751690884543489
 20
27.4629897265853486
 30
0.0
  0
VERTEX
  5
4677
  8
LAYER_1
 62
     0
 10
-5.9748621283695451
 20
27.4631346311919202
 30
0.0
  0
VERTEX
  5
4678
  8
LAYER_1
 62
     0
 10
-5.9745661259607896
 20
27.4632995193283591
 30
0.0
  0
VERTEX
  5
4679
  8
LAYER_1
 62
     0
 10
-5.9740047114543726
 20
27.4636888950200095
 30
0.0
  0
VERTEX
  5
467A
  8
LAYER_1
 62
     0
 10
-5.9734802795010031
 20
27.4641571513186307
 30
0.0
  0
VERTEX
  5
467B
  8
LAYER_1
 62
     0
 10
-5.9719710722651502
 20
27.4656663585544791
 30
0.0
  0
VERTEX
  5
467C
  8
LAYER_1
 62
     0
 10
-5.9729261989003852
 20
27.486404964700661
 30
0.0
  0
VERTEX
  5
467D
  8
LAYER_1
 62
     0
 10
-5.9739694900866747
 20
27.5051978317566004
 30
0.0
  0
VERTEX
  5
467E
  8
LAYER_1
 62
     0
 10
-5.9747634418064406
 20
27.5187328338254105
 30
0.0
  0
VERTEX
  5
467F
  8
LAYER_1
 62
     0
 10
-5.9756679339961254
 20
27.5328016494422911
 30
0.0
  0
VERTEX
  5
4680
  8
LAYER_1
 62
     0
 10
-5.9766601323979627
 20
27.5471064202602385
 30
0.0
  0
VERTEX
  5
4681
  8
LAYER_1
 62
     0
 10
-5.9777172027541932
 20
27.5613492879322699
 30
0.0
  0
VERTEX
  5
4682
  8
LAYER_1
 62
     0
 10
-5.9788163108070513
 20
27.5752323941113886
 30
0.0
  0
VERTEX
  5
4683
  8
LAYER_1
 62
     0
 10
-5.9799346222987744
 20
27.5884578804506084
 30
0.0
  0
VERTEX
  5
4684
  8
LAYER_1
 62
     0
 10
-5.9810493029716012
 20
27.6007278886029184
 30
0.0
  0
VERTEX
  5
4685
  8
LAYER_1
 62
     0
 10
-5.9815981460453758
 20
27.6064115076255483
 30
0.0
  0
VERTEX
  5
4686
  8
LAYER_1
 62
     0
 10
-5.9821375185677654
 20
27.6117445602213287
 30
0.0
  0
VERTEX
  5
4687
  8
LAYER_1
 62
     0
 10
-5.98358969863125
 20
27.6257452829955206
 30
0.0
  0
VERTEX
  5
4688
  8
LAYER_1
 62
     0
 10
-5.982836936546434
 20
27.6269632776342
 30
0.0
  0
VERTEX
  5
4689
  8
LAYER_1
 62
     0
 10
-5.9642743339272597
 20
27.6337251171051186
 30
0.0
  0
VERTEX
  5
468A
  8
LAYER_1
 62
     0
 10
-5.9631615590495848
 20
27.6354234262308083
 30
0.0
  0
VERTEX
  5
468B
  8
LAYER_1
 62
     0
 10
-5.96282265410861
 20
27.6359651647245208
 30
0.0
  0
VERTEX
  5
468C
  8
LAYER_1
 62
     0
 10
-5.9625919248422026
 20
27.63642487397534
 30
0.0
  0
VERTEX
  5
468D
  8
LAYER_1
 62
     0
 10
-5.9625191371874564
 20
27.6366368636282509
 30
0.0
  0
VERTEX
  5
468E
  8
LAYER_1
 62
     0
 10
-5.9624758067719439
 20
27.6368438211627492
 30
0.0
  0
VERTEX
  5
468F
  8
LAYER_1
 62
     0
 10
-5.962462738035863
 20
27.6370509049762703
 30
0.0
  0
VERTEX
  5
4690
  8
LAYER_1
 62
     0
 10
-5.9624807354194127
 20
27.6372632734662282
 30
0.0
  0
VERTEX
  5
4691
  8
LAYER_1
 62
     0
 10
-5.9625306033627892
 20
27.6374860850300905
 30
0.0
  0
VERTEX
  5
4692
  8
LAYER_1
 62
     0
 10
-5.9626131463061869
 20
27.6377244980652712
 30
0.0
  0
VERTEX
  5
4693
  8
LAYER_1
 62
     0
 10
-5.9628794749538461
 20
27.6382687621393508
 30
0.0
  0
VERTEX
  5
4694
  8
LAYER_1
 62
     0
 10
-5.9632861568839672
 20
27.6389373328679611
 30
0.0
  0
VERTEX
  5
4695
  8
LAYER_1
 62
     0
 10
-5.96383962761813
 20
27.6397714774305712
 30
0.0
  0
VERTEX
  5
4696
  8
LAYER_1
 62
     0
 10
-5.9656304710643502
 20
27.6424212195046515
 30
0.0
  0
VERTEX
  5
4697
  8
LAYER_1
 62
     0
 10
-5.9743148965470976
 20
27.6519949442312587
 30
0.0
  0
VERTEX
  5
4698
  8
LAYER_1
 62
     0
 10
-5.9783827511240109
 20
27.6564523363215287
 30
0.0
  0
VERTEX
  5
4699
  8
LAYER_1
 62
     0
 10
-5.9830387817284221
 20
27.6615115898108606
 30
0.0
  0
VERTEX
  5
469A
  8
LAYER_1
 62
     0
 10
-5.9877086652057381
 20
27.6665508048762483
 30
0.0
  0
VERTEX
  5
469B
  8
LAYER_1
 62
     0
 10
-5.9918180784013639
 20
27.6709480816946609
 30
0.0
  0
VERTEX
  5
469C
  8
LAYER_1
 62
     0
 10
-6.000636834772882
 20
27.6803274944314488
 30
0.0
  0
VERTEX
  5
469D
  8
LAYER_1
 62
     0
 10
-5.9965614293706873
 20
27.6821298321092506
 30
0.0
  0
VERTEX
  5
469E
  8
LAYER_1
 62
     0
 10
-5.9956711961426379
 20
27.6825459086606998
 30
0.0
  0
VERTEX
  5
469F
  8
LAYER_1
 62
     0
 10
-5.9947023332321736
 20
27.6830385079661916
 30
0.0
  0
VERTEX
  5
46A0
  8
LAYER_1
 62
     0
 10
-5.9936859387072063
 20
27.6835893809405995
 30
0.0
  0
VERTEX
  5
46A1
  8
LAYER_1
 62
     0
 10
-5.9926531106356453
 20
27.6841802784987792
 30
0.0
  0
VERTEX
  5
46A2
  8
LAYER_1
 62
     0
 10
-5.9916349470854042
 20
27.6847929515555791
 30
0.0
  0
VERTEX
  5
46A3
  8
LAYER_1
 62
     0
 10
-5.9906625461243932
 20
27.6854091510258904
 30
0.0
  0
VERTEX
  5
46A4
  8
LAYER_1
 62
     0
 10
-5.989767005820525
 20
27.6860106278245617
 30
0.0
  0
VERTEX
  5
46A5
  8
LAYER_1
 62
     0
 10
-5.9889794242417134
 20
27.6865791328664592
 30
0.0
  0
VERTEX
  5
46A6
  8
LAYER_1
 62
     0
 10
-5.9883023670512072
 20
27.6871094763530508
 30
0.0
  0
VERTEX
  5
46A7
  8
LAYER_1
 62
     0
 10
-5.9876213403343286
 20
27.6876807099307705
 30
0.0
  0
VERTEX
  5
46A8
  8
LAYER_1
 62
     0
 10
-5.9869375085923222
 20
27.6882909981404097
 30
0.0
  0
VERTEX
  5
46A9
  8
LAYER_1
 62
     0
 10
-5.9862520363264231
 20
27.6889385055227706
 30
0.0
  0
VERTEX
  5
46AA
  8
LAYER_1
 62
     0
 10
-5.9855660880378769
 20
27.6896213966186515
 30
0.0
  0
VERTEX
  5
46AB
  8
LAYER_1
 62
     0
 10
-5.9848808282279249
 20
27.690337835968851
 30
0.0
  0
VERTEX
  5
46AC
  8
LAYER_1
 62
     0
 10
-5.9835170320487663
 20
27.691864017595389
 30
0.0
  0
VERTEX
  5
46AD
  8
LAYER_1
 62
     0
 10
-5.982169963798877
 20
27.6935023667288007
 30
0.0
  0
VERTEX
  5
46AE
  8
LAYER_1
 62
     0
 10
-5.9808489394881912
 20
27.6952381996954387
 30
0.0
  0
VERTEX
  5
46AF
  8
LAYER_1
 62
     0
 10
-5.9795632751266377
 20
27.697056832821719
 30
0.0
  0
VERTEX
  5
46B0
  8
LAYER_1
 62
     0
 10
-5.9783222867241479
 20
27.6989435824340191
 30
0.0
  0
VERTEX
  5
46B1
  8
LAYER_1
 62
     0
 10
-5.977135290290656
 20
27.7008837648587409
 30
0.0
  0
VERTEX
  5
46B2
  8
LAYER_1
 62
     0
 10
-5.9760116018360891
 20
27.7028626964222511
 30
0.0
  0
VERTEX
  5
46B3
  8
LAYER_1
 62
     0
 10
-5.9749605373703814
 20
27.7048656934509587
 30
0.0
  0
VERTEX
  5
46B4
  8
LAYER_1
 62
     0
 10
-5.9739914129034624
 20
27.7068780722712518
 30
0.0
  0
VERTEX
  5
46B5
  8
LAYER_1
 62
     0
 10
-5.9731135444452637
 20
27.708885149209511
 30
0.0
  0
VERTEX
  5
46B6
  8
LAYER_1
 62
     0
 10
-5.9723362480057203
 20
27.7108722405921313
 30
0.0
  0
VERTEX
  5
46B7
  8
LAYER_1
 62
     0
 10
-5.9719882255460437
 20
27.7118537030520713
 30
0.0
  0
VERTEX
  5
46B8
  8
LAYER_1
 62
     0
 10
-5.9716688395947566
 20
27.7128246627455006
 30
0.0
  0
VERTEX
  5
46B9
  8
LAYER_1
 62
     0
 10
-5.9713792546530984
 20
27.7137832842132106
 30
0.0
  0
VERTEX
  5
46BA
  8
LAYER_1
 62
     0
 10
-5.9711206352223094
 20
27.7147277319960104
 30
0.0
  0
VERTEX
  5
46BB
  8
LAYER_1
 62
     0
 10
-5.9709203011725478
 20
27.7155574950544299
 30
0.0
  0
VERTEX
  5
46BC
  8
LAYER_1
 62
     0
 10
-5.9707390235262467
 20
27.7164275087715097
 30
0.0
  0
VERTEX
  5
46BD
  8
LAYER_1
 62
     0
 10
-5.9705768344980896
 20
27.7173382658736394
 30
0.0
  0
VERTEX
  5
46BE
  8
LAYER_1
 62
     0
 10
-5.9704337663027571
 20
27.7182902590871691
 30
0.0
  0
VERTEX
  5
46BF
  8
LAYER_1
 62
     0
 10
-5.9703098511549291
 20
27.7192839811384886
 30
0.0
  0
VERTEX
  5
46C0
  8
LAYER_1
 62
     0
 10
-5.9702051212692862
 20
27.7203199247539587
 30
0.0
  0
VERTEX
  5
46C1
  8
LAYER_1
 62
     0
 10
-5.9700533461432794
 20
27.7225204475828804
 30
0.0
  0
VERTEX
  5
46C2
  8
LAYER_1
 62
     0
 10
-5.9699786986421861
 20
27.7248957693849007
 30
0.0
  0
VERTEX
  5
46C3
  8
LAYER_1
 62
     0
 10
-5.9699814364834509
 20
27.7274498319710183
 30
0.0
  0
VERTEX
  5
46C4
  8
LAYER_1
 62
     0
 10
-5.970061817384523
 20
27.7301865771522209
 30
0.0
  0
VERTEX
  5
46C5
  8
LAYER_1
 62
     0
 10
-5.9702200990628471
 20
27.7331099467395106
 30
0.0
  0
VERTEX
  5
46C6
  8
LAYER_1
 62
     0
 10
-5.9704565392358706
 20
27.7362238825438503
 30
0.0
  0
VERTEX
  5
46C7
  8
LAYER_1
 62
     0
 10
-5.97077139562104
 20
27.7395323263762492
 30
0.0
  0
VERTEX
  5
46C8
  8
LAYER_1
 62
     0
 10
-5.9711649259358044
 20
27.743039220047681
 30
0.0
  0
VERTEX
  5
46C9
  8
LAYER_1
 62
     0
 10
-5.9716373878976059
 20
27.7467485053691512
 30
0.0
  0
VERTEX
  5
46CA
  8
LAYER_1
 62
     0
 10
-5.9721890392238963
 20
27.7506641241516192
 30
0.0
  0
VERTEX
  5
46CB
  8
LAYER_1
 62
     0
 10
-5.9728201376321177
 20
27.7547900182061014
 30
0.0
  0
VERTEX
  5
46CC
  8
LAYER_1
 62
     0
 10
-5.973530940839721
 20
27.7591301293435784
 30
0.0
  0
VERTEX
  5
46CD
  8
LAYER_1
 62
     0
 10
-5.9743217065641501
 20
27.763688399375031
 30
0.0
  0
VERTEX
  5
46CE
  8
LAYER_1
 62
     0
 10
-5.9764671506667426
 20
27.7757442008826096
 30
0.0
  0
VERTEX
  5
46CF
  8
LAYER_1
 62
     0
 10
-5.9850836224805839
 20
27.8147482645836099
 30
0.0
  0
VERTEX
  5
46D0
  8
LAYER_1
 62
     0
 10
-5.9869064809702506
 20
27.8182940885564314
 30
0.0
  0
VERTEX
  5
46D1
  8
LAYER_1
 62
     0
 10
-5.9984998125190021
 20
27.8296799080401094
 30
0.0
  0
VERTEX
  5
46D2
  8
LAYER_1
 62
     0
 10
-6.0011515901889458
 20
27.832262322191319
 30
0.0
  0
VERTEX
  5
46D3
  8
LAYER_1
 62
     0
 10
-6.0037717805891919
 20
27.8347697745030196
 30
0.0
  0
VERTEX
  5
46D4
  8
LAYER_1
 62
     0
 10
-6.0063618538970802
 20
27.8372034948753218
 30
0.0
  0
VERTEX
  5
46D5
  8
LAYER_1
 62
     0
 10
-6.0089232802899479
 20
27.8395647132083397
 30
0.0
  0
VERTEX
  5
46D6
  8
LAYER_1
 62
     0
 10
-6.0114575299451349
 20
27.8418546594022089
 30
0.0
  0
VERTEX
  5
46D7
  8
LAYER_1
 62
     0
 10
-6.013966073039982
 20
27.8440745633570508
 30
0.0
  0
VERTEX
  5
46D8
  8
LAYER_1
 62
     0
 10
-6.0164503797518281
 20
27.8462256549729794
 30
0.0
  0
VERTEX
  5
46D9
  8
LAYER_1
 62
     0
 10
-6.0189119202580086
 20
27.848309164150141
 30
0.0
  0
VERTEX
  5
46DA
  8
LAYER_1
 62
     0
 10
-6.0213521647358661
 20
27.8503263207886285
 30
0.0
  0
VERTEX
  5
46DB
  8
LAYER_1
 62
     0
 10
-6.0237725833627396
 20
27.8522783547885915
 30
0.0
  0
VERTEX
  5
46DC
  8
LAYER_1
 62
     0
 10
-6.0261746463159671
 20
27.8541664960501301
 30
0.0
  0
VERTEX
  5
46DD
  8
LAYER_1
 62
     0
 10
-6.0285598237728877
 20
27.855991974473401
 30
0.0
  0
VERTEX
  5
46DE
  8
LAYER_1
 62
     0
 10
-6.0309295859108421
 20
27.8577560199584902
 30
0.0
  0
VERTEX
  5
46DF
  8
LAYER_1
 62
     0
 10
-6.0332854029071674
 20
27.8594598624055507
 30
0.0
  0
VERTEX
  5
46E0
  8
LAYER_1
 62
     0
 10
-6.0356287449392028
 20
27.8611047317146792
 30
0.0
  0
VERTEX
  5
46E1
  8
LAYER_1
 62
     0
 10
-6.037961082184288
 20
27.8626918577860287
 30
0.0
  0
VERTEX
  5
46E2
  8
LAYER_1
 62
     0
 10
-6.0403489851943943
 20
27.8642716688256691
 30
0.0
  0
VERTEX
  5
46E3
  8
LAYER_1
 62
     0
 10
-6.0426267515044296
 20
27.8657366586320592
 30
0.0
  0
VERTEX
  5
46E4
  8
LAYER_1
 62
     0
 10
-6.0448102121775094
 20
27.8670941114000001
 30
0.0
  0
VERTEX
  5
46E5
  8
LAYER_1
 62
     0
 10
-6.0469151982767411
 20
27.8683513113242789
 30
0.0
  0
VERTEX
  5
46E6
  8
LAYER_1
 62
     0
 10
-6.0489575408652358
 20
27.8695155425997001
 30
0.0
  0
VERTEX
  5
46E7
  8
LAYER_1
 62
     0
 10
-6.0509530710061092
 20
27.8705940894210507
 30
0.0
  0
VERTEX
  5
46E8
  8
LAYER_1
 62
     0
 10
-6.0529176197624679
 20
27.8715942359831317
 30
0.0
  0
VERTEX
  5
46E9
  8
LAYER_1
 62
     0
 10
-6.0548670181974256
 20
27.8725232664807407
 30
0.0
  0
VERTEX
  5
46EA
  8
LAYER_1
 62
     0
 10
-6.0568170973740942
 20
27.8733884651086612
 30
0.0
  0
VERTEX
  5
46EB
  8
LAYER_1
 62
     0
 10
-6.0587836883555841
 20
27.8741971160617013
 30
0.0
  0
VERTEX
  5
46EC
  8
LAYER_1
 62
     0
 10
-6.0607826222050054
 20
27.8749565035346514
 30
0.0
  0
VERTEX
  5
46ED
  8
LAYER_1
 62
     0
 10
-6.0628297299854701
 20
27.8756739117222985
 30
0.0
  0
VERTEX
  5
46EE
  8
LAYER_1
 62
     0
 10
-6.064940842760091
 20
27.8763566248194508
 30
0.0
  0
VERTEX
  5
46EF
  8
LAYER_1
 62
     0
 10
-6.0671317915919794
 20
27.8770119270208916
 30
0.0
  0
VERTEX
  5
46F0
  8
LAYER_1
 62
     0
 10
-6.0694184075442443
 20
27.8776471025214292
 30
0.0
  0
VERTEX
  5
46F1
  8
LAYER_1
 62
     0
 10
-6.0718165216799971
 20
27.8782694355158398
 30
0.0
  0
VERTEX
  5
46F2
  8
LAYER_1
 62
     0
 10
-6.0744422509223091
 20
27.8789182296748805
 30
0.0
  0
VERTEX
  5
46F3
  8
LAYER_1
 62
     0
 10
-6.076975916318764
 20
27.8795201961676717
 30
0.0
  0
VERTEX
  5
46F4
  8
LAYER_1
 62
     0
 10
-6.079421372134953
 20
27.8800750873073397
 30
0.0
  0
VERTEX
  5
46F5
  8
LAYER_1
 62
     0
 10
-6.0817824726364664
 20
27.8805826554070215
 30
0.0
  0
VERTEX
  5
46F6
  8
LAYER_1
 62
     0
 10
-6.0840630720888953
 20
27.8810426527798398
 30
0.0
  0
VERTEX
  5
46F7
  8
LAYER_1
 62
     0
 10
-6.0862670247578299
 20
27.881454831738921
 30
0.0
  0
VERTEX
  5
46F8
  8
LAYER_1
 62
     0
 10
-6.0883981849088631
 20
27.8818189445973985
 30
0.0
  0
VERTEX
  5
46F9
  8
LAYER_1
 62
     0
 10
-6.0904604068075852
 20
27.8821347436684093
 30
0.0
  0
VERTEX
  5
46FA
  8
LAYER_1
 62
     0
 10
-6.0924575447195828
 20
27.8824019812650583
 30
0.0
  0
VERTEX
  5
46FB
  8
LAYER_1
 62
     0
 10
-6.0943934529104533
 20
27.8826204097004897
 30
0.0
  0
VERTEX
  5
46FC
  8
LAYER_1
 62
     0
 10
-6.0962719856457817
 20
27.8827897812878298
 30
0.0
  0
VERTEX
  5
46FD
  8
LAYER_1
 62
     0
 10
-6.0980969971911634
 20
27.8829098483402014
 30
0.0
  0
VERTEX
  5
46FE
  8
LAYER_1
 62
     0
 10
-6.0998723418121861
 20
27.8829803631707485
 30
0.0
  0
VERTEX
  5
46FF
  8
LAYER_1
 62
     0
 10
-6.1016018737744417
 20
27.8830010780925797
 30
0.0
  0
VERTEX
  5
4700
  8
LAYER_1
 62
     0
 10
-6.1032894473435224
 20
27.8829717454188284
 30
0.0
  0
VERTEX
  5
4701
  8
LAYER_1
 62
     0
 10
-6.1049389167850157
 20
27.8828921174626316
 30
0.0
  0
VERTEX
  5
4702
  8
LAYER_1
 62
     0
 10
-6.1065541363645153
 20
27.8827619465371086
 30
0.0
  0
VERTEX
  5
4703
  8
LAYER_1
 62
     0
 10
-6.1081389603476106
 20
27.8825809849553892
 30
0.0
  0
VERTEX
  5
4704
  8
LAYER_1
 62
     0
 10
-6.1096972429998937
 20
27.8823489850306103
 30
0.0
  0
VERTEX
  5
4705
  8
LAYER_1
 62
     0
 10
-6.1112328385869539
 20
27.8820656990758806
 30
0.0
  0
VERTEX
  5
4706
  8
LAYER_1
 62
     0
 10
-6.1127496013743841
 20
27.8817308794043583
 30
0.0
  0
VERTEX
  5
4707
  8
LAYER_1
 62
     0
 10
-6.1142513856277718
 20
27.8813442783291414
 30
0.0
  0
VERTEX
  5
4708
  8
LAYER_1
 62
     0
 10
-6.115742045612711
 20
27.880905648163381
 30
0.0
  0
VERTEX
  5
4709
  8
LAYER_1
 62
     0
 10
-6.1172254355947908
 20
27.8804147412201786
 30
0.0
  0
VERTEX
  5
470A
  8
LAYER_1
 62
     0
 10
-6.1187054098396034
 20
27.8798713098126996
 30
0.0
  0
VERTEX
  5
470B
  8
LAYER_1
 62
     0
 10
-6.1201858226127381
 20
27.8792751062540383
 30
0.0
  0
VERTEX
  5
470C
  8
LAYER_1
 62
     0
 10
-6.1216705281797861
 20
27.8786258828573388
 30
0.0
  0
VERTEX
  5
470D
  8
LAYER_1
 62
     0
 10
-6.1231633808063384
 20
27.877923391935731
 30
0.0
  0
VERTEX
  5
470E
  8
LAYER_1
 62
     0
 10
-6.1246682347579862
 20
27.8771673858023412
 30
0.0
  0
VERTEX
  5
470F
  8
LAYER_1
 62
     0
 10
-6.1261889443003188
 20
27.8763576167702887
 30
0.0
  0
VERTEX
  5
4710
  8
LAYER_1
 62
     0
 10
-6.1277293636989301
 20
27.875493837152721
 30
0.0
  0
VERTEX
  5
4711
  8
LAYER_1
 62
     0
 10
-6.1292933472194067
 20
27.8745757992627397
 30
0.0
  0
VERTEX
  5
4712
  8
LAYER_1
 62
     0
 10
-6.1310522611349167
 20
27.873497875571239
 30
0.0
  0
VERTEX
  5
4713
  8
LAYER_1
 62
     0
 10
-6.1329108512609203
 20
27.8723145938743784
 30
0.0
  0
VERTEX
  5
4714
  8
LAYER_1
 62
     0
 10
-6.1348513988445781
 20
27.8710391601360499
 30
0.0
  0
VERTEX
  5
4715
  8
LAYER_1
 62
     0
 10
-6.1368561851330456
 20
27.8696847803201209
 30
0.0
  0
VERTEX
  5
4716
  8
LAYER_1
 62
     0
 10
-6.1389074913734891
 20
27.8682646603904693
 30
0.0
  0
VERTEX
  5
4717
  8
LAYER_1
 62
     0
 10
-6.1409875988130613
 20
27.8667920063109698
 30
0.0
  0
VERTEX
  5
4718
  8
LAYER_1
 62
     0
 10
-6.1430787886989249
 20
27.8652800240455107
 30
0.0
  0
VERTEX
  5
4719
  8
LAYER_1
 62
     0
 10
-6.1451633422782388
 20
27.8637419195579596
 30
0.0
  0
VERTEX
  5
471A
  8
LAYER_1
 62
     0
 10
-6.147223540798163
 20
27.8621908988122016
 30
0.0
  0
VERTEX
  5
471B
  8
LAYER_1
 62
     0
 10
-6.1492416655058548
 20
27.8606401677721003
 30
0.0
  0
VERTEX
  5
471C
  8
LAYER_1
 62
     0
 10
-6.1511999976484768
 20
27.8591029324015516
 30
0.0
  0
VERTEX
  5
471D
  8
LAYER_1
 62
     0
 10
-6.1530808184731862
 20
27.8575923986644085
 30
0.0
  0
VERTEX
  5
471E
  8
LAYER_1
 62
     0
 10
-6.1548664092271421
 20
27.8561217725245811
 30
0.0
  0
VERTEX
  5
471F
  8
LAYER_1
 62
     0
 10
-6.1565390511575044
 20
27.8547042599459083
 30
0.0
  0
VERTEX
  5
4720
  8
LAYER_1
 62
     0
 10
-6.1580810255114331
 20
27.8533530668922999
 30
0.0
  0
VERTEX
  5
4721
  8
LAYER_1
 62
     0
 10
-6.1594746135360872
 20
27.8520813993276199
 30
0.0
  0
VERTEX
  5
4722
  8
LAYER_1
 62
     0
 10
-6.1648956297080071
 20
27.8470152627362602
 30
0.0
  0
VERTEX
  5
4723
  8
LAYER_1
 62
     0
 10
-6.1661537958175803
 20
27.8470152627362602
 30
0.0
  0
VERTEX
  5
4724
  8
LAYER_1
 62
     0
 10
-6.1729307556719384
 20
27.853973130284249
 30
0.0
  0
VERTEX
  5
4725
  8
LAYER_1
 62
     0
 10
-6.1741043506217697
 20
27.855161583860891
 30
0.0
  0
VERTEX
  5
4726
  8
LAYER_1
 62
     0
 10
-6.1752885343577946
 20
27.8563281550810693
 30
0.0
  0
VERTEX
  5
4727
  8
LAYER_1
 62
     0
 10
-6.1764825946377764
 20
27.8574723917646097
 30
0.0
  0
VERTEX
  5
4728
  8
LAYER_1
 62
     0
 10
-6.1776858192194739
 20
27.8585938417313308
 30
0.0
  0
VERTEX
  5
4729
  8
LAYER_1
 62
     0
 10
-6.1788974958606522
 20
27.8596920528010408
 30
0.0
  0
VERTEX
  5
472A
  8
LAYER_1
 62
     0
 10
-6.1801169123190709
 20
27.8607665727935512
 30
0.0
  0
VERTEX
  5
472B
  8
LAYER_1
 62
     0
 10
-6.1813433563524951
 20
27.8618169495286914
 30
0.0
  0
VERTEX
  5
472C
  8
LAYER_1
 62
     0
 10
-6.1825761157186854
 20
27.86284273082628
 30
0.0
  0
VERTEX
  5
472D
  8
LAYER_1
 62
     0
 10
-6.1838144781754032
 20
27.8638434645061288
 30
0.0
  0
VERTEX
  5
472E
  8
LAYER_1
 62
     0
 10
-6.18505773148041
 20
27.8648186983880599
 30
0.0
  0
VERTEX
  5
472F
  8
LAYER_1
 62
     0
 10
-6.1863051633914701
 20
27.8657679802918814
 30
0.0
  0
VERTEX
  5
4730
  8
LAYER_1
 62
     0
 10
-6.187556061666343
 20
27.8666908580374084
 30
0.0
  0
VERTEX
  5
4731
  8
LAYER_1
 62
     0
 10
-6.1888097140627938
 20
27.867586879444481
 30
0.0
  0
VERTEX
  5
4732
  8
LAYER_1
 62
     0
 10
-6.1900654083385831
 20
27.8684555923328894
 30
0.0
  0
VERTEX
  5
4733
  8
LAYER_1
 62
     0
 10
-6.1913224322514724
 20
27.8692965445224594
 30
0.0
  0
VERTEX
  5
4734
  8
LAYER_1
 62
     0
 10
-6.192580073559224
 20
27.8701092838330204
 30
0.0
  0
VERTEX
  5
4735
  8
LAYER_1
 62
     0
 10
-6.1938376200195986
 20
27.8708933580843699
 30
0.0
  0
VERTEX
  5
4736
  8
LAYER_1
 62
     0
 10
-6.1950943593903611
 20
27.8716483150963512
 30
0.0
  0
VERTEX
  5
4737
  8
LAYER_1
 62
     0
 10
-6.1963495794292722
 20
27.8723737026887513
 30
0.0
  0
VERTEX
  5
4738
  8
LAYER_1
 62
     0
 10
-6.1976025678940942
 20
27.8730690686813993
 30
0.0
  0
VERTEX
  5
4739
  8
LAYER_1
 62
     0
 10
-6.1988526125425878
 20
27.8737339608941213
 30
0.0
  0
VERTEX
  5
473A
  8
LAYER_1
 62
     0
 10
-6.2000990011325179
 20
27.8743679271467215
 30
0.0
  0
VERTEX
  5
473B
  8
LAYER_1
 62
     0
 10
-6.2013410214216442
 20
27.8749705152590295
 30
0.0
  0
VERTEX
  5
473C
  8
LAYER_1
 62
     0
 10
-6.2025779611677292
 20
27.8755412730508496
 30
0.0
  0
VERTEX
  5
473D
  8
LAYER_1
 62
     0
 10
-6.203809108128536
 20
27.8760797483420113
 30
0.0
  0
VERTEX
  5
473E
  8
LAYER_1
 62
     0
 10
-6.2050337500618236
 20
27.876585488952319
 30
0.0
  0
VERTEX
  5
473F
  8
LAYER_1
 62
     0
 10
-6.2062511747253586
 20
27.8770580427015986
 30
0.0
  0
VERTEX
  5
4740
  8
LAYER_1
 62
     0
 10
-6.2074606698769008
 20
27.8774969574096687
 30
0.0
  0
VERTEX
  5
4741
  8
LAYER_1
 62
     0
 10
-6.2086615232742117
 20
27.877901780896341
 30
0.0
  0
VERTEX
  5
4742
  8
LAYER_1
 62
     0
 10
-6.2098530226750546
 20
27.8782720609814305
 30
0.0
  0
VERTEX
  5
4743
  8
LAYER_1
 62
     0
 10
-6.211034455837189
 20
27.8786073454847596
 30
0.0
  0
VERTEX
  5
4744
  8
LAYER_1
 62
     0
 10
-6.2122051105183811
 20
27.8789071822261505
 30
0.0
  0
VERTEX
  5
4745
  8
LAYER_1
 62
     0
 10
-6.2178784288748901
 20
27.8802802487209505
 30
0.0
  0
VERTEX
  5
4746
  8
LAYER_1
 62
     0
 10
-6.261846646137835
 20
27.8852894307390997
 30
0.0
  0
VERTEX
  5
4747
  8
LAYER_1
 62
     0
 10
-6.2781574364127959
 20
27.8870465025796399
 30
0.0
  0
VERTEX
  5
4748
  8
LAYER_1
 62
     0
 10
-6.3235439832648668
 20
27.8870830736290998
 30
0.0
  0
VERTEX
  5
4749
  8
LAYER_1
 62
     0
 10
-6.3301973750919984
 20
27.8859449689201995
 30
0.0
  0
VERTEX
  5
474A
  8
LAYER_1
 62
     0
 10
-6.3530514775936551
 20
27.8710318589707207
 30
0.0
  0
VERTEX
  5
474B
  8
LAYER_1
 62
     0
 10
-6.3752873564096291
 20
27.8855348309685311
 30
0.0
  0
VERTEX
  5
474C
  8
LAYER_1
 62
     0
 10
-6.380986331624519
 20
27.8870333104492616
 30
0.0
  0
VERTEX
  5
474D
  8
LAYER_1
 62
     0
 10
-6.4270820432711542
 20
27.8870830736290998
 30
0.0
  0
VERTEX
  5
474E
  8
LAYER_1
 62
     0
 10
-6.4448111631352436
 20
27.88524566405097
 30
0.0
  0
VERTEX
  5
474F
  8
LAYER_1
 62
     0
 10
-6.4923252043710047
 20
27.8796640485102998
 30
0.0
  0
VERTEX
  5
4750
  8
LAYER_1
 62
     0
 10
-6.496738940343679
 20
27.8783027423042995
 30
0.0
  0
VERTEX
  5
4751
  8
LAYER_1
 62
     0
 10
-6.4977699321035347
 20
27.87797146232041
 30
0.0
  0
VERTEX
  5
4752
  8
LAYER_1
 62
     0
 10
-6.4988137188238442
 20
27.87760984606793
 30
0.0
  0
VERTEX
  5
4753
  8
LAYER_1
 62
     0
 10
-6.4998694147936016
 20
27.8772184710157802
 30
0.0
  0
VERTEX
  5
4754
  8
LAYER_1
 62
     0
 10
-6.5009361343018064
 20
27.8767979146328813
 30
0.0
  0
VERTEX
  5
4755
  8
LAYER_1
 62
     0
 10
-6.5030991010895418
 20
27.8758715677504298
 30
0.0
  0
VERTEX
  5
4756
  8
LAYER_1
 62
     0
 10
-6.505295533499031
 20
27.8748354251718808
 30
0.0
  0
VERTEX
  5
4757
  8
LAYER_1
 62
     0
 10
-6.5075183458422483
 20
27.8736941066485109
 30
0.0
  0
VERTEX
  5
4758
  8
LAYER_1
 62
     0
 10
-6.5097604524311716
 20
27.8724522319316286
 30
0.0
  0
VERTEX
  5
4759
  8
LAYER_1
 62
     0
 10
-6.5120147675777806
 20
27.8711144207724999
 30
0.0
  0
VERTEX
  5
475A
  8
LAYER_1
 62
     0
 10
-6.5142742055940488
 20
27.8696852929224299
 30
0.0
  0
VERTEX
  5
475B
  8
LAYER_1
 62
     0
 10
-6.5165316807919567
 20
27.8681694681326988
 30
0.0
  0
VERTEX
  5
475C
  8
LAYER_1
 62
     0
 10
-6.5187801074834821
 20
27.866571566154601
 30
0.0
  0
VERTEX
  5
475D
  8
LAYER_1
 62
     0
 10
-6.5210123999805978
 20
27.8648962067394415
 30
0.0
  0
VERTEX
  5
475E
  8
LAYER_1
 62
     0
 10
-6.5232214725952851
 20
27.8631480096384792
 30
0.0
  0
VERTEX
  5
475F
  8
LAYER_1
 62
     0
 10
-6.5254002396395201
 20
27.8613315946030298
 30
0.0
  0
VERTEX
  5
4760
  8
LAYER_1
 62
     0
 10
-6.5275416154252799
 20
27.8594515813843699
 30
0.0
  0
VERTEX
  5
4761
  8
LAYER_1
 62
     0
 10
-6.5296385142645441
 20
27.8575125897337905
 30
0.0
  0
VERTEX
  5
4762
  8
LAYER_1
 62
     0
 10
-6.5316838504692862
 20
27.8555192394025894
 30
0.0
  0
VERTEX
  5
4763
  8
LAYER_1
 62
     0
 10
-6.5384209160176399
 20
27.8487761729858114
 30
0.0
  0
VERTEX
  5
4764
  8
LAYER_1
 62
     0
 10
-6.5408531969230888
 20
27.8468829226794092
 30
0.0
  0
VERTEX
  5
4765
  8
LAYER_1
 62
     0
 10
-6.5470832868132831
 20
27.8524617835432196
 30
0.0
  0
VERTEX
  5
4766
  8
LAYER_1
 62
     0
 10
-6.5492934023208971
 20
27.8544071942653204
 30
0.0
  0
VERTEX
  5
4767
  8
LAYER_1
 62
     0
 10
-6.5515774969594034
 20
27.8563532101282689
 30
0.0
  0
VERTEX
  5
4768
  8
LAYER_1
 62
     0
 10
-6.5539219812505589
 20
27.8582902473395393
 30
0.0
  0
VERTEX
  5
4769
  8
LAYER_1
 62
     0
 10
-6.5563132657161214
 20
27.8602087221065986
 30
0.0
  0
VERTEX
  5
476A
  8
LAYER_1
 62
     0
 10
-6.5587377608778459
 20
27.862099050636921
 30
0.0
  0
VERTEX
  5
476B
  8
LAYER_1
 62
     0
 10
-6.561181877257491
 20
27.8639516491379915
 30
0.0
  0
VERTEX
  5
476C
  8
LAYER_1
 62
     0
 10
-6.563632025376811
 20
27.8657569338172806
 30
0.0
  0
VERTEX
  5
476D
  8
LAYER_1
 62
     0
 10
-6.566074615757568
 20
27.8675053208822483
 30
0.0
  0
VERTEX
  5
476E
  8
LAYER_1
 62
     0
 10
-6.5684960589215118
 20
27.8691872265404115
 30
0.0
  0
VERTEX
  5
476F
  8
LAYER_1
 62
     0
 10
-6.5708827653904054
 20
27.870793066999191
 30
0.0
  0
VERTEX
  5
4770
  8
LAYER_1
 62
     0
 10
-6.5732211456860021
 20
27.8723132584661002
 30
0.0
  0
VERTEX
  5
4771
  8
LAYER_1
 62
     0
 10
-6.5754976103300598
 20
27.873738217148599
 30
0.0
  0
VERTEX
  5
4772
  8
LAYER_1
 62
     0
 10
-6.577698569844336
 20
27.8750583592541616
 30
0.0
  0
VERTEX
  5
4773
  8
LAYER_1
 62
     0
 10
-6.5798104347505886
 20
27.8762641009902588
 30
0.0
  0
VERTEX
  5
4774
  8
LAYER_1
 62
     0
 10
-6.5818196155705717
 20
27.8773458585643787
 30
0.0
  0
VERTEX
  5
4775
  8
LAYER_1
 62
     0
 10
-6.583712522826044
 20
27.8782940481839887
 30
0.0
  0
VERTEX
  5
4776
  8
LAYER_1
 62
     0
 10
-6.5851431249548327
 20
27.8789531630991902
 30
0.0
  0
VERTEX
  5
4777
  8
LAYER_1
 62
     0
 10
-6.5865854337316279
 20
27.8795632531374196
 30
0.0
  0
VERTEX
  5
4778
  8
LAYER_1
 62
     0
 10
-6.588039292212212
 20
27.8801242881762086
 30
0.0
  0
VERTEX
  5
4779
  8
LAYER_1
 62
     0
 10
-6.5895045434523647
 20
27.8806362380931105
 30
0.0
  0
VERTEX
  5
477A
  8
LAYER_1
 62
     0
 10
-6.5909810305078702
 20
27.8810990727656787
 30
0.0
  0
VERTEX
  5
477B
  8
LAYER_1
 62
     0
 10
-6.5924685964345038
 20
27.8815127620714591
 30
0.0
  0
VERTEX
  5
477C
  8
LAYER_1
 62
     0
 10
-6.5939670842880513
 20
27.8818772758879909
 30
0.0
  0
VERTEX
  5
477D
  8
LAYER_1
 62
     0
 10
-6.5954763371242899
 20
27.8821925840928202
 30
0.0
  0
VERTEX
  5
477E
  8
LAYER_1
 62
     0
 10
-6.5969961979990046
 20
27.8824586565635002
 30
0.0
  0
VERTEX
  5
477F
  8
LAYER_1
 62
     0
 10
-6.5985265099679742
 20
27.88267546317757
 30
0.0
  0
VERTEX
  5
4780
  8
LAYER_1
 62
     0
 10
-6.6000671160869793
 20
27.8828429738125898
 30
0.0
  0
VERTEX
  5
4781
  8
LAYER_1
 62
     0
 10
-6.6016178594117996
 20
27.8829611583460917
 30
0.0
  0
VERTEX
  5
4782
  8
LAYER_1
 62
     0
 10
-6.6031785829982201
 20
27.8830299866556288
 30
0.0
  0
VERTEX
  5
4783
  8
LAYER_1
 62
     0
 10
-6.604749129902018
 20
27.8830494286187616
 30
0.0
  0
VERTEX
  5
4784
  8
LAYER_1
 62
     0
 10
-6.6063293431789747
 20
27.8830194541130005
 30
0.0
  0
VERTEX
  5
4785
  8
LAYER_1
 62
     0
 10
-6.6079190658848734
 20
27.8829400330159309
 30
0.0
  0
VERTEX
  5
4786
  8
LAYER_1
 62
     0
 10
-6.6102152406960482
 20
27.8827527606508312
 30
0.0
  0
VERTEX
  5
4787
  8
LAYER_1
 62
     0
 10
-6.612677520146323
 20
27.8824830895298312
 30
0.0
  0
VERTEX
  5
4788
  8
LAYER_1
 62
     0
 10
-6.6152780811094347
 20
27.8821373452290509
 30
0.0
  0
VERTEX
  5
4789
  8
LAYER_1
 62
     0
 10
-6.6179891004591163
 20
27.8817218533246205
 30
0.0
  0
VERTEX
  5
478A
  8
LAYER_1
 62
     0
 10
-6.6207827550690972
 20
27.8812429393926386
 30
0.0
  0
VERTEX
  5
478B
  8
LAYER_1
 62
     0
 10
-6.623631221813115
 20
27.8807069290092286
 30
0.0
  0
VERTEX
  5
478C
  8
LAYER_1
 62
     0
 10
-6.6265066775648993
 20
27.8801201477505103
 30
0.0
  0
VERTEX
  5
478D
  8
LAYER_1
 62
     0
 10
-6.6293812991981849
 20
27.8794889211925998
 30
0.0
  0
VERTEX
  5
478E
  8
LAYER_1
 62
     0
 10
-6.6322272635867083
 20
27.8788195749116099
 30
0.0
  0
VERTEX
  5
478F
  8
LAYER_1
 62
     0
 10
-6.6350167476041966
 20
27.878118434483671
 30
0.0
  0
VERTEX
  5
4790
  8
LAYER_1
 62
     0
 10
-6.6377219281243889
 20
27.8773918254848816
 30
0.0
  0
VERTEX
  5
4791
  8
LAYER_1
 62
     0
 10
-6.6403149820210148
 20
27.8766460734913686
 30
0.0
  0
VERTEX
  5
4792
  8
LAYER_1
 62
     0
 10
-6.64276808616781
 20
27.8758875040792518
 30
0.0
  0
VERTEX
  5
4793
  8
LAYER_1
 62
     0
 10
-6.6450534174385041
 20
27.8751224428246402
 30
0.0
  0
VERTEX
  5
4794
  8
LAYER_1
 62
     0
 10
-6.6471431527068354
 20
27.874357215303661
 30
0.0
  0
VERTEX
  5
4795
  8
LAYER_1
 62
     0
 10
-6.6490094688465344
 20
27.8735981470924301
 30
0.0
  0
VERTEX
  5
4796
  8
LAYER_1
 62
     0
 10
-6.650613989842916
 20
27.8728837561419915
 30
0.0
  0
VERTEX
  5
4797
  8
LAYER_1
 62
     0
 10
-6.6522476489541278
 20
27.8721143227317789
 30
0.0
  0
VERTEX
  5
4798
  8
LAYER_1
 62
     0
 10
-6.6539094951354851
 20
27.8712905719065098
 30
0.0
  0
VERTEX
  5
4799
  8
LAYER_1
 62
     0
 10
-6.655598577342305
 20
27.8704132287108806
 30
0.0
  0
VERTEX
  5
479A
  8
LAYER_1
 62
     0
 10
-6.6573139445299034
 20
27.8694830181896194
 30
0.0
  0
VERTEX
  5
479B
  8
LAYER_1
 62
     0
 10
-6.6590546456535966
 20
27.8685006653874012
 30
0.0
  0
VERTEX
  5
479C
  8
LAYER_1
 62
     0
 10
-6.6608197296687042
 20
27.8674668953489615
 30
0.0
  0
VERTEX
  5
479D
  8
LAYER_1
 62
     0
 10
-6.6626082455305387
 20
27.8663824331189893
 30
0.0
  0
VERTEX
  5
479E
  8
LAYER_1
 62
     0
 10
-6.6644192421944197
 20
27.8652480037422201
 30
0.0
  0
VERTEX
  5
479F
  8
LAYER_1
 62
     0
 10
-6.6662517686156644
 20
27.8640643322633288
 30
0.0
  0
VERTEX
  5
47A0
  8
LAYER_1
 62
     0
 10
-6.668104873749586
 20
27.8628321437270507
 30
0.0
  0
VERTEX
  5
47A1
  8
LAYER_1
 62
     0
 10
-6.6699776065515044
 20
27.8615521631780894
 30
0.0
  0
VERTEX
  5
47A2
  8
LAYER_1
 62
     0
 10
-6.6718690159767338
 20
27.8602251156611409
 30
0.0
  0
VERTEX
  5
47A3
  8
LAYER_1
 62
     0
 10
-6.6737781509805947
 20
27.8588517262209194
 30
0.0
  0
VERTEX
  5
47A4
  8
LAYER_1
 62
     0
 10
-6.6757040605183997
 20
27.8574327199021283
 30
0.0
  0
VERTEX
  5
47A5
  8
LAYER_1
 62
     0
 10
-6.6776457935454667
 20
27.8559688217494994
 30
0.0
  0
VERTEX
  5
47A6
  8
LAYER_1
 62
     0
 10
-6.6796023990171154
 20
27.8544607568077183
 30
0.0
  0
VERTEX
  5
47A7
  8
LAYER_1
 62
     0
 10
-6.6815729258886583
 20
27.852909250121499
 30
0.0
  0
VERTEX
  5
47A8
  8
LAYER_1
 62
     0
 10
-6.6835564231154141
 20
27.8513150267355414
 30
0.0
  0
VERTEX
  5
47A9
  8
LAYER_1
 62
     0
 10
-6.6855519396526981
 20
27.8496788116945702
 30
0.0
  0
VERTEX
  5
47AA
  8
LAYER_1
 62
     0
 10
-6.6875585244558282
 20
27.8480013300432887
 30
0.0
  0
VERTEX
  5
47AB
  8
LAYER_1
 62
     0
 10
-6.6895752264801214
 20
27.8462833068264004
 30
0.0
  0
VERTEX
  5
47AC
  8
LAYER_1
 62
     0
 10
-6.6916010946808919
 20
27.8445254670886087
 30
0.0
  0
VERTEX
  5
47AD
  8
LAYER_1
 62
     0
 10
-6.6936351780134604
 20
27.842728535874631
 30
0.0
  0
VERTEX
  5
47AE
  8
LAYER_1
 62
     0
 10
-6.6956765254331412
 20
27.8408932382291816
 30
0.0
  0
VERTEX
  5
47AF
  8
LAYER_1
 62
     0
 10
-6.6977241858952512
 20
27.8390202991969495
 30
0.0
  0
VERTEX
  5
47B0
  8
LAYER_1
 62
     0
 10
-6.6997772083551057
 20
27.8371104438226702
 30
0.0
  0
VERTEX
  5
47B1
  8
LAYER_1
 62
     0
 10
-6.7018346417680252
 20
27.8351643971510292
 30
0.0
  0
VERTEX
  5
47B2
  8
LAYER_1
 62
     0
 10
-6.7038955350893223
 20
27.8331828842267406
 30
0.0
  0
VERTEX
  5
47B3
  8
LAYER_1
 62
     0
 10
-6.7059589372743149
 20
27.8311666300945113
 30
0.0
  0
VERTEX
  5
47B4
  8
LAYER_1
 62
     0
 10
-6.7080238972783208
 20
27.829116359799059
 30
0.0
  0
VERTEX
  5
47B5
  8
LAYER_1
 62
     0
 10
-6.7100894640566571
 20
27.8270327983850798
 30
0.0
  0
VERTEX
  5
47B6
  8
LAYER_1
 62
     0
 10
-6.7207776037297364
 20
27.8161665941727385
 30
0.0
  0
VERTEX
  5
47B7
  8
LAYER_1
 62
     0
 10
-6.7294928337839384
 20
27.7764533656771704
 30
0.0
  0
VERTEX
  5
47B8
  8
LAYER_1
 62
     0
 10
-6.7316150707993438
 20
27.764752146566881
 30
0.0
  0
VERTEX
  5
47B9
  8
LAYER_1
 62
     0
 10
-6.7323523088172097
 20
27.7606057297637712
 30
0.0
  0
VERTEX
  5
47BA
  8
LAYER_1
 62
     0
 10
-6.733026333700038
 20
27.7566440464004991
 30
0.0
  0
VERTEX
  5
47BB
  8
LAYER_1
 62
     0
 10
-6.733637348650471
 20
27.7528649644314598
 30
0.0
  0
VERTEX
  5
47BC
  8
LAYER_1
 62
     0
 10
-6.7341855568711528
 20
27.7492663518110305
 30
0.0
  0
VERTEX
  5
47BD
  8
LAYER_1
 62
     0
 10
-6.7346711615647248
 20
27.7458460764935708
 30
0.0
  0
VERTEX
  5
47BE
  8
LAYER_1
 62
     0
 10
-6.7350943659338318
 20
27.7426020064334793
 30
0.0
  0
VERTEX
  5
47BF
  8
LAYER_1
 62
     0
 10
-6.7354553731811162
 20
27.739532009585119
 30
0.0
  0
VERTEX
  5
47C0
  8
LAYER_1
 62
     0
 10
-6.7357543865092211
 20
27.7366339539028814
 30
0.0
  0
VERTEX
  5
47C1
  8
LAYER_1
 62
     0
 10
-6.7359916091207888
 20
27.733905707341151
 30
0.0
  0
VERTEX
  5
47C2
  8
LAYER_1
 62
     0
 10
-6.736167244218465
 20
27.7313451378542908
 30
0.0
  0
VERTEX
  5
47C3
  8
LAYER_1
 62
     0
 10
-6.7362814950048904
 20
27.7289501133966709
 30
0.0
  0
VERTEX
  5
47C4
  8
LAYER_1
 62
     0
 10
-6.736334564682708
 20
27.7267185019227007
 30
0.0
  0
VERTEX
  5
47C5
  8
LAYER_1
 62
     0
 10
-6.7363266564545627
 20
27.7246481713867396
 30
0.0
  0
VERTEX
  5
47C6
  8
LAYER_1
 62
     0
 10
-6.7362579735230979
 20
27.7227369897431686
 30
0.0
  0
VERTEX
  5
47C7
  8
LAYER_1
 62
     0
 10
-6.7361287190909538
 20
27.7209828249463683
 30
0.0
  0
VERTEX
  5
47C8
  8
LAYER_1
 62
     0
 10
-6.7359390963607781
 20
27.7193835449507198
 30
0.0
  0
VERTEX
  5
47C9
  8
LAYER_1
 62
     0
 10
-6.73571382187348
 20
27.7179979405995489
 30
0.0
  0
VERTEX
  5
47CA
  8
LAYER_1
 62
     0
 10
-6.7354379368495261
 20
27.7166069516126896
 30
0.0
  0
VERTEX
  5
47CB
  8
LAYER_1
 62
     0
 10
-6.7351128950411576
 20
27.7152126930523615
 30
0.0
  0
VERTEX
  5
47CC
  8
LAYER_1
 62
     0
 10
-6.7347401502006168
 20
27.7138172799807911
 30
0.0
  0
VERTEX
  5
47CD
  8
LAYER_1
 62
     0
 10
-6.7343211560801439
 20
27.7124228274601911
 30
0.0
  0
VERTEX
  5
47CE
  8
LAYER_1
 62
     0
 10
-6.7338573664319803
 20
27.7110314505527917
 30
0.0
  0
VERTEX
  5
47CF
  8
LAYER_1
 62
     0
 10
-6.7333502350083663
 20
27.7096452643208089
 30
0.0
  0
VERTEX
  5
47D0
  8
LAYER_1
 62
     0
 10
-6.7328012155615431
 20
27.70826638382648
 30
0.0
  0
VERTEX
  5
47D1
  8
LAYER_1
 62
     0
 10
-6.732211761843752
 20
27.7068969241320104
 30
0.0
  0
VERTEX
  5
47D2
  8
LAYER_1
 62
     0
 10
-6.7315833276072334
 20
27.7055390002996305
 30
0.0
  0
VERTEX
  5
47D3
  8
LAYER_1
 62
     0
 10
-6.7309173666042286
 20
27.7041947273915596
 30
0.0
  0
VERTEX
  5
47D4
  8
LAYER_1
 62
     0
 10
-6.7302153325869787
 20
27.7028662204700211
 30
0.0
  0
VERTEX
  5
47D5
  8
LAYER_1
 62
     0
 10
-6.7294786793077259
 20
27.7015555945972416
 30
0.0
  0
VERTEX
  5
47D6
  8
LAYER_1
 62
     0
 10
-6.7287088605187098
 20
27.7002649648354407
 30
0.0
  0
VERTEX
  5
47D7
  8
LAYER_1
 62
     0
 10
-6.7279073299721723
 20
27.6989964462468414
 30
0.0
  0
VERTEX
  5
47D8
  8
LAYER_1
 62
     0
 10
-6.727075541420354
 20
27.69775215389366
 30
0.0
  0
VERTEX
  5
47D9
  8
LAYER_1
 62
     0
 10
-6.7262149486154943
 20
27.6965342028381301
 30
0.0
  0
VERTEX
  5
47DA
  8
LAYER_1
 62
     0
 10
-6.7253270053098371
 20
27.69534470814245
 30
0.0
  0
VERTEX
  5
47DB
  8
LAYER_1
 62
     0
 10
-6.7244131652556209
 20
27.6941857848688784
 30
0.0
  0
VERTEX
  5
47DC
  8
LAYER_1
 62
     0
 10
-6.7234748822050889
 20
27.69305954807961
 30
0.0
  0
VERTEX
  5
47DD
  8
LAYER_1
 62
     0
 10
-6.7225136099104814
 20
27.6919681128368786
 30
0.0
  0
VERTEX
  5
47DE
  8
LAYER_1
 62
     0
 10
-6.7215308021240379
 20
27.690913594202911
 30
0.0
  0
VERTEX
  5
47DF
  8
LAYER_1
 62
     0
 10
-6.7205279125980031
 20
27.6898981072399089
 30
0.0
  0
VERTEX
  5
47E0
  8
LAYER_1
 62
     0
 10
-6.719506395084613
 20
27.6889237670101203
 30
0.0
  0
VERTEX
  5
47E1
  8
LAYER_1
 62
     0
 10
-6.7184677033361124
 20
27.6879926885757506
 30
0.0
  0
VERTEX
  5
47E2
  8
LAYER_1
 62
     0
 10
-6.7174132911047408
 20
27.6871069869990301
 30
0.0
  0
VERTEX
  5
47E3
  8
LAYER_1
 62
     0
 10
-6.7163446121427386
 20
27.6862687773421712
 30
0.0
  0
VERTEX
  5
47E4
  8
LAYER_1
 62
     0
 10
-6.7152631202023496
 20
27.6854801746674113
 30
0.0
  0
VERTEX
  5
47E5
  8
LAYER_1
 62
     0
 10
-6.7141702690358134
 20
27.6847432940369593
 30
0.0
  0
VERTEX
  5
47E6
  8
LAYER_1
 62
     0
 10
-6.7130675123953694
 20
27.6840602505130491
 30
0.0
  0
VERTEX
  5
47E7
  8
LAYER_1
 62
     0
 10
-6.7119563040332588
 20
27.6834331591578895
 30
0.0
  0
VERTEX
  5
47E8
  8
LAYER_1
 62
     0
 10
-6.7108380977017257
 20
27.6828641350337215
 30
0.0
  0
VERTEX
  5
47E9
  8
LAYER_1
 62
     0
 10
-6.7054125720752591
 20
27.6802545621361702
 30
0.0
  0
VERTEX
  5
47EA
  8
LAYER_1
 62
     0
 10
-6.7149112397672504
 20
27.6702024507524591
 30
0.0
  0
VERTEX
  5
47EB
  8
LAYER_1
 62
     0
 10
-6.7192814854247249
 20
27.6655439776625407
 30
0.0
  0
VERTEX
  5
47EC
  8
LAYER_1
 62
     0
 10
-6.7241589436351452
 20
27.6602908654492694
 30
0.0
  0
VERTEX
  5
47ED
  8
LAYER_1
 62
     0
 10
-6.7289482975243393
 20
27.6550870868600107
 30
0.0
  0
VERTEX
  5
47EE
  8
LAYER_1
 62
     0
 10
-6.733054230218138
 20
27.6505766146421408
 30
0.0
  0
VERTEX
  5
47EF
  8
LAYER_1
 62
     0
 10
-6.7416985529770344
 20
27.64100288991553
 30
0.0
  0
VERTEX
  5
47F0
  8
LAYER_1
 62
     0
 10
-6.7428352877412161
 20
27.6387136156050985
 30
0.0
  0
VERTEX
  5
47F1
  8
LAYER_1
 62
     0
 10
-6.7431807460929507
 20
27.6379990216469906
 30
0.0
  0
VERTEX
  5
47F2
  8
LAYER_1
 62
     0
 10
-6.7434259319751151
 20
27.6374252335867006
 30
0.0
  0
VERTEX
  5
47F3
  8
LAYER_1
 62
     0
 10
-6.7435700175207502
 20
27.6369588412238194
 30
0.0
  0
VERTEX
  5
47F4
  8
LAYER_1
 62
     0
 10
-6.7436038889589449
 20
27.6367554777412714
 30
0.0
  0
VERTEX
  5
47F5
  8
LAYER_1
 62
     0
 10
-6.7436121748629017
 20
27.6365664343579205
 30
0.0
  0
VERTEX
  5
47F6
  8
LAYER_1
 62
     0
 10
-6.7435947717492501
 20
27.6363875347987182
 30
0.0
  0
VERTEX
  5
47F7
  8
LAYER_1
 62
     0
 10
-6.7435515761346201
 20
27.6362146027885984
 30
0.0
  0
VERTEX
  5
47F8
  8
LAYER_1
 62
     0
 10
-6.7433873934689448
 20
27.6358699363154301
 30
0.0
  0
VERTEX
  5
47F9
  8
LAYER_1
 62
     0
 10
-6.7431187989989274
 20
27.6354990247379995
 30
0.0
  0
VERTEX
  5
47FA
  8
LAYER_1
 62
     0
 10
-6.7427449648576099
 20
27.6350684578558905
 30
0.0
  0
VERTEX
  5
47FB
  8
LAYER_1
 62
     0
 10
-6.7415179072098228
 20
27.6337125744170891
 30
0.0
  0
VERTEX
  5
47FC
  8
LAYER_1
 62
     0
 10
-6.7235129273987422
 20
27.6269986240148384
 30
0.0
  0
VERTEX
  5
47FD
  8
LAYER_1
 62
     0
 10
-6.7224438962836937
 20
27.6260342288270309
 30
0.0
  0
VERTEX
  5
47FE
  8
LAYER_1
 62
     0
 10
-6.7252309824682666
 20
27.6005804966254011
 30
0.0
  0
VERTEX
  5
47FF
  8
LAYER_1
 62
     0
 10
-6.727005178531785
 20
27.5793055527884903
 30
0.0
  0
VERTEX
  5
4800
  8
LAYER_1
 62
     0
 10
-6.7277857446495757
 20
27.5696778980510118
 30
0.0
  0
VERTEX
  5
4801
  8
LAYER_1
 62
     0
 10
-6.7285656106115219
 20
27.5595392210038206
 30
0.0
  0
VERTEX
  5
4802
  8
LAYER_1
 62
     0
 10
-6.729335898948662
 20
27.5490197686900693
 30
0.0
  0
VERTEX
  5
4803
  8
LAYER_1
 62
     0
 10
-6.7300877321920369
 20
27.5382497881528892
 30
0.0
  0
VERTEX
  5
4804
  8
LAYER_1
 62
     0
 10
-6.7308122328726849
 20
27.5273595264354292
 30
0.0
  0
VERTEX
  5
4805
  8
LAYER_1
 62
     0
 10
-6.731500523521647
 20
27.5164792305808206
 30
0.0
  0
VERTEX
  5
4806
  8
LAYER_1
 62
     0
 10
-6.7321437266699622
 20
27.5057391476321911
 30
0.0
  0
VERTEX
  5
4807
  8
LAYER_1
 62
     0
 10
-6.732732964848668
 20
27.4952695246327004
 30
0.0
  0
VERTEX
  5
4808
  8
LAYER_1
 62
     0
 10
-6.733792866015035
 20
27.4757674927822002
 30
0.0
  0
VERTEX
  5
4809
  8
LAYER_1
 62
     0
 10
-6.7337943414674744
 20
27.4706260480216216
 30
0.0
  0
VERTEX
  5
480A
  8
LAYER_1
 62
     0
 10
-6.7337801965456237
 20
27.4694796365719682
 30
0.0
  0
VERTEX
  5
480B
  8
LAYER_1
 62
     0
 10
-6.7337346489472854
 20
27.4684420347246601
 30
0.0
  0
VERTEX
  5
480C
  8
LAYER_1
 62
     0
 10
-6.7336540646062852
 20
27.4675084341349987
 30
0.0
  0
VERTEX
  5
480D
  8
LAYER_1
 62
     0
 10
-6.7335348094564544
 20
27.4666740264583105
 30
0.0
  0
VERTEX
  5
480E
  8
LAYER_1
 62
     0
 10
-6.7333732494316196
 20
27.46593400334989
 30
0.0
  0
VERTEX
  5
480F
  8
LAYER_1
 62
     0
 10
-6.7331657504656128
 20
27.4652835564650601
 30
0.0
  0
VERTEX
  5
4810
  8
LAYER_1
 62
     0
 10
-6.7329086784922634
 20
27.4647178774591403
 30
0.0
  0
VERTEX
  5
4811
  8
LAYER_1
 62
     0
 10
-6.732598399445398
 20
27.4642321579874213
 30
0.0
  0
VERTEX
  5
4812
  8
LAYER_1
 62
     0
 10
-6.7324221716237194
 20
27.464017780469181
 30
0.0
  0
VERTEX
  5
4813
  8
LAYER_1
 62
     0
 10
-6.7322312792588468
 20
27.4638215897052405
 30
0.0
  0
VERTEX
  5
4814
  8
LAYER_1
 62
     0
 10
-6.732025268092511
 20
27.4636429846524983
 30
0.0
  0
VERTEX
  5
4815
  8
LAYER_1
 62
     0
 10
-6.7318036838664401
 20
27.4634813642678886
 30
0.0
  0
VERTEX
  5
4816
  8
LAYER_1
 62
     0
 10
-6.7313119792020064
 20
27.4632066733306814
 30
0.0
  0
VERTEX
  5
4817
  8
LAYER_1
 62
     0
 10
-6.7307525311993732
 20
27.4629927085489314
 30
0.0
  0
VERTEX
  5
4818
  8
LAYER_1
 62
     0
 10
-6.7301217057923699
 20
27.4628346615779613
 30
0.0
  0
VERTEX
  5
4819
  8
LAYER_1
 62
     0
 10
-6.7294158689148293
 20
27.4627277240730692
 30
0.0
  0
VERTEX
  5
481A
  8
LAYER_1
 62
     0
 10
-6.7286313865005773
 20
27.4626670876895709
 30
0.0
  0
VERTEX
  5
481B
  8
LAYER_1
 62
     0
 10
-6.7277646244834433
 20
27.4626479440827787
 30
0.0
  0
VERTEX
  5
481C
  8
LAYER_1
 62
     0
 10
-6.7268317020358701
 20
27.4626903351747202
 30
0.0
  0
VERTEX
  5
481D
  8
LAYER_1
 62
     0
 10
-6.7263576077952454
 20
27.4627461721704798
 30
0.0
  0
VERTEX
  5
481E
  8
LAYER_1
 62
     0
 10
-6.7258714734545304
 20
27.462827635137959
 30
0.0
  0
VERTEX
  5
481F
  8
LAYER_1
 62
     0
 10
-6.7253680854470757
 20
27.462936622831041
 30
0.0
  0
VERTEX
  5
4820
  8
LAYER_1
 62
     0
 10
-6.7248422302062369
 20
27.4630750340036194
 30
0.0
  0
VERTEX
  5
4821
  8
LAYER_1
 62
     0
 10
-6.723702263757807
 20
27.4634477218028294
 30
0.0
  0
VERTEX
  5
4822
  8
LAYER_1
 62
     0
 10
-6.722409865576056
 20
27.4639608885667101
 30
0.0
  0
VERTEX
  5
4823
  8
LAYER_1
 62
     0
 10
-6.7209233271277951
 20
27.4646297243263895
 30
0.0
  0
VERTEX
  5
4824
  8
LAYER_1
 62
     0
 10
-6.7192009398798422
 20
27.4654694191130098
 30
0.0
  0
VERTEX
  5
4825
  8
LAYER_1
 62
     0
 10
-6.717200995299013
 20
27.4664951629576706
 30
0.0
  0
VERTEX
  5
4826
  8
LAYER_1
 62
     0
 10
-6.709831899372797
 20
27.4703423818325589
 30
0.0
  0
VERTEX
  5
4827
  8
LAYER_1
 62
     0
 10
-6.7050927557441362
 20
27.459315350731341
 30
0.0
  0
VERTEX
  5
4828
  8
LAYER_1
 62
     0
 10
-6.7027709991726168
 20
27.4539915142511397
 30
0.0
  0
VERTEX
  5
4829
  8
LAYER_1
 62
     0
 10
-6.699952714558826
 20
27.4476474615535011
 30
0.0
  0
VERTEX
  5
482A
  8
LAYER_1
 62
     0
 10
-6.6969936893134472
 20
27.4410784267651309
 30
0.0
  0
VERTEX
  5
482B
  8
LAYER_1
 62
     0
 10
-6.694249710847159
 20
27.4350796440127382
 30
0.0
  0
VERTEX
  5
482C
  8
LAYER_1
 62
     0
 10
-6.6881458095788462
 20
27.4218709683953712
 30
0.0
  0
VERTEX
  5
482D
  8
LAYER_1
 62
     0
 10
-6.6522900689003679
 20
27.3502453241444492
 30
0.0
  0
VERTEX
  5
482E
  8
LAYER_1
 62
     0
 10
-6.6268900710699228
 20
27.302731282908681
 30
0.0
  0
VERTEX
  5
482F
  8
LAYER_1
 62
     0
 10
-6.6184148779582852
 20
27.2878693262193686
 30
0.0
  0
VERTEX
  5
4830
  8
LAYER_1
 62
     0
 10
-6.6167127958943972
 20
27.2874609161757391
 30
0.0
  0
VERTEX
  5
4831
  8
LAYER_1
 62
     0
 10
-6.6163363832681528
 20
27.2873853380335305
 30
0.0
  0
VERTEX
  5
4832
  8
LAYER_1
 62
     0
 10
-6.615918530413528
 20
27.2873273236636713
 30
0.0
  0
VERTEX
  5
4833
  8
LAYER_1
 62
     0
 10
-6.6150141610556714
 20
27.2872654917237014
 30
0.0
  0
VERTEX
  5
4834
  8
LAYER_1
 62
     0
 10
-6.6141110018938791
 20
27.2872784313211909
 30
0.0
  0
VERTEX
  5
4835
  8
LAYER_1
 62
     0
 10
-6.6136946617843391
 20
27.2873138813731693
 30
0.0
  0
VERTEX
  5
4836
  8
LAYER_1
 62
     0
 10
-6.6133203670012133
 20
27.2873691534215297
 30
0.0
  0
VERTEX
  5
4837
  8
LAYER_1
 62
     0
 10
-6.6116300201719147
 20
27.2876858007109391
 30
0.0
  0
VERTEX
  5
4838
  8
LAYER_1
 62
     0
 10
-6.5968883313151609
 20
27.3018845932429493
 30
0.0
  0
VERTEX
  5
4839
  8
LAYER_1
 62
     0
 10
-6.5809708036914571
 20
27.2972212749435492
 30
0.0
  0
VERTEX
  5
483A
  8
LAYER_1
 62
     0
 10
-6.523528455331804
 20
27.2791062521031087
 30
0.0
  0
VERTEX
  5
483B
  8
LAYER_1
 62
     0
 10
-6.5093451594405316
 20
27.2748361395091692
 30
0.0
  0
VERTEX
  5
483C
  8
LAYER_1
 62
     0
 10
-6.4956826564452683
 20
27.2707811332740704
 30
0.0
  0
VERTEX
  5
483D
  8
LAYER_1
 62
     0
 10
-6.488689349711378
 20
27.2687388050992183
 30
0.0
  0
VERTEX
  5
483E
  8
LAYER_1
 62
     0
 10
-6.4827514796443966
 20
27.2670281912875296
 30
0.0
  0
VERTEX
  5
483F
  8
LAYER_1
 62
     0
 10
-6.470341095739534
 20
27.2634903556598189
 30
0.0
  0
VERTEX
  5
4840
  8
LAYER_1
 62
     0
 10
-6.4557193757540832
 20
27.2596022786713483
 30
0.0
  0
VERTEX
  5
4841
  8
LAYER_1
 62
     0
 10
-6.4307284385143753
 20
27.2371335394115484
 30
0.0
  0
VERTEX
  5
4842
  8
LAYER_1
 62
     0
 10
-6.380891609009109
 20
27.2371335394115484
 30
0.0
  0
VERTEX
  5
4843
  8
LAYER_1
 62
     0
 10
-6.3534580841308861
 20
27.2080577828344516
 30
0.0
  0
SEQEND
  5
4844
  8
LAYER_1
 62
     0
  0
ENDBLK
  5
F5E
  8
0
  0
BLOCK
  8
0
  2
A$C45DB898B
 70
     0
 10
0.0
 20
0.0
 30
0.0
  3
A$C45DB898B
  1

  0
POLYLINE
  5
34DF
  8
LAYER_1
 62
     0
 66
     1
 10
0.0
 20
0.0
 30
0.0
 70
     1
  0
VERTEX
  5
4845
  8
LAYER_1
 62
     0
 10
5.2510187839642342
 20
0.0000000012029754
 30
0.0
  0
VERTEX
  5
4846
  8
LAYER_1
 62
     0
 10
5.6193885092939651
 20
0.3904761916791659
 30
0.0
  0
VERTEX
  5
4847
  8
LAYER_1
 62
     0
 10
6.2889727317828656
 20
0.3906005080076971
 30
0.0
  0
VERTEX
  5
4848
  8
LAYER_1
 62
     0
 10
6.455639398449537
 20
0.5409976054276182
 30
0.0
  0
VERTEX
  5
4849
  8
LAYER_1
 62
     0
 10
6.5110709460685854
 20
0.5907547196635572
 30
0.0
  0
VERTEX
  5
484A
  8
LAYER_1
 62
     0
 10
6.5343224341638146
 20
0.6111110037847862
 30
0.0
  0
VERTEX
  5
484B
  8
LAYER_1
 62
     0
 10
6.5553417794019131
 20
0.6288605058865482
 30
0.0
  0
VERTEX
  5
484C
  8
LAYER_1
 62
     0
 10
6.5746870174971539
 20
0.6443092759526144
 30
0.0
  0
VERTEX
  5
484D
  8
LAYER_1
 62
     0
 10
6.5929161841638146
 20
0.6577633639667564
 30
0.0
  0
VERTEX
  5
484E
  8
LAYER_1
 62
     0
 10
6.6105873151161978
 20
0.669528819912745
 30
0.0
  0
VERTEX
  5
484F
  8
LAYER_1
 62
     0
 10
6.6193880033602461
 20
0.6748739514801101
 30
0.0
  0
VERTEX
  5
4850
  8
LAYER_1
 62
     0
 10
6.6282584460685854
 20
0.6799116937743513
 30
0.0
  0
VERTEX
  5
4851
  8
LAYER_1
 62
     0
 10
6.6464876127352461
 20
0.6892180355353461
 30
0.0
  0
VERTEX
  5
4852
  8
LAYER_1
 62
     0
 10
6.6658328508304834
 20
0.6977538951795001
 30
0.0
  0
VERTEX
  5
4853
  8
LAYER_1
 62
     0
 10
6.6868521960685854
 20
0.7058253226905851
 30
0.0
  0
VERTEX
  5
4854
  8
LAYER_1
 62
     0
 10
6.7101036841638146
 20
0.7137383680523725
 30
0.0
  0
VERTEX
  5
4855
  8
LAYER_1
 62
     0
 10
6.7361453508304834
 20
0.7217990812486313
 30
0.0
  0
VERTEX
  5
4856
  8
LAYER_1
 62
     0
 10
6.7655352317828656
 20
0.7303135122631332
 30
0.0
  0
VERTEX
  5
4857
  8
LAYER_1
 62
     0
 10
6.8365917794019131
 20
0.7499277276819543
 30
0.0
  0
VERTEX
  5
4858
  8
LAYER_1
 62
     0
 10
6.9352004103542937
 20
0.7772501722798293
 30
0.0
  0
VERTEX
  5
4859
  8
LAYER_1
 62
     0
 10
7.0452822555923857
 20
0.8083734425542481
 30
0.0
  0
VERTEX
  5
485A
  8
LAYER_1
 62
     0
 10
7.153399815116205
 20
0.8394660614589861
 30
0.0
  0
VERTEX
  5
485B
  8
LAYER_1
 62
     0
 10
7.2461155889257247
 20
0.8666965519478202
 30
0.0
  0
VERTEX
  5
485C
  8
LAYER_1
 62
     0
 10
7.4413536841638246
 20
0.9249323513792722
 30
0.0
  0
VERTEX
  5
485D
  8
LAYER_1
 62
     0
 10
8.2508774936876357
 20
1.1799629699240519
 30
0.0
  0
VERTEX
  5
485E
  8
LAYER_1
 62
     0
 10
8.5080203508304884
 20
1.2571402946137491
 30
0.0
  0
VERTEX
  5
485F
  8
LAYER_1
 62
     0
 10
8.5253373429831676
 20
1.2571428583458319
 30
0.0
  0
VERTEX
  5
4860
  8
LAYER_1
 62
     0
 10
8.7211140869369963
 20
1.0666666678696419
 30
0.0
  0
VERTEX
  5
4861
  8
LAYER_1
 62
     0
 10
8.7431386474551758
 20
1.0655382619800891
 30
0.0
  0
VERTEX
  5
4862
  8
LAYER_1
 62
     0
 10
8.7566510578370842
 20
1.065078961548902
 30
0.0
  0
VERTEX
  5
4863
  8
LAYER_1
 62
     0
 10
8.7679380046802251
 20
1.0653185499123921
 30
0.0
  0
VERTEX
  5
4864
  8
LAYER_1
 62
     0
 10
8.7774471064993485
 20
1.0664124155637951
 30
0.0
  0
VERTEX
  5
4865
  8
LAYER_1
 62
     0
 10
8.7816748463107785
 20
1.0673282612766031
 30
0.0
  0
VERTEX
  5
4866
  8
LAYER_1
 62
     0
 10
8.7856259818092575
 20
1.0685159469963541
 30
0.0
  0
VERTEX
  5
4867
  8
LAYER_1
 62
     0
 10
8.7893564653091154
 20
1.069994896284703
 30
0.0
  0
VERTEX
  5
4868
  8
LAYER_1
 62
     0
 10
8.7929222491247252
 20
1.0717845327033051
 30
0.0
  0
VERTEX
  5
4869
  8
LAYER_1
 62
     0
 10
8.7963792855704064
 20
1.073904279813815
 30
0.0
  0
VERTEX
  5
486A
  8
LAYER_1
 62
     0
 10
8.7997835269605282
 20
1.076373561177888
 30
0.0
  0
VERTEX
  5
486B
  8
LAYER_1
 62
     0
 10
8.8066574338314467
 20
1.082438420913342
 30
0.0
  0
VERTEX
  5
486C
  8
LAYER_1
 62
     0
 10
8.813991588252275
 20
1.0901345004029079
 30
0.0
  0
VERTEX
  5
486D
  8
LAYER_1
 62
     0
 10
8.8342485399597752
 20
1.112623703023689
 30
0.0
  0
VERTEX
  5
486E
  8
LAYER_1
 62
     0
 10
8.9247131397302084
 20
1.2777404235419041
 30
0.0
  0
VERTEX
  5
486F
  8
LAYER_1
 62
     0
 10
9.0109778011078348
 20
1.436318393122179
 30
0.0
  0
VERTEX
  5
4870
  8
LAYER_1
 62
     0
 10
9.0913446766572967
 20
1.5857142869172609
 30
0.0
  0
VERTEX
  5
4871
  8
LAYER_1
 62
     0
 10
9.1675116138139643
 20
1.7285714297744039
 30
0.0
  0
VERTEX
  5
4872
  8
LAYER_1
 62
     0
 10
9.3323709647428998
 20
2.0476190488220221
 30
0.0
  0
VERTEX
  5
4873
  8
LAYER_1
 62
     0
 10
9.4067268497805365
 20
2.192684389140628
 30
0.0
  0
VERTEX
  5
4874
  8
LAYER_1
 62
     0
 10
9.4873115735094551
 20
2.3518138518185809
 30
0.0
  0
VERTEX
  5
4875
  8
LAYER_1
 62
     0
 10
9.5644141856281664
 20
2.5057290280105269
 30
0.0
  0
VERTEX
  5
4876
  8
LAYER_1
 62
     0
 10
9.6283237358352238
 20
2.6351515088711022
 30
0.0
  0
VERTEX
  5
4877
  8
LAYER_1
 62
     0
 10
9.7594171559986265
 20
2.9036363498725608
 30
0.0
  0
VERTEX
  5
4878
  8
LAYER_1
 62
     0
 10
9.9202875982356566
 20
3.252380953583927
 30
0.0
  0
VERTEX
  5
4879
  8
LAYER_1
 62
     0
 10
10.00631074092645
 20
3.452380953583928
 30
0.0
  0
VERTEX
  5
487A
  8
LAYER_1
 62
     0
 10
10.0353469598167404
 20
3.5231564229525629
 30
0.0
  0
VERTEX
  5
487B
  8
LAYER_1
 62
     0
 10
10.1359533357731202
 20
3.4711020216015789
 30
0.0
  0
VERTEX
  5
487C
  8
LAYER_1
 62
     0
 10
10.1568839376660396
 20
3.460510102674534
 30
0.0
  0
VERTEX
  5
487D
  8
LAYER_1
 62
     0
 10
10.1764595098897495
 20
3.4511095703449262
 30
0.0
  0
VERTEX
  5
487E
  8
LAYER_1
 62
     0
 10
10.1947413644623506
 20
3.4428909924351898
 30
0.0
  0
VERTEX
  5
487F
  8
LAYER_1
 62
     0
 10
10.2117908134019206
 20
3.435844936767757
 30
0.0
  0
VERTEX
  5
4880
  8
LAYER_1
 62
     0
 10
10.2276691687265799
 20
3.4299619711650622
 30
0.0
  0
VERTEX
  5
4881
  8
LAYER_1
 62
     0
 10
10.2424377424544097
 20
3.4252326634495369
 30
0.0
  0
VERTEX
  5
4882
  8
LAYER_1
 62
     0
 10
10.2561578466035304
 20
3.4216475814436178
 30
0.0
  0
VERTEX
  5
4883
  8
LAYER_1
 62
     0
 10
10.2688907931920195
 20
3.4191972929697352
 30
0.0
  0
VERTEX
  5
4884
  8
LAYER_1
 62
     0
 10
10.2806978942379903
 20
3.4178723658503221
 30
0.0
  0
VERTEX
  5
4885
  8
LAYER_1
 62
     0
 10
10.2916404617595401
 20
3.4176633679078132
 30
0.0
  0
VERTEX
  5
4886
  8
LAYER_1
 62
     0
 10
10.3017798077747695
 20
3.4185608669646408
 30
0.0
  0
VERTEX
  5
4887
  8
LAYER_1
 62
     0
 10
10.30656743272319
 20
3.4194216053123161
 30
0.0
  0
VERTEX
  5
4888
  8
LAYER_1
 62
     0
 10
10.3111772443017902
 20
3.4205554308432369
 30
0.0
  0
VERTEX
  5
4889
  8
LAYER_1
 62
     0
 10
10.3156169065128704
 20
3.4219611645352099
 30
0.0
  0
VERTEX
  5
488A
  8
LAYER_1
 62
     0
 10
10.3198940833586796
 20
3.4236376273660389
 30
0.0
  0
VERTEX
  5
488B
  8
LAYER_1
 62
     0
 10
10.3240164388414808
 20
3.4255836403135249
 30
0.0
  0
VERTEX
  5
488C
  8
LAYER_1
 62
     0
 10
10.3279916369635405
 20
3.4277980243554751
 30
0.0
  0
VERTEX
  5
488D
  8
LAYER_1
 62
     0
 10
10.3355312171344895
 20
3.433027189633981
 30
0.0
  0
VERTEX
  5
488E
  8
LAYER_1
 62
     0
 10
10.3425741358895902
 20
3.4393156910239902
 30
0.0
  0
VERTEX
  5
488F
  8
LAYER_1
 62
     0
 10
10.3628422066629895
 20
3.4595837617973868
 30
0.0
  0
VERTEX
  5
4890
  8
LAYER_1
 62
     0
 10
10.3500152245358201
 20
3.7380952392982132
 30
0.0
  0
VERTEX
  5
4891
  8
LAYER_1
 62
     0
 10
10.3360042265107097
 20
3.990476191679166
 30
0.0
  0
VERTEX
  5
4892
  8
LAYER_1
 62
     0
 10
10.3253417613007592
 20
4.1722460462967401
 30
0.0
  0
VERTEX
  5
4893
  8
LAYER_1
 62
     0
 10
10.3131947802374793
 20
4.3611848108658551
 30
0.0
  0
VERTEX
  5
4894
  8
LAYER_1
 62
     0
 10
10.2998699385908292
 20
4.5532923627301223
 30
0.0
  0
VERTEX
  5
4895
  8
LAYER_1
 62
     0
 10
10.2856738916308306
 20
4.744568579233154
 30
0.0
  0
VERTEX
  5
4896
  8
LAYER_1
 62
     0
 10
10.2709132946274995
 20
4.9310133377185599
 30
0.0
  0
VERTEX
  5
4897
  8
LAYER_1
 62
     0
 10
10.2558948028508308
 20
5.1086265155299531
 30
0.0
  0
VERTEX
  5
4898
  8
LAYER_1
 62
     0
 10
10.2409250715707998
 20
5.2734079900109423
 30
0.0
  0
VERTEX
  5
4899
  8
LAYER_1
 62
     0
 10
10.2335543208889206
 20
5.3497368001724128
 30
0.0
  0
VERTEX
  5
489A
  8
LAYER_1
 62
     0
 10
10.22631075605746
 20
5.4213576385051407
 30
0.0
  0
VERTEX
  5
489B
  8
LAYER_1
 62
     0
 10
10.2068085382021305
 20
5.6093819424739708
 30
0.0
  0
VERTEX
  5
489C
  8
LAYER_1
 62
     0
 10
10.2169178425098099
 20
5.6257391404464174
 30
0.0
  0
VERTEX
  5
489D
  8
LAYER_1
 62
     0
 10
10.4662064323642596
 20
5.7165480351424476
 30
0.0
  0
VERTEX
  5
489E
  8
LAYER_1
 62
     0
 10
10.4811505695508504
 20
5.7393556713217491
 30
0.0
  0
VERTEX
  5
489F
  8
LAYER_1
 62
     0
 10
10.4857019321245009
 20
5.7466310102351006
 30
0.0
  0
VERTEX
  5
48A0
  8
LAYER_1
 62
     0
 10
10.4888005371337591
 20
5.752804728071502
 30
0.0
  0
VERTEX
  5
48A1
  8
LAYER_1
 62
     0
 10
10.4897780472481994
 20
5.7556516673031721
 30
0.0
  0
VERTEX
  5
48A2
  8
LAYER_1
 62
     0
 10
10.4903599580072804
 20
5.7584310271263934
 30
0.0
  0
VERTEX
  5
48A3
  8
LAYER_1
 62
     0
 10
10.4905354660896197
 20
5.7612120828281013
 30
0.0
  0
VERTEX
  5
48A4
  8
LAYER_1
 62
     0
 10
10.4902937681737498
 20
5.7640641096952212
 30
0.0
  0
VERTEX
  5
48A5
  8
LAYER_1
 62
     0
 10
10.4896240609383007
 20
5.7670563830146824
 30
0.0
  0
VERTEX
  5
48A6
  8
LAYER_1
 62
     0
 10
10.4885155410618207
 20
5.770258178073421
 30
0.0
  0
VERTEX
  5
48A7
  8
LAYER_1
 62
     0
 10
10.4849388501001695
 20
5.7775674345564356
 30
0.0
  0
VERTEX
  5
48A8
  8
LAYER_1
 62
     0
 10
10.4794772687174902
 20
5.7865460814397078
 30
0.0
  0
VERTEX
  5
48A9
  8
LAYER_1
 62
     0
 10
10.4720443703424007
 20
5.7977483210186787
 30
0.0
  0
VERTEX
  5
48AA
  8
LAYER_1
 62
     0
 10
10.4479940339473991
 20
5.8333333345363094
 30
0.0
  0
VERTEX
  5
48AB
  8
LAYER_1
 62
     0
 10
10.3313655510398306
 20
5.9619047631077358
 30
0.0
  0
VERTEX
  5
48AC
  8
LAYER_1
 62
     0
 10
10.2767358338597408
 20
6.0217658187693459
 30
0.0
  0
VERTEX
  5
48AD
  8
LAYER_1
 62
     0
 10
10.2142071396079004
 20
6.0897096407617068
 30
0.0
  0
VERTEX
  5
48AE
  8
LAYER_1
 62
     0
 10
10.1514924066187806
 20
6.1573843544532574
 30
0.0
  0
VERTEX
  5
48AF
  8
LAYER_1
 62
     0
 10
10.0963045732268792
 20
6.216438085212439
 30
0.0
  0
VERTEX
  5
48B0
  8
LAYER_1
 62
     0
 10
9.9778720783215231
 20
6.3423999787457124
 30
0.0
  0
VERTEX
  5
48B1
  8
LAYER_1
 62
     0
 10
10.0326032001712697
 20
6.3666046782352597
 30
0.0
  0
VERTEX
  5
48B2
  8
LAYER_1
 62
     0
 10
10.0445586888823506
 20
6.3721924257569889
 30
0.0
  0
VERTEX
  5
48B3
  8
LAYER_1
 62
     0
 10
10.0575701438850196
 20
6.3788078443353742
 30
0.0
  0
VERTEX
  5
48B4
  8
LAYER_1
 62
     0
 10
10.0712199301280005
 20
6.3862058557993509
 30
0.0
  0
VERTEX
  5
48B5
  8
LAYER_1
 62
     0
 10
10.0850904125600103
 20
6.3941413819778719
 30
0.0
  0
VERTEX
  5
48B6
  8
LAYER_1
 62
     0
 10
10.0987639561297406
 20
6.4023693446998777
 30
0.0
  0
VERTEX
  5
48B7
  8
LAYER_1
 62
     0
 10
10.1118229257859191
 20
6.4106446657943179
 30
0.0
  0
VERTEX
  5
48B8
  8
LAYER_1
 62
     0
 10
10.1238496864772394
 20
6.4187222670901374
 30
0.0
  0
VERTEX
  5
48B9
  8
LAYER_1
 62
     0
 10
10.1344266031524199
 20
6.4263570704162749
 30
0.0
  0
VERTEX
  5
48BA
  8
LAYER_1
 62
     0
 10
10.1435192199440802
 20
6.4334793787813407
 30
0.0
  0
VERTEX
  5
48BB
  8
LAYER_1
 62
     0
 10
10.1526651459430806
 20
6.4411508252906806
 30
0.0
  0
VERTEX
  5
48BC
  8
LAYER_1
 62
     0
 10
10.1618487423471002
 20
6.4493467604355201
 30
0.0
  0
VERTEX
  5
48BD
  8
LAYER_1
 62
     0
 10
10.1710543703539003
 20
6.4580425347070909
 30
0.0
  0
VERTEX
  5
48BE
  8
LAYER_1
 62
     0
 10
10.1802663911611493
 20
6.4672134985966263
 30
0.0
  0
VERTEX
  5
48BF
  8
LAYER_1
 62
     0
 10
10.1894691659665799
 20
6.4768350025953572
 30
0.0
  0
VERTEX
  5
48C0
  8
LAYER_1
 62
     0
 10
10.2077844223628205
 20
6.4973310328853229
 30
0.0
  0
VERTEX
  5
48C1
  8
LAYER_1
 62
     0
 10
10.2258750291242606
 20
6.519333429506843
 30
0.0
  0
VERTEX
  5
48C2
  8
LAYER_1
 62
     0
 10
10.2436158758325906
 20
6.542644996389761
 30
0.0
  0
VERTEX
  5
48C3
  8
LAYER_1
 62
     0
 10
10.26088185206949
 20
6.5670685374639239
 30
0.0
  0
VERTEX
  5
48C4
  8
LAYER_1
 62
     0
 10
10.2775478474166508
 20
6.5924068566591867
 30
0.0
  0
VERTEX
  5
48C5
  8
LAYER_1
 62
     0
 10
10.2934887514557207
 20
6.6184627579053892
 30
0.0
  0
VERTEX
  5
48C6
  8
LAYER_1
 62
     0
 10
10.3085794537684095
 20
6.6450390451323864
 30
0.0
  0
VERTEX
  5
48C7
  8
LAYER_1
 62
     0
 10
10.3226948439363699
 20
6.6719385222700218
 30
0.0
  0
VERTEX
  5
48C8
  8
LAYER_1
 62
     0
 10
10.3357098115412906
 20
6.6989639932481504
 30
0.0
  0
VERTEX
  5
48C9
  8
LAYER_1
 62
     0
 10
10.3474992461648494
 20
6.7259182619966129
 30
0.0
  0
VERTEX
  5
48CA
  8
LAYER_1
 62
     0
 10
10.3579380373887098
 20
6.7526041324452608
 30
0.0
  0
VERTEX
  5
48CB
  8
LAYER_1
 62
     0
 10
10.3626118447200408
 20
6.7657847945352341
 30
0.0
  0
VERTEX
  5
48CC
  8
LAYER_1
 62
     0
 10
10.3669010747945691
 20
6.7788244085239437
 30
0.0
  0
VERTEX
  5
48CD
  8
LAYER_1
 62
     0
 10
10.3707900888100202
 20
6.7916983249026268
 30
0.0
  0
VERTEX
  5
48CE
  8
LAYER_1
 62
     0
 10
10.3742632479640999
 20
6.8043818941625078
 30
0.0
  0
VERTEX
  5
48CF
  8
LAYER_1
 62
     0
 10
10.3769536569433498
 20
6.8155252918310021
 30
0.0
  0
VERTEX
  5
48D0
  8
LAYER_1
 62
     0
 10
10.379388145778
 20
6.8272092403125813
 30
0.0
  0
VERTEX
  5
48D1
  8
LAYER_1
 62
     0
 10
10.3815662818372996
 20
6.8394403567323021
 30
0.0
  0
VERTEX
  5
48D2
  8
LAYER_1
 62
     0
 10
10.3834876324904997
 20
6.8522252582152152
 30
0.0
  0
VERTEX
  5
48D3
  8
LAYER_1
 62
     0
 10
10.3851517651068992
 20
6.865570561886372
 30
0.0
  0
VERTEX
  5
48D4
  8
LAYER_1
 62
     0
 10
10.3865582470557491
 20
6.8794828848708294
 30
0.0
  0
VERTEX
  5
48D5
  8
LAYER_1
 62
     0
 10
10.3885965284279003
 20
6.9090350572798469
 30
0.0
  0
VERTEX
  5
48D6
  8
LAYER_1
 62
     0
 10
10.3895990155610498
 20
6.9409347124426963
 30
0.0
  0
VERTEX
  5
48D7
  8
LAYER_1
 62
     0
 10
10.3895622474093994
 20
6.9752347873597973
 30
0.0
  0
VERTEX
  5
48D8
  8
LAYER_1
 62
     0
 10
10.3884827629270404
 20
7.0119882190315703
 30
0.0
  0
VERTEX
  5
48D9
  8
LAYER_1
 62
     0
 10
10.3863571010681692
 20
7.0512479444584422
 30
0.0
  0
VERTEX
  5
48DA
  8
LAYER_1
 62
     0
 10
10.3831818007868701
 20
7.093066900640836
 30
0.0
  0
VERTEX
  5
48DB
  8
LAYER_1
 62
     0
 10
10.3789534010373394
 20
7.1374980245791733
 30
0.0
  0
VERTEX
  5
48DC
  8
LAYER_1
 62
     0
 10
10.3736684407736899
 20
7.1845942532738789
 30
0.0
  0
VERTEX
  5
48DD
  8
LAYER_1
 62
     0
 10
10.3673234589500805
 20
7.234408523725377
 30
0.0
  0
VERTEX
  5
48DE
  8
LAYER_1
 62
     0
 10
10.3599149945206293
 20
7.2869937729340872
 30
0.0
  0
VERTEX
  5
48DF
  8
LAYER_1
 62
     0
 10
10.3514395864395095
 20
7.3424029379004372
 30
0.0
  0
VERTEX
  5
48E0
  8
LAYER_1
 62
     0
 10
10.3418937736608392
 20
7.4006889556248456
 30
0.0
  0
VERTEX
  5
48E1
  8
LAYER_1
 62
     0
 10
10.3312740951388005
 20
7.4619047631077366
 30
0.0
  0
VERTEX
  5
48E2
  8
LAYER_1
 62
     0
 10
10.3024616087693293
 20
7.6238095250124998
 30
0.0
  0
VERTEX
  5
48E3
  8
LAYER_1
 62
     0
 10
10.1867457174118101
 20
8.1476190488220244
 30
0.0
  0
VERTEX
  5
48E4
  8
LAYER_1
 62
     0
 10
10.1622654313379197
 20
8.1952380964410718
 30
0.0
  0
VERTEX
  5
48E5
  8
LAYER_1
 62
     0
 10
10.0065714625127793
 20
8.3481452583113072
 30
0.0
  0
VERTEX
  5
48E6
  8
LAYER_1
 62
     0
 10
9.9709591117282557
 20
8.3828260838068012
 30
0.0
  0
VERTEX
  5
48E7
  8
LAYER_1
 62
     0
 10
9.9357709657862117
 20
8.4165002007253307
 30
0.0
  0
VERTEX
  5
48E8
  8
LAYER_1
 62
     0
 10
9.9009872807723553
 20
8.4491841261509268
 30
0.0
  0
VERTEX
  5
48E9
  8
LAYER_1
 62
     0
 10
9.8665883127723291
 20
8.4808943771676315
 30
0.0
  0
VERTEX
  5
48EA
  8
LAYER_1
 62
     0
 10
9.8325543178718355
 20
8.5116474708594865
 30
0.0
  0
VERTEX
  5
48EB
  8
LAYER_1
 62
     0
 10
9.7988655521565455
 20
8.5414599243105283
 30
0.0
  0
VERTEX
  5
48EC
  8
LAYER_1
 62
     0
 10
9.7655022717121227
 20
8.5703482546048004
 30
0.0
  0
VERTEX
  5
48ED
  8
LAYER_1
 62
     0
 10
9.7324447326242751
 20
8.5983289788263395
 30
0.0
  0
VERTEX
  5
48EE
  8
LAYER_1
 62
     0
 10
9.6996731909786522
 20
8.6254186140591855
 30
0.0
  0
VERTEX
  5
48EF
  8
LAYER_1
 62
     0
 10
9.6671679028609567
 20
8.6516336773873803
 30
0.0
  0
VERTEX
  5
48F0
  8
LAYER_1
 62
     0
 10
9.6349091243568559
 20
8.6769906858949604
 30
0.0
  0
VERTEX
  5
48F1
  8
LAYER_1
 62
     0
 10
9.6028771115520151
 20
8.701506156665971
 30
0.0
  0
VERTEX
  5
48F2
  8
LAYER_1
 62
     0
 10
9.5710521205321335
 20
8.7251966067844471
 30
0.0
  0
VERTEX
  5
48F3
  8
LAYER_1
 62
     0
 10
9.5394144073828748
 20
8.7480785533344303
 30
0.0
  0
VERTEX
  5
48F4
  8
LAYER_1
 62
     0
 10
9.507944228189924
 20
8.7701685133999625
 30
0.0
  0
VERTEX
  5
48F5
  8
LAYER_1
 62
     0
 10
9.476621839038966
 20
8.7914830040650802
 30
0.0
  0
VERTEX
  5
48F6
  8
LAYER_1
 62
     0
 10
9.4445532231066558
 20
8.8126992566772593
 30
0.0
  0
VERTEX
  5
48F7
  8
LAYER_1
 62
     0
 10
9.4139637005544436
 20
8.8323735044365232
 30
0.0
  0
VERTEX
  5
48F8
  8
LAYER_1
 62
     0
 10
9.3846406663139632
 20
8.8506035712679907
 30
0.0
  0
VERTEX
  5
48F9
  8
LAYER_1
 62
     0
 10
9.3563715153168658
 20
8.8674872810967802
 30
0.0
  0
VERTEX
  5
48FA
  8
LAYER_1
 62
     0
 10
9.3289436424947745
 20
8.8831224578480263
 30
0.0
  0
VERTEX
  5
48FB
  8
LAYER_1
 62
     0
 10
9.3021444427793032
 20
8.8976069254468424
 30
0.0
  0
VERTEX
  5
48FC
  8
LAYER_1
 62
     0
 10
9.2757613111021051
 20
8.9110385078183576
 30
0.0
  0
VERTEX
  5
48FD
  8
LAYER_1
 62
     0
 10
9.2495816423948032
 20
8.9235150288876888
 30
0.0
  0
VERTEX
  5
48FE
  8
LAYER_1
 62
     0
 10
9.2233928315890488
 20
8.9351343125799616
 30
0.0
  0
VERTEX
  5
48FF
  8
LAYER_1
 62
     0
 10
9.1969822736164453
 20
8.9459941828203036
 30
0.0
  0
VERTEX
  5
4900
  8
LAYER_1
 62
     0
 10
9.1701373634086565
 20
8.9561924635338315
 30
0.0
  0
VERTEX
  5
4901
  8
LAYER_1
 62
     0
 10
9.1426454958972982
 20
8.9658269786456692
 30
0.0
  0
VERTEX
  5
4902
  8
LAYER_1
 62
     0
 10
9.1142940660140077
 20
8.9749955520809426
 30
0.0
  0
VERTEX
  5
4903
  8
LAYER_1
 62
     0
 10
9.0848704686904131
 20
8.9837960077647772
 30
0.0
  0
VERTEX
  5
4904
  8
LAYER_1
 62
     0
 10
9.054162098858157
 20
8.992326169622288
 30
0.0
  0
VERTEX
  5
4905
  8
LAYER_1
 62
     0
 10
9.0219563514488748
 20
9.0006838615786062
 30
0.0
  0
VERTEX
  5
4906
  8
LAYER_1
 62
     0
 10
8.9866938209953346
 20
9.0093969167643504
 30
0.0
  0
VERTEX
  5
4907
  8
LAYER_1
 62
     0
 10
8.9526676724641554
 20
9.0174810944632302
 30
0.0
  0
VERTEX
  5
4908
  8
LAYER_1
 62
     0
 10
8.9198261445558167
 20
9.0249330683361357
 30
0.0
  0
VERTEX
  5
4909
  8
LAYER_1
 62
     0
 10
8.8881174759707982
 20
9.0317495120439641
 30
0.0
  0
VERTEX
  5
490A
  8
LAYER_1
 62
     0
 10
8.8574899054095653
 20
9.0379270992476162
 30
0.0
  0
VERTEX
  5
490B
  8
LAYER_1
 62
     0
 10
8.8278916715726048
 20
9.0434625036079801
 30
0.0
  0
VERTEX
  5
490C
  8
LAYER_1
 62
     0
 10
8.7992710131603964
 20
9.0483523987859531
 30
0.0
  0
VERTEX
  5
490D
  8
LAYER_1
 62
     0
 10
8.7715761688734162
 20
9.052593458442427
 30
0.0
  0
VERTEX
  5
490E
  8
LAYER_1
 62
     0
 10
8.7447553774121545
 20
9.0561823562383044
 30
0.0
  0
VERTEX
  5
490F
  8
LAYER_1
 62
     0
 10
8.7187568774770767
 20
9.0591157658344699
 30
0.0
  0
VERTEX
  5
4910
  8
LAYER_1
 62
     0
 10
8.6935289077686662
 20
9.0613903608918278
 30
0.0
  0
VERTEX
  5
4911
  8
LAYER_1
 62
     0
 10
8.6690197069874042
 20
9.0630028150712665
 30
0.0
  0
VERTEX
  5
4912
  8
LAYER_1
 62
     0
 10
8.6451775138337759
 20
9.0639498020336902
 30
0.0
  0
VERTEX
  5
4913
  8
LAYER_1
 62
     0
 10
8.6219505670082448
 20
9.0642279954399836
 30
0.0
  0
VERTEX
  5
4914
  8
LAYER_1
 62
     0
 10
8.599287105211296
 20
9.0638340689510457
 30
0.0
  0
VERTEX
  5
4915
  8
LAYER_1
 62
     0
 10
8.5771353671434163
 20
9.0627646962277755
 30
0.0
  0
VERTEX
  5
4916
  8
LAYER_1
 62
     0
 10
8.5554435915050853
 20
9.0610165509310647
 30
0.0
  0
VERTEX
  5
4917
  8
LAYER_1
 62
     0
 10
8.5341600169967649
 20
9.0585863067218053
 30
0.0
  0
VERTEX
  5
4918
  8
LAYER_1
 62
     0
 10
8.5132328823189454
 20
9.0554706372608997
 30
0.0
  0
VERTEX
  5
4919
  8
LAYER_1
 62
     0
 10
8.4926104261721171
 20
9.0516662162092345
 30
0.0
  0
VERTEX
  5
491A
  8
LAYER_1
 62
     0
 10
8.4722408872567385
 20
9.0471697172277175
 30
0.0
  0
VERTEX
  5
491B
  8
LAYER_1
 62
     0
 10
8.4520725042733034
 20
9.0419778139772262
 30
0.0
  0
VERTEX
  5
491C
  8
LAYER_1
 62
     0
 10
8.4320535159222842
 20
9.0360871801186686
 30
0.0
  0
VERTEX
  5
491D
  8
LAYER_1
 62
     0
 10
8.4121321609041573
 20
9.0294944893129347
 30
0.0
  0
VERTEX
  5
491E
  8
LAYER_1
 62
     0
 10
8.3922566779194057
 20
9.0221964152209235
 30
0.0
  0
VERTEX
  5
491F
  8
LAYER_1
 62
     0
 10
8.3723753056685162
 20
9.0141896315035233
 30
0.0
  0
VERTEX
  5
4920
  8
LAYER_1
 62
     0
 10
8.3524362828519543
 20
9.0054708118216364
 30
0.0
  0
VERTEX
  5
4921
  8
LAYER_1
 62
     0
 10
8.3323878481702067
 20
8.9960366298361532
 30
0.0
  0
VERTEX
  5
4922
  8
LAYER_1
 62
     0
 10
8.3121782403237461
 20
8.9858837592079759
 30
0.0
  0
VERTEX
  5
4923
  8
LAYER_1
 62
     0
 10
8.2917556980130662
 20
8.9750088735979894
 30
0.0
  0
VERTEX
  5
4924
  8
LAYER_1
 62
     0
 10
8.2710684599386202
 20
8.9634086466670944
 30
0.0
  0
VERTEX
  5
4925
  8
LAYER_1
 62
     0
 10
8.2500647648009178
 20
8.951079752076188
 30
0.0
  0
VERTEX
  5
4926
  8
LAYER_1
 62
     0
 10
8.2264432296817063
 20
8.9366036528707831
 30
0.0
  0
VERTEX
  5
4927
  8
LAYER_1
 62
     0
 10
8.2014830815206885
 20
8.9207126363112206
 30
0.0
  0
VERTEX
  5
4928
  8
LAYER_1
 62
     0
 10
8.1754222763308171
 20
8.9035840533961714
 30
0.0
  0
VERTEX
  5
4929
  8
LAYER_1
 62
     0
 10
8.1484987701250766
 20
8.8853952551243278
 30
0.0
  0
VERTEX
  5
492A
  8
LAYER_1
 62
     0
 10
8.1209505189164233
 20
8.8663235924943624
 30
0.0
  0
VERTEX
  5
492B
  8
LAYER_1
 62
     0
 10
8.0930154787178452
 20
8.8465464165049621
 30
0.0
  0
VERTEX
  5
492C
  8
LAYER_1
 62
     0
 10
8.0649316055423022
 20
8.8262410781548066
 30
0.0
  0
VERTEX
  5
492D
  8
LAYER_1
 62
     0
 10
8.0369368554027645
 20
8.8055849284425776
 30
0.0
  0
VERTEX
  5
492E
  8
LAYER_1
 62
     0
 10
8.0092691843122061
 20
8.7847553183669564
 30
0.0
  0
VERTEX
  5
492F
  8
LAYER_1
 62
     0
 10
7.9821665482836037
 20
8.7639295989266213
 30
0.0
  0
VERTEX
  5
4930
  8
LAYER_1
 62
     0
 10
7.9558669033299161
 20
8.7432851211202571
 30
0.0
  0
VERTEX
  5
4931
  8
LAYER_1
 62
     0
 10
7.930608205464118
 20
8.7229992359465456
 30
0.0
  0
VERTEX
  5
4932
  8
LAYER_1
 62
     0
 10
7.9066284106991844
 20
8.7032492944041628
 30
0.0
  0
VERTEX
  5
4933
  8
LAYER_1
 62
     0
 10
7.8841654750480847
 20
8.6842126474917958
 30
0.0
  0
VERTEX
  5
4934
  8
LAYER_1
 62
     0
 10
7.863457354523784
 20
8.6660666462081242
 30
0.0
  0
VERTEX
  5
4935
  8
LAYER_1
 62
     0
 10
7.8447420051392562
 20
8.6489886415518331
 30
0.0
  0
VERTEX
  5
4936
  8
LAYER_1
 62
     0
 10
7.771939849924216
 20
8.5809523821553597
 30
0.0
  0
VERTEX
  5
4937
  8
LAYER_1
 62
     0
 10
7.7550431645998152
 20
8.5809523821553597
 30
0.0
  0
VERTEX
  5
4938
  8
LAYER_1
 62
     0
 10
7.6640312089892246
 20
8.6743938582791404
 30
0.0
  0
VERTEX
  5
4939
  8
LAYER_1
 62
     0
 10
7.6482702817040753
 20
8.6903543311883666
 30
0.0
  0
VERTEX
  5
493A
  8
LAYER_1
 62
     0
 10
7.6323671511065738
 20
8.7060209324947628
 30
0.0
  0
VERTEX
  5
493B
  8
LAYER_1
 62
     0
 10
7.6163313823351153
 20
8.7213875895929718
 30
0.0
  0
VERTEX
  5
493C
  8
LAYER_1
 62
     0
 10
7.6001725405280922
 20
8.7364482298776398
 30
0.0
  0
VERTEX
  5
493D
  8
LAYER_1
 62
     0
 10
7.5839001908239254
 20
8.7511967807434008
 30
0.0
  0
VERTEX
  5
493E
  8
LAYER_1
 62
     0
 10
7.5675238983609949
 20
8.7656271695848957
 30
0.0
  0
VERTEX
  5
493F
  8
LAYER_1
 62
     0
 10
7.5510532282777048
 20
8.7797333237967727
 30
0.0
  0
VERTEX
  5
4940
  8
LAYER_1
 62
     0
 10
7.5344977457124642
 20
8.7935091707736657
 30
0.0
  0
VERTEX
  5
4941
  8
LAYER_1
 62
     0
 10
7.5178670158036658
 20
8.8069486379102155
 30
0.0
  0
VERTEX
  5
4942
  8
LAYER_1
 62
     0
 10
7.5011706036897152
 20
8.8200456526010722
 30
0.0
  0
VERTEX
  5
4943
  8
LAYER_1
 62
     0
 10
7.4844180745090041
 20
8.832794142240866
 30
0.0
  0
VERTEX
  5
4944
  8
LAYER_1
 62
     0
 10
7.4676189933999551
 20
8.8451880342242433
 30
0.0
  0
VERTEX
  5
4945
  8
LAYER_1
 62
     0
 10
7.4507829255009446
 20
8.8572212559458432
 30
0.0
  0
VERTEX
  5
4946
  8
LAYER_1
 62
     0
 10
7.4339194359503864
 20
8.868887734800305
 30
0.0
  0
VERTEX
  5
4947
  8
LAYER_1
 62
     0
 10
7.417038089886673
 20
8.8801813981822768
 30
0.0
  0
VERTEX
  5
4948
  8
LAYER_1
 62
     0
 10
7.4001484524482128
 20
8.8910961734863907
 30
0.0
  0
VERTEX
  5
4949
  8
LAYER_1
 62
     0
 10
7.3832600887734037
 20
8.9016259881072912
 30
0.0
  0
VERTEX
  5
494A
  8
LAYER_1
 62
     0
 10
7.3663825640006548
 20
8.9117647694396211
 30
0.0
  0
VERTEX
  5
494B
  8
LAYER_1
 62
     0
 10
7.3495254432683552
 20
8.9215064448780197
 30
0.0
  0
VERTEX
  5
494C
  8
LAYER_1
 62
     0
 10
7.3326982917149053
 20
8.9308449418171261
 30
0.0
  0
VERTEX
  5
494D
  8
LAYER_1
 62
     0
 10
7.3159106744787081
 20
8.9397741876515866
 30
0.0
  0
VERTEX
  5
494E
  8
LAYER_1
 62
     0
 10
7.2991721566981624
 20
8.9482881097760352
 30
0.0
  0
VERTEX
  5
494F
  8
LAYER_1
 62
     0
 10
7.2824923035116838
 20
8.9563806355851163
 30
0.0
  0
VERTEX
  5
4950
  8
LAYER_1
 62
     0
 10
7.2658806800576548
 20
8.9640456924734764
 30
0.0
  0
VERTEX
  5
4951
  8
LAYER_1
 62
     0
 10
7.2493468514744741
 20
8.9712772078357421
 30
0.0
  0
VERTEX
  5
4952
  8
LAYER_1
 62
     0
 10
7.2329003829005671
 20
8.9780691090665705
 30
0.0
  0
VERTEX
  5
4953
  8
LAYER_1
 62
     0
 10
7.2165508394743041
 20
8.9844153235605901
 30
0.0
  0
VERTEX
  5
4954
  8
LAYER_1
 62
     0
 10
7.2003077863341067
 20
8.9903097787124526
 30
0.0
  0
VERTEX
  5
4955
  8
LAYER_1
 62
     0
 10
7.1841807886183657
 20
8.9957464019167865
 30
0.0
  0
VERTEX
  5
4956
  8
LAYER_1
 62
     0
 10
7.1681794114654842
 20
9.0007191205682435
 30
0.0
  0
VERTEX
  5
4957
  8
LAYER_1
 62
     0
 10
7.1523132200138759
 20
9.005221862061461
 30
0.0
  0
VERTEX
  5
4958
  8
LAYER_1
 62
     0
 10
7.1365917794019138
 20
9.0092485537910747
 30
0.0
  0
VERTEX
  5
4959
  8
LAYER_1
 62
     0
 10
7.0604013032114352
 20
9.0276883069489724
 30
0.0
  0
VERTEX
  5
495A
  8
LAYER_1
 62
     0
 10
6.4699251127352433
 20
9.0949596884059041
 30
0.0
  0
VERTEX
  5
495B
  8
LAYER_1
 62
     0
 10
6.2508774936876348
 20
9.1185564851691563
 30
0.0
  0
VERTEX
  5
495C
  8
LAYER_1
 62
     0
 10
5.6413536841638239
 20
9.1190476202505941
 30
0.0
  0
VERTEX
  5
495D
  8
LAYER_1
 62
     0
 10
5.5520011994739127
 20
9.1037633132054712
 30
0.0
  0
VERTEX
  5
495E
  8
LAYER_1
 62
     0
 10
5.2450794222904547
 20
8.9034860015632784
 30
0.0
  0
VERTEX
  5
495F
  8
LAYER_1
 62
     0
 10
4.9464601506327952
 20
9.0982553187871691
 30
0.0
  0
VERTEX
  5
4960
  8
LAYER_1
 62
     0
 10
4.8699251127352428
 20
9.1183793199490282
 30
0.0
  0
VERTEX
  5
4961
  8
LAYER_1
 62
     0
 10
4.2508774936876259
 20
9.1190476202505941
 30
0.0
  0
VERTEX
  5
4962
  8
LAYER_1
 62
     0
 10
4.012782255592394
 20
9.0943719186739624
 30
0.0
  0
VERTEX
  5
4963
  8
LAYER_1
 62
     0
 10
3.3746870174971551
 20
9.0194129759120933
 30
0.0
  0
VERTEX
  5
4964
  8
LAYER_1
 62
     0
 10
3.3154122466478859
 20
9.0011311588944096
 30
0.0
  0
VERTEX
  5
4965
  8
LAYER_1
 62
     0
 10
3.3015664251734371
 20
8.9966821965519053
 30
0.0
  0
VERTEX
  5
4966
  8
LAYER_1
 62
     0
 10
3.287548772317705
 20
8.9918258298291267
 30
0.0
  0
VERTEX
  5
4967
  8
LAYER_1
 62
     0
 10
3.2733711828376548
 20
8.9865698139107053
 30
0.0
  0
VERTEX
  5
4968
  8
LAYER_1
 62
     0
 10
3.259045551490265
 20
8.9809219039812742
 30
0.0
  0
VERTEX
  5
4969
  8
LAYER_1
 62
     0
 10
3.2299977422213249
 20
8.9684814228279173
 30
0.0
  0
VERTEX
  5
496A
  8
LAYER_1
 62
     0
 10
3.2005005025666651
 20
8.9545664278461068
 30
0.0
  0
VERTEX
  5
496B
  8
LAYER_1
 62
     0
 10
3.1706489905820638
 20
8.939238960512899
 30
0.0
  0
VERTEX
  5
496C
  8
LAYER_1
 62
     0
 10
3.1405383643232758
 20
8.9225610623053555
 30
0.0
  0
VERTEX
  5
496D
  8
LAYER_1
 62
     0
 10
3.1102637818460859
 20
8.9045947747005272
 30
0.0
  0
VERTEX
  5
496E
  8
LAYER_1
 62
     0
 10
3.079920401206274
 20
8.8854021391754792
 30
0.0
  0
VERTEX
  5
496F
  8
LAYER_1
 62
     0
 10
3.049603380459593
 20
8.8650451972072624
 30
0.0
  0
VERTEX
  5
4970
  8
LAYER_1
 62
     0
 10
3.0194078776618252
 20
8.8435859902729348
 30
0.0
  0
VERTEX
  5
4971
  8
LAYER_1
 62
     0
 10
2.9894290508687549
 20
8.8210865598495563
 30
0.0
  0
VERTEX
  5
4972
  8
LAYER_1
 62
     0
 10
2.959762058136135
 20
8.7976089474141794
 30
0.0
  0
VERTEX
  5
4973
  8
LAYER_1
 62
     0
 10
2.930502057519754
 20
8.7732151944438623
 30
0.0
  0
VERTEX
  5
4974
  8
LAYER_1
 62
     0
 10
2.9017442070753758
 20
8.7479673424156665
 30
0.0
  0
VERTEX
  5
4975
  8
LAYER_1
 62
     0
 10
2.873583664858776
 20
8.7219274328066483
 30
0.0
  0
VERTEX
  5
4976
  8
LAYER_1
 62
     0
 10
2.8461155889257248
 20
8.6951575070938532
 30
0.0
  0
VERTEX
  5
4977
  8
LAYER_1
 62
     0
 10
2.755639398449536
 20
8.6046007272704514
 30
0.0
  0
VERTEX
  5
4978
  8
LAYER_1
 62
     0
 10
2.7229748045082238
 20
8.5791751062619817
 30
0.0
  0
VERTEX
  5
4979
  8
LAYER_1
 62
     0
 10
2.6393071014788752
 20
8.6540970547768623
 30
0.0
  0
VERTEX
  5
497A
  8
LAYER_1
 62
     0
 10
2.6096261030967058
 20
8.6802231700393584
 30
0.0
  0
VERTEX
  5
497B
  8
LAYER_1
 62
     0
 10
2.5789515935352449
 20
8.7063574121098686
 30
0.0
  0
VERTEX
  5
497C
  8
LAYER_1
 62
     0
 10
2.5474660742431139
 20
8.7323710743531677
 30
0.0
  0
VERTEX
  5
497D
  8
LAYER_1
 62
     0
 10
2.5153520466689372
 20
8.758135450134036
 30
0.0
  0
VERTEX
  5
497E
  8
LAYER_1
 62
     0
 10
2.4827920122613061
 20
8.7835218328172431
 30
0.0
  0
VERTEX
  5
497F
  8
LAYER_1
 62
     0
 10
2.4499684724688651
 20
8.8084015157675797
 30
0.0
  0
VERTEX
  5
4980
  8
LAYER_1
 62
     0
 10
2.417063928740216
 20
8.8326457923498136
 30
0.0
  0
VERTEX
  5
4981
  8
LAYER_1
 62
     0
 10
2.3842608825239751
 20
8.8561259559287269
 30
0.0
  0
VERTEX
  5
4982
  8
LAYER_1
 62
     0
 10
2.3517418352687631
 20
8.8787132998690907
 30
0.0
  0
VERTEX
  5
4983
  8
LAYER_1
 62
     0
 10
2.3196892884231959
 20
8.9002791175356926
 30
0.0
  0
VERTEX
  5
4984
  8
LAYER_1
 62
     0
 10
2.288285743435885
 20
8.9206947022933054
 30
0.0
  0
VERTEX
  5
4985
  8
LAYER_1
 62
     0
 10
2.2577137017554469
 20
8.9398313475067024
 30
0.0
  0
VERTEX
  5
4986
  8
LAYER_1
 62
     0
 10
2.2281556648304952
 20
8.9575603465406708
 30
0.0
  0
VERTEX
  5
4987
  8
LAYER_1
 62
     0
 10
2.1997941341096459
 20
8.9737529927599802
 30
0.0
  0
VERTEX
  5
4988
  8
LAYER_1
 62
     0
 10
2.1728116110415261
 20
8.9882805795294125
 30
0.0
  0
VERTEX
  5
4989
  8
LAYER_1
 62
     0
 10
2.1473905970747338
 20
9.0010144002137409
 30
0.0
  0
VERTEX
  5
498A
  8
LAYER_1
 62
     0
 10
2.1281781625554461
 20
9.0098660591720261
 30
0.0
  0
VERTEX
  5
498B
  8
LAYER_1
 62
     0
 10
2.1088085122710272
 20
9.0180593329512213
 30
0.0
  0
VERTEX
  5
498C
  8
LAYER_1
 62
     0
 10
2.089283753921765
 20
9.0255938170183931
 30
0.0
  0
VERTEX
  5
498D
  8
LAYER_1
 62
     0
 10
2.069605995207966
 20
9.0324691068406171
 30
0.0
  0
VERTEX
  5
498E
  8
LAYER_1
 62
     0
 10
2.0497773438299141
 20
9.0386847978849847
 30
0.0
  0
VERTEX
  5
498F
  8
LAYER_1
 62
     0
 10
2.0297999074879161
 20
9.0442404856185572
 30
0.0
  0
VERTEX
  5
4990
  8
LAYER_1
 62
     0
 10
2.009675793882276
 20
9.0491357655084226
 30
0.0
  0
VERTEX
  5
4991
  8
LAYER_1
 62
     0
 10
1.989407110713276
 20
9.0533702330216546
 30
0.0
  0
VERTEX
  5
4992
  8
LAYER_1
 62
     0
 10
1.9689959656812159
 20
9.0569434836253304
 30
0.0
  0
VERTEX
  5
4993
  8
LAYER_1
 62
     0
 10
1.9484444664864049
 20
9.0598551127865274
 30
0.0
  0
VERTEX
  5
4994
  8
LAYER_1
 62
     0
 10
1.9277547208291259
 20
9.0621047159723211
 30
0.0
  0
VERTEX
  5
4995
  8
LAYER_1
 62
     0
 10
1.906928836409687
 20
9.0636918886497941
 30
0.0
  0
VERTEX
  5
4996
  8
LAYER_1
 62
     0
 10
1.885968920928375
 20
9.0646162262860184
 30
0.0
  0
VERTEX
  5
4997
  8
LAYER_1
 62
     0
 10
1.8648770820854841
 20
9.0648773243480747
 30
0.0
  0
VERTEX
  5
4998
  8
LAYER_1
 62
     0
 10
1.843655427581335
 20
9.0644747783030386
 30
0.0
  0
VERTEX
  5
4999
  8
LAYER_1
 62
     0
 10
1.822306065116206
 20
9.0634081836179892
 30
0.0
  0
VERTEX
  5
499A
  8
LAYER_1
 62
     0
 10
1.7914693234975561
 20
9.0608931880232095
 30
0.0
  0
VERTEX
  5
499B
  8
LAYER_1
 62
     0
 10
1.7584018606756751
 20
9.0572716089344851
 30
0.0
  0
VERTEX
  5
499C
  8
LAYER_1
 62
     0
 10
1.723477330499346
 20
9.0526283963980276
 30
0.0
  0
VERTEX
  5
499D
  8
LAYER_1
 62
     0
 10
1.6870693868173661
 20
9.0470485004600416
 30
0.0
  0
VERTEX
  5
499E
  8
LAYER_1
 62
     0
 10
1.649551683478536
 20
9.0406168711667423
 30
0.0
  0
VERTEX
  5
499F
  8
LAYER_1
 62
     0
 10
1.6112978743316539
 20
9.033418458564336
 30
0.0
  0
VERTEX
  5
49A0
  8
LAYER_1
 62
     0
 10
1.5726816132255259
 20
9.0255382126990327
 30
0.0
  0
VERTEX
  5
49A1
  8
LAYER_1
 62
     0
 10
1.534076554008946
 20
9.0170610836170386
 30
0.0
  0
VERTEX
  5
49A2
  8
LAYER_1
 62
     0
 10
1.495856350530697
 20
9.0080720213645673
 30
0.0
  0
VERTEX
  5
49A3
  8
LAYER_1
 62
     0
 10
1.458394656639606
 20
8.9986559759878286
 30
0.0
  0
VERTEX
  5
49A4
  8
LAYER_1
 62
     0
 10
1.422065126184445
 20
8.9888978975330254
 30
0.0
  0
VERTEX
  5
49A5
  8
LAYER_1
 62
     0
 10
1.387241413014036
 20
8.9788827360463763
 30
0.0
  0
VERTEX
  5
49A6
  8
LAYER_1
 62
     0
 10
1.3542971709771541
 20
8.9686954415740843
 30
0.0
  0
VERTEX
  5
49A7
  8
LAYER_1
 62
     0
 10
1.3236060539226171
 20
8.9584209641623627
 30
0.0
  0
VERTEX
  5
49A8
  8
LAYER_1
 62
     0
 10
1.295541715699206
 20
8.9481442538574143
 30
0.0
  0
VERTEX
  5
49A9
  8
LAYER_1
 62
     0
 10
1.2704778101557339
 20
8.9379502607054562
 30
0.0
  0
VERTEX
  5
49AA
  8
LAYER_1
 62
     0
 10
1.248929712360066
 20
8.9283562659250748
 30
0.0
  0
VERTEX
  5
49AB
  8
LAYER_1
 62
     0
 10
1.2269903009266649
 20
8.9180230721508718
 30
0.0
  0
VERTEX
  5
49AC
  8
LAYER_1
 62
     0
 10
1.204672348018617
 20
8.9069604164534955
 30
0.0
  0
VERTEX
  5
49AD
  8
LAYER_1
 62
     0
 10
1.181988625799004
 20
8.8951780359035748
 30
0.0
  0
VERTEX
  5
49AE
  8
LAYER_1
 62
     0
 10
1.158951906430937
 20
8.8826856675717512
 30
0.0
  0
VERTEX
  5
49AF
  8
LAYER_1
 62
     0
 10
1.1355749620774751
 20
8.8694930485286694
 30
0.0
  0
VERTEX
  5
49B0
  8
LAYER_1
 62
     0
 10
1.1118705649017251
 20
8.8556099158449602
 30
0.0
  0
VERTEX
  5
49B1
  8
LAYER_1
 62
     0
 10
1.0878514870667759
 20
8.8410460065912595
 30
0.0
  0
VERTEX
  5
49B2
  8
LAYER_1
 62
     0
 10
1.063530500735707
 20
8.8258110578382105
 30
0.0
  0
VERTEX
  5
49B3
  8
LAYER_1
 62
     0
 10
1.038920378071605
 20
8.8099148066564492
 30
0.0
  0
VERTEX
  5
49B4
  8
LAYER_1
 62
     0
 10
1.014033891237565
 20
8.7933669901166152
 30
0.0
  0
VERTEX
  5
49B5
  8
LAYER_1
 62
     0
 10
0.9888838123966756
 20
8.7761773452893515
 30
0.0
  0
VERTEX
  5
49B6
  8
LAYER_1
 62
     0
 10
0.9634829137120259
 20
8.7583556092452888
 30
0.0
  0
VERTEX
  5
49B7
  8
LAYER_1
 62
     0
 10
0.9378439673466871
 20
8.7399115190550702
 30
0.0
  0
VERTEX
  5
49B8
  8
LAYER_1
 62
     0
 10
0.9119797454637765
 20
8.7208548117893336
 30
0.0
  0
VERTEX
  5
49B9
  8
LAYER_1
 62
     0
 10
0.8859030202263564
 20
8.7011952245187114
 30
0.0
  0
VERTEX
  5
49BA
  8
LAYER_1
 62
     0
 10
0.8596265637975264
 20
8.6809424943138502
 30
0.0
  0
VERTEX
  5
49BB
  8
LAYER_1
 62
     0
 10
0.8331631483403754
 20
8.6601063582453826
 30
0.0
  0
VERTEX
  5
49BC
  8
LAYER_1
 62
     0
 10
0.8065255460179852
 20
8.6386965533839533
 30
0.0
  0
VERTEX
  5
49BD
  8
LAYER_1
 62
     0
 10
0.7797265289934554
 20
8.616722816800193
 30
0.0
  0
VERTEX
  5
49BE
  8
LAYER_1
 62
     0
 10
0.752778869429866
 20
8.5941948855647414
 30
0.0
  0
VERTEX
  5
49BF
  8
LAYER_1
 62
     0
 10
0.7256953394903061
 20
8.5711224967482398
 30
0.0
  0
VERTEX
  5
49C0
  8
LAYER_1
 62
     0
 10
0.6984887113378662
 20
8.5475153874213223
 30
0.0
  0
VERTEX
  5
49C1
  8
LAYER_1
 62
     0
 10
0.6711717571356264
 20
8.5233832946546357
 30
0.0
  0
VERTEX
  5
49C2
  8
LAYER_1
 62
     0
 10
0.6437572490466863
 20
8.4987359555188071
 30
0.0
  0
VERTEX
  5
49C3
  8
LAYER_1
 62
     0
 10
0.616257959234126
 20
8.4735831070844885
 30
0.0
  0
VERTEX
  5
49C4
  8
LAYER_1
 62
     0
 10
0.5886866598610361
 20
8.4479344864223052
 30
0.0
  0
VERTEX
  5
49C5
  8
LAYER_1
 62
     0
 10
0.5610561230905056
 20
8.4217998306029003
 30
0.0
  0
VERTEX
  5
49C6
  8
LAYER_1
 62
     0
 10
0.5333791210856269
 20
8.3951888766969134
 30
0.0
  0
VERTEX
  5
49C7
  8
LAYER_1
 62
     0
 10
0.5056684260094749
 20
8.3681113617749805
 30
0.0
  0
VERTEX
  5
49C8
  8
LAYER_1
 62
     0
 10
0.4779368100251542
 20
8.3405770229077412
 30
0.0
  0
VERTEX
  5
49C9
  8
LAYER_1
 62
     0
 10
0.4501970452957345
 20
8.3125955971658367
 30
0.0
  0
VERTEX
  5
49CA
  8
LAYER_1
 62
     0
 10
0.3066594540467058
 20
8.1666666678696433
 30
0.0
  0
VERTEX
  5
49CB
  8
LAYER_1
 62
     0
 10
0.1896172776320188
 20
7.6333333345363101
 30
0.0
  0
VERTEX
  5
49CC
  8
LAYER_1
 62
     0
 10
0.1611164534878391
 20
7.47619047739345
 30
0.0
  0
VERTEX
  5
49CD
  8
LAYER_1
 62
     0
 10
0.1512156314085473
 20
7.4205056998327716
 30
0.0
  0
VERTEX
  5
49CE
  8
LAYER_1
 62
     0
 10
0.14216373733883
 20
7.3673018210804537
 30
0.0
  0
VERTEX
  5
49CF
  8
LAYER_1
 62
     0
 10
0.1339580423456024
 20
7.316550208586567
 30
0.0
  0
VERTEX
  5
49D0
  8
LAYER_1
 62
     0
 10
0.1265958174957777
 20
7.2682222298011743
 30
0.0
  0
VERTEX
  5
49D1
  8
LAYER_1
 62
     0
 10
0.1200743338562855
 20
7.2222892521743418
 30
0.0
  0
VERTEX
  5
49D2
  8
LAYER_1
 62
     0
 10
0.1143908624940373
 20
7.178722643156136
 30
0.0
  0
VERTEX
  5
49D3
  8
LAYER_1
 62
     0
 10
0.1095426744759571
 20
7.1374937701966203
 30
0.0
  0
VERTEX
  5
49D4
  8
LAYER_1
 62
     0
 10
0.1055270408689584
 20
7.0985740007458613
 30
0.0
  0
VERTEX
  5
49D5
  8
LAYER_1
 62
     0
 10
0.1023412327399598
 20
7.0619347022539234
 30
0.0
  0
VERTEX
  5
49D6
  8
LAYER_1
 62
     0
 10
0.0999825211558836
 20
7.0275472421708729
 30
0.0
  0
VERTEX
  5
49D7
  8
LAYER_1
 62
     0
 10
0.0984481771836503
 20
6.9953829879467762
 30
0.0
  0
VERTEX
  5
49D8
  8
LAYER_1
 62
     0
 10
0.097735471890168
 20
6.965413307031695
 30
0.0
  0
VERTEX
  5
49D9
  8
LAYER_1
 62
     0
 10
0.0978416763423695
 20
6.9376095668756976
 30
0.0
  0
VERTEX
  5
49DA
  8
LAYER_1
 62
     0
 10
0.0987640616071612
 20
6.9119431349288512
 30
0.0
  0
VERTEX
  5
49DB
  8
LAYER_1
 62
     0
 10
0.1004998987514707
 20
6.8883853786412157
 30
0.0
  0
VERTEX
  5
49DC
  8
LAYER_1
 62
     0
 10
0.1030464588422077
 20
6.866907665462862
 30
0.0
  0
VERTEX
  5
49DD
  8
LAYER_1
 62
     0
 10
0.1060718082730467
 20
6.8482995337323276
 30
0.0
  0
VERTEX
  5
49DE
  8
LAYER_1
 62
     0
 10
0.1097768376805224
 20
6.8296190884224011
 30
0.0
  0
VERTEX
  5
49DF
  8
LAYER_1
 62
     0
 10
0.1141420237330433
 20
6.8108947340025274
 30
0.0
  0
VERTEX
  5
49E0
  8
LAYER_1
 62
     0
 10
0.1191478430990145
 20
6.7921548749421454
 30
0.0
  0
VERTEX
  5
49E1
  8
LAYER_1
 62
     0
 10
0.1247747724468482
 20
6.7734279157107
 30
0.0
  0
VERTEX
  5
49E2
  8
LAYER_1
 62
     0
 10
0.131003288444953
 20
6.7547422607776371
 30
0.0
  0
VERTEX
  5
49E3
  8
LAYER_1
 62
     0
 10
0.1378138677617251
 20
6.7361263146123918
 30
0.0
  0
VERTEX
  5
49E4
  8
LAYER_1
 62
     0
 10
0.145186987065582
 20
6.7176084816844108
 30
0.0
  0
VERTEX
  5
49E5
  8
LAYER_1
 62
     0
 10
0.1531031230249233
 20
6.6992171664631357
 30
0.0
  0
VERTEX
  5
49E6
  8
LAYER_1
 62
     0
 10
0.1615427523081632
 20
6.6809807734180122
 30
0.0
  0
VERTEX
  5
49E7
  8
LAYER_1
 62
     0
 10
0.1704863515837065
 20
6.6629277070184809
 30
0.0
  0
VERTEX
  5
49E8
  8
LAYER_1
 62
     0
 10
0.1799143975199566
 20
6.6450863717339823
 30
0.0
  0
VERTEX
  5
49E9
  8
LAYER_1
 62
     0
 10
0.1898073667853222
 20
6.6274851720339623
 30
0.0
  0
VERTEX
  5
49EA
  8
LAYER_1
 62
     0
 10
0.2001457360482099
 20
6.6101525123878613
 30
0.0
  0
VERTEX
  5
49EB
  8
LAYER_1
 62
     0
 10
0.2109099819770304
 20
6.5931167972651199
 30
0.0
  0
VERTEX
  5
49EC
  8
LAYER_1
 62
     0
 10
0.2220805812401867
 20
6.5764064311351866
 30
0.0
  0
VERTEX
  5
49ED
  8
LAYER_1
 62
     0
 10
0.2336380105060893
 20
6.5600498184674993
 30
0.0
  0
VERTEX
  5
49EE
  8
LAYER_1
 62
     0
 10
0.2455627464431416
 20
6.5440753637315021
 30
0.0
  0
VERTEX
  5
49EF
  8
LAYER_1
 62
     0
 10
0.2578352657197556
 20
6.5285114713966372
 30
0.0
  0
VERTEX
  5
49F0
  8
LAYER_1
 62
     0
 10
0.2704360450043257
 20
6.513386545932347
 30
0.0
  0
VERTEX
  5
49F1
  8
LAYER_1
 62
     0
 10
0.2833455609652766
 20
6.4987289918080737
 30
0.0
  0
VERTEX
  5
49F2
  8
LAYER_1
 62
     0
 10
0.2965442902710045
 20
6.4845672134932606
 30
0.0
  0
VERTEX
  5
49F3
  8
LAYER_1
 62
     0
 10
0.3100127095899143
 20
6.4709296154573508
 30
0.0
  0
VERTEX
  5
49F4
  8
LAYER_1
 62
     0
 10
0.3237312955904255
 20
6.4578446021697857
 30
0.0
  0
VERTEX
  5
49F5
  8
LAYER_1
 62
     0
 10
0.3376805249409376
 20
6.4453405781000113
 30
0.0
  0
VERTEX
  5
49F6
  8
LAYER_1
 62
     0
 10
0.3518408743098433
 20
6.4334459477174644
 30
0.0
  0
VERTEX
  5
49F7
  8
LAYER_1
 62
     0
 10
0.3661928203655851
 20
6.4221891154915909
 30
0.0
  0
VERTEX
  5
49F8
  8
LAYER_1
 62
     0
 10
0.3807168397765359
 20
6.411598485891834
 30
0.0
  0
VERTEX
  5
49F9
  8
LAYER_1
 62
     0
 10
0.3953934092111169
 20
6.4017024633876334
 30
0.0
  0
VERTEX
  5
49FA
  8
LAYER_1
 62
     0
 10
0.4102030053377366
 20
6.3925294524484348
 30
0.0
  0
VERTEX
  5
49FB
  8
LAYER_1
 62
     0
 10
0.4251261048247966
 20
6.384107857543678
 30
0.0
  0
VERTEX
  5
49FC
  8
LAYER_1
 62
     0
 10
0.4401431843406965
 20
6.3764660831428079
 30
0.0
  0
VERTEX
  5
49FD
  8
LAYER_1
 62
     0
 10
0.5130058997901071
 20
6.3414205261647929
 30
0.0
  0
VERTEX
  5
49FE
  8
LAYER_1
 62
     0
 10
0.3854424582290257
 20
6.2064245493981689
 30
0.0
  0
VERTEX
  5
49FF
  8
LAYER_1
 62
     0
 10
0.3267517455299256
 20
6.1438630535085421
 30
0.0
  0
VERTEX
  5
4A00
  8
LAYER_1
 62
     0
 10
0.2612493639784574
 20
6.0733157836638858
 30
0.0
  0
VERTEX
  5
4A01
  8
LAYER_1
 62
     0
 10
0.1969301894615185
 20
6.00343104535186
 30
0.0
  0
VERTEX
  5
4A02
  8
LAYER_1
 62
     0
 10
0.1417890978660381
 20
5.9428571440601177
 30
0.0
  0
VERTEX
  5
4A03
  8
LAYER_1
 62
     0
 10
0.0256991790641301
 20
5.8142857154886904
 30
0.0
  0
VERTEX
  5
4A04
  8
LAYER_1
 62
     0
 10
0.0104332698479013
 20
5.7835416449322476
 30
0.0
  0
VERTEX
  5
4A05
  8
LAYER_1
 62
     0
 10
0.0057938974966998
 20
5.7739449238370959
 30
0.0
  0
VERTEX
  5
4A06
  8
LAYER_1
 62
     0
 10
0.0025011457166535
 20
5.76623917161261
 30
0.0
  0
VERTEX
  5
4A07
  8
LAYER_1
 62
     0
 10
0.0005661324414845
 20
5.759975702160208
 30
0.0
  0
VERTEX
  5
4A08
  8
LAYER_1
 62
     0
 10
0.0001112520975184
 20
5.7572446090677323
 30
0.0
  0
VERTEX
  5
4A09
  8
LAYER_1
 62
     0
 10
-0.0000000243950815
 20
5.7547058293813063
 30
0.0
  0
VERTEX
  5
4A0A
  8
LAYER_1
 62
     0
 10
0.0002336927053985
 20
5.7523032773386111
 30
0.0
  0
VERTEX
  5
4A0B
  8
LAYER_1
 62
     0
 10
0.0008137931406687
 20
5.7499808671773254
 30
0.0
  0
VERTEX
  5
4A0C
  8
LAYER_1
 62
     0
 10
0.003018702982466
 20
5.7453521294496861
 30
0.0
  0
VERTEX
  5
4A0D
  8
LAYER_1
 62
     0
 10
0.0066258230640219
 20
5.740370930099802
 30
0.0
  0
VERTEX
  5
4A0E
  8
LAYER_1
 62
     0
 10
0.0116462713190568
 20
5.7345885830290957
 30
0.0
  0
VERTEX
  5
4A0F
  8
LAYER_1
 62
     0
 10
0.028125182006443
 20
5.716379591682383
 30
0.0
  0
VERTEX
  5
4A10
  8
LAYER_1
 62
     0
 10
0.2699251127352458
 20
5.6262138286982371
 30
0.0
  0
VERTEX
  5
4A11
  8
LAYER_1
 62
     0
 10
0.2842817880704853
 20
5.6132623734867879
 30
0.0
  0
VERTEX
  5
4A12
  8
LAYER_1
 62
     0
 10
0.2468522961501467
 20
5.2714285726315468
 30
0.0
  0
VERTEX
  5
4A13
  8
LAYER_1
 62
     0
 10
0.2230255276805693
 20
4.9857142869172613
 30
0.0
  0
VERTEX
  5
4A14
  8
LAYER_1
 62
     0
 10
0.2125428259396358
 20
4.8564185991114179
 30
0.0
  0
VERTEX
  5
4A15
  8
LAYER_1
 62
     0
 10
0.2020695270215089
 20
4.7202600788901048
 30
0.0
  0
VERTEX
  5
4A16
  8
LAYER_1
 62
     0
 10
0.1917248519085088
 20
4.5789878937802611
 30
0.0
  0
VERTEX
  5
4A17
  8
LAYER_1
 62
     0
 10
0.1816280215829558
 20
4.4343512113088188
 30
0.0
  0
VERTEX
  5
4A18
  8
LAYER_1
 62
     0
 10
0.1718982570271557
 20
4.2880991990027173
 30
0.0
  0
VERTEX
  5
4A19
  8
LAYER_1
 62
     0
 10
0.1626547792234323
 20
4.1419810243888948
 30
0.0
  0
VERTEX
  5
4A1A
  8
LAYER_1
 62
     0
 10
0.1540168091541076
 20
3.997745854994287
 30
0.0
  0
VERTEX
  5
4A1B
  8
LAYER_1
 62
     0
 10
0.1461035678014859
 20
3.8571428583458331
 30
0.0
  0
VERTEX
  5
4A1C
  8
LAYER_1
 62
     0
 10
0.131869504153773
 20
3.5952380964410708
 30
0.0
  0
VERTEX
  5
4A1D
  8
LAYER_1
 62
     0
 10
0.1318496893968888
 20
3.5261904773934498
 30
0.0
  0
VERTEX
  5
4A1E
  8
LAYER_1
 62
     0
 10
0.1320396502387986
 20
3.510794614025579
 30
0.0
  0
VERTEX
  5
4A1F
  8
LAYER_1
 62
     0
 10
0.1326513369076494
 20
3.496860021627457
 30
0.0
  0
VERTEX
  5
4A20
  8
LAYER_1
 62
     0
 10
0.1337335535097299
 20
3.4843221259854649
 30
0.0
  0
VERTEX
  5
4A21
  8
LAYER_1
 62
     0
 10
0.1353351041513164
 20
3.4731163528859841
 30
0.0
  0
VERTEX
  5
4A22
  8
LAYER_1
 62
     0
 10
0.1375047929387065
 20
3.4631781281153948
 30
0.0
  0
VERTEX
  5
4A23
  8
LAYER_1
 62
     0
 10
0.1402914239781818
 20
3.4544428774600782
 30
0.0
  0
VERTEX
  5
4A24
  8
LAYER_1
 62
     0
 10
0.143743801376031
 20
3.4468460267064138
 30
0.0
  0
VERTEX
  5
4A25
  8
LAYER_1
 62
     0
 10
0.1479107292385304
 20
3.440323001640782
 30
0.0
  0
VERTEX
  5
4A26
  8
LAYER_1
 62
     0
 10
0.1502774008772416
 20
3.4374439942992221
 30
0.0
  0
VERTEX
  5
4A27
  8
LAYER_1
 62
     0
 10
0.1528410116719741
 20
3.434809228049565
 30
0.0
  0
VERTEX
  5
4A28
  8
LAYER_1
 62
     0
 10
0.1556076621360152
 20
3.432410631115105
 30
0.0
  0
VERTEX
  5
4A29
  8
LAYER_1
 62
     0
 10
0.1585834527826488
 20
3.4302401317191422
 30
0.0
  0
VERTEX
  5
4A2A
  8
LAYER_1
 62
     0
 10
0.1651868566768382
 20
3.4265511384358942
 30
0.0
  0
VERTEX
  5
4A2B
  8
LAYER_1
 62
     0
 10
0.172700027460829
 20
3.4236776739861998
 30
0.0
  0
VERTEX
  5
4A2C
  8
LAYER_1
 62
     0
 10
0.1811717692409083
 20
3.4215551641564441
 30
0.0
  0
VERTEX
  5
4A2D
  8
LAYER_1
 62
     0
 10
0.1906508861233576
 20
3.4201190347330019
 30
0.0
  0
VERTEX
  5
4A2E
  8
LAYER_1
 62
     0
 10
0.2011861822144656
 20
3.4193047115022601
 30
0.0
  0
VERTEX
  5
4A2F
  8
LAYER_1
 62
     0
 10
0.2128264616205175
 20
3.4190476202505948
 30
0.0
  0
VERTEX
  5
4A30
  8
LAYER_1
 62
     0
 10
0.2253552500760136
 20
3.4196169162565968
 30
0.0
  0
VERTEX
  5
4A31
  8
LAYER_1
 62
     0
 10
0.2317221527743172
 20
3.4203667855621318
 30
0.0
  0
VERTEX
  5
4A32
  8
LAYER_1
 62
     0
 10
0.238250749370545
 20
3.4214608017787218
 30
0.0
  0
VERTEX
  5
4A33
  8
LAYER_1
 62
     0
 10
0.2450110560528635
 20
3.4229244644383869
 30
0.0
  0
VERTEX
  5
4A34
  8
LAYER_1
 62
     0
 10
0.2520730890094374
 20
3.4247832730731478
 30
0.0
  0
VERTEX
  5
4A35
  8
LAYER_1
 62
     0
 10
0.2673823984980146
 20
3.42978832639605
 30
0.0
  0
VERTEX
  5
4A36
  8
LAYER_1
 62
     0
 10
0.2847388073416077
 20
3.436679958003606
 30
0.0
  0
VERTEX
  5
4A37
  8
LAYER_1
 62
     0
 10
0.3047024450455353
 20
3.4456621641519938
 30
0.0
  0
VERTEX
  5
4A38
  8
LAYER_1
 62
     0
 10
0.3278334411151249
 20
3.4569389410973872
 30
0.0
  0
VERTEX
  5
4A39
  8
LAYER_1
 62
     0
 10
0.3546919250556861
 20
3.4707142850959691
 30
0.0
  0
VERTEX
  5
4A3A
  8
LAYER_1
 62
     0
 10
0.4536560396055851
 20
3.5223809499413452
 30
0.0
  0
VERTEX
  5
4A3B
  8
LAYER_1
 62
     0
 10
0.5173009096997454
 20
3.3742921775908248
 30
0.0
  0
VERTEX
  5
4A3C
  8
LAYER_1
 62
     0
 10
0.5484812044877962
 20
3.3027951081338331
 30
0.0
  0
VERTEX
  5
4A3D
  8
LAYER_1
 62
     0
 10
0.5863296792730353
 20
3.217596928578859
 30
0.0
  0
VERTEX
  5
4A3E
  8
LAYER_1
 62
     0
 10
0.6260682464286162
 20
3.1293773263661429
 30
0.0
  0
VERTEX
  5
4A3F
  8
LAYER_1
 62
     0
 10
0.662918818327686
 20
3.0488159889359272
 30
0.0
  0
VERTEX
  5
4A40
  8
LAYER_1
 62
     0
 10
0.7448918568614662
 20
2.8714285726315469
 30
0.0
  0
VERTEX
  5
4A41
  8
LAYER_1
 62
     0
 10
1.2264206174185359
 20
1.9095238107267849
 30
0.0
  0
VERTEX
  5
4A42
  8
LAYER_1
 62
     0
 10
1.567532786404866
 20
1.2714285726315471
 30
0.0
  0
VERTEX
  5
4A43
  8
LAYER_1
 62
     0
 10
1.6813513593113441
 20
1.0718382295333351
 30
0.0
  0
VERTEX
  5
4A44
  8
LAYER_1
 62
     0
 10
1.704209664594726
 20
1.0663534402530941
 30
0.0
  0
VERTEX
  5
4A45
  8
LAYER_1
 62
     0
 10
1.709264740907295
 20
1.0653384549688321
 30
0.0
  0
VERTEX
  5
4A46
  8
LAYER_1
 62
     0
 10
1.714876343495197
 20
1.064559344369397
 30
0.0
  0
VERTEX
  5
4A47
  8
LAYER_1
 62
     0
 10
1.727021674974476
 20
1.0637289652765181
 30
0.0
  0
VERTEX
  5
4A48
  8
LAYER_1
 62
     0
 10
1.7391507539876061
 20
1.0639027390774789
 30
0.0
  0
VERTEX
  5
4A49
  8
LAYER_1
 62
     0
 10
1.744742040992795
 20
1.0643788195953441
 30
0.0
  0
VERTEX
  5
4A4A
  8
LAYER_1
 62
     0
 10
1.749768675489566
 20
1.065121101875302
 30
0.0
  0
VERTEX
  5
4A4B
  8
LAYER_1
 62
     0
 10
1.7724693811010359
 20
1.0693735527777519
 30
0.0
  0
VERTEX
  5
4A4C
  8
LAYER_1
 62
     0
 10
1.9704445736194149
 20
1.260057857158791
 30
0.0
  0
VERTEX
  5
4A4D
  8
LAYER_1
 62
     0
 10
2.1842108270209648
 20
1.197431291975589
 30
0.0
  0
VERTEX
  5
4A4E
  8
LAYER_1
 62
     0
 10
2.9556393984495362
 20
0.954153525828188
 30
0.0
  0
VERTEX
  5
4A4F
  8
LAYER_1
 62
     0
 10
3.1461155889257251
 20
0.8968075615310263
 30
0.0
  0
VERTEX
  5
4A50
  8
LAYER_1
 62
     0
 10
3.329597731782866
 20
0.842350392623237
 30
0.0
  0
VERTEX
  5
4A51
  8
LAYER_1
 62
     0
 10
3.4235151424971551
 20
0.8149227133708212
 30
0.0
  0
VERTEX
  5
4A52
  8
LAYER_1
 62
     0
 10
3.5032584460685832
 20
0.7919498300069064
 30
0.0
  0
VERTEX
  5
4A53
  8
LAYER_1
 62
     0
 10
3.6699251127352439
 20
0.7444380627799472
 30
0.0
  0
VERTEX
  5
4A54
  8
LAYER_1
 62
     0
 10
3.866289169608105
 20
0.6922226892364443
 30
0.0
  0
VERTEX
  5
4A55
  8
LAYER_1
 62
     0
 10
4.2019078127175939
 20
0.3904761916791659
 30
0.0
  0
VERTEX
  5
4A56
  8
LAYER_1
 62
     0
 10
4.8711972009066962
 20
0.3904761916791659
 30
0.0
  0
VERTEX
  5
4A57
  8
LAYER_1
 62
     0
 10
5.2396188534051946
 20
0.0000000012029754
 30
0.0
  0
SEQEND
  5
4A58
  8
LAYER_1
 62
     0
  0
ENDBLK
  5
34E1
  8
0
  0
ENDSEC
  0
SECTION
  2
ENTITIES
  0
CIRCLE
  5
B8A
  8
0
 10
4.4204222488892269
 20
26.0780411472655587
 30
0.0
 40
0.125
  0
CIRCLE
  5
B8B
  8
0
 10
3.2954222488892242
 20
25.9030411472655615
 30
0.0
 40
0.125
  0
CIRCLE
  5
B8C
  8
0
 10
11.4204222488892206
 20
26.0780411472655587
 30
0.0
 40
0.125
  0
CIRCLE
  5
B8D
  8
0
 10
12.5454222488892206
 20
25.9030411472655615
 30
0.0
 40
0.125
  0
LINE
  5
B9B
  8
0
 10
3.9204222488892242
 20
19.4530411472655587
 30
0.0
 11
11.9204222488892206
 21
19.4530411472655587
 31
0.0
  0
ARC
  5
B9C
  8
0
 10
11.9204222488892206
 20
21.9530411472655587
 30
0.0
 40
2.5
 50
270.0
 51
0.0
  0
LINE
  5
B9D
  8
0
 10
14.4204222488892206
 20
21.9530411472655587
 30
0.0
 11
14.4204222488892206
 21
27.5780411472655587
 31
0.0
  0
ARC
  5
B9E
  8
0
 10
14.1704222488892206
 20
27.5780411472655587
 30
0.0
 40
0.25
 50
0.0
 51
90.0
  0
LINE
  5
B9F
  8
0
 10
14.1704222488892206
 20
27.8280411472655587
 30
0.0
 11
1.670422248889224
 21
27.8280411472655587
 31
0.0
  0
ARC
  5
BA0
  8
0
 10
1.670422248889224
 20
27.5780411472655587
 30
0.0
 40
0.25
 50
90.0
 51
180.0
  0
LINE
  5
BA1
  8
0
 10
1.420422248889224
 20
27.5780411472655587
 30
0.0
 11
1.420422248889224
 21
21.9530411472655587
 31
0.0
  0
ARC
  5
BA2
  8
0
 10
3.9204222488892242
 20
21.9530411472655587
 30
0.0
 40
2.5
 50
180.0
 51
270.0
  0
ENDSEC
  0
EOF
