<?xml version="1.0" encoding="UTF-8"?>
<!DOCTYPE svg PUBLIC "-//W3C//DTD SVG 1.1//EN" "http://www.w3.org/Graphics/SVG/1.1/DTD/svg11.dtd">
<!-- Creator: CorelDRAW 2018 (64-Bit) -->
<svg xmlns="http://www.w3.org/2000/svg" xml:space="preserve" width="32in" height="20in" version="1.1" style="shape-rendering:geometricPrecision; text-rendering:geometricPrecision; image-rendering:optimizeQuality; fill-rule:evenodd; clip-rule:evenodd"
viewBox="0 0 32000 20000"
 xmlns:xlink="http://www.w3.org/1999/xlink">
 <defs>
  <style type="text/css">
   <![CDATA[
    .str1 {stroke:#ED3237;stroke-width:3;stroke-miterlimit:2.61313}
    .str0 {stroke:black;stroke-width:3;stroke-linejoin:bevel;stroke-miterlimit:2.61313}
    .fil0 {fill:none}
   ]]>
  </style>
 </defs>
 <g id="INTERIOR_PROFILES">
  <metadata id="CorelCorpID_0Corel-Layer"/>
  <g id="_1843979097728">
   <path class="fil0 str0" d="M10228.87 2405.55c-0.33,-522.41 -208.18,-1023.29 -577.81,-1392.46 -369.63,-369.17 -859.95,-834.71 -1382.36,-834.38l-7094.95 12.5c-104.48,0.07 -748.41,218.72 -822.24,292.65 -73.83,73.93 -63.19,325.74 -63.12,430.22l-8.34 8769.74c0.07,104.48 20.81,79.66 94.73,153.49 73.92,73.83 694.49,48.61 798.97,48.54l7086.61 0c522.41,-0.33 1023.29,-208.17 1392.46,-577.8 369.17,-369.63 576.38,-868.29 576.05,-1390.7l0 -5511.8z"/>
   <path class="fil0 str0" d="M9894.23 6894.3l0 78.74c0,35.17 18.76,67.66 49.21,85.24 30.45,17.58 67.97,17.58 98.43,0 30.45,-17.58 49.21,-50.07 49.21,-85.24l0 -78.74c0,-35.17 -18.76,-67.66 -49.21,-85.24 -30.45,-17.58 -67.97,-17.58 -98.43,0 -30.45,17.58 -49.21,50.07 -49.21,85.24z"/>
   <path class="fil0 str0" d="M9884.39 3350.99l0 78.74c0,38.68 20.63,74.42 54.13,93.76 33.5,19.34 74.77,19.34 108.27,0 33.5,-19.34 54.13,-55.08 54.13,-93.76l0 -78.74c0,-38.68 -20.64,-74.42 -54.13,-93.76 -33.5,-19.34 -74.77,-19.34 -108.27,0 -33.5,19.34 -54.13,55.08 -54.13,93.76z"/>
   <path class="fil0 str0" d="M1065.48 859.48c0,38.68 20.63,74.42 54.13,93.76 33.5,19.34 74.77,19.34 108.27,0 33.5,-19.34 54.13,-55.08 54.13,-93.76l0 -78.74c0,-38.68 14.77,-199.44 -18.71,-218.77 -33.48,-19.32 -139.37,-14.11 -172.86,5.21 -33.48,19.33 -24.96,174.87 -24.96,213.56l0 78.74z"/>
   <path class="fil0 str0" d="M1065.48 6381.91c0,38.68 20.63,74.42 54.13,93.76 33.5,19.34 74.77,19.34 108.27,0 33.5,-19.34 54.13,-55.08 54.13,-93.76l0 -78.74c0,-38.68 -20.63,-74.42 -54.13,-93.76 -33.5,-19.34 -74.77,-19.34 -108.27,0 -33.5,19.34 -54.13,55.08 -54.13,93.76l0 78.74z"/>
   <path class="fil0 str0" d="M1065.48 3940.98l0 78.74c0,38.68 20.63,74.42 54.13,93.76 33.5,19.34 74.77,19.34 108.27,0 33.5,-19.34 54.13,-55.08 54.13,-93.76l0 -78.74c0,-38.68 -20.63,-74.42 -54.13,-93.76 -33.5,-19.34 -74.77,-19.34 -108.27,0 -33.5,19.34 -54.13,55.08 -54.13,93.76z"/>
   <path class="fil0 str0" d="M1282.02 9542.15l0 -78.74c0,-38.68 -20.63,-74.42 -54.13,-93.76 -33.5,-19.34 -74.77,-19.34 -108.27,0 -33.5,19.34 -54.13,55.08 -54.13,93.76l0 78.74c0,38.68 20.63,74.42 54.13,93.76 33.5,19.34 74.77,19.34 108.27,0 33.5,-19.34 54.13,-55.08 54.13,-93.76z"/>
   <path class="fil0 str0" d="M9992.65 5053.75c59.8,0 108.27,48.47 108.27,108.27 0,59.8 -48.47,108.27 -108.27,108.27 -59.8,0 -108.27,-48.47 -108.27,-108.27 0,-59.8 48.47,-108.27 108.27,-108.27z"/>
  </g>
  <g id="_1843951040304">
   <path class="fil0 str0" d="M20442.28 2399.07c-0.33,-522.41 -208.18,-1023.29 -577.81,-1392.46 -369.63,-369.17 -859.95,-834.71 -1382.36,-834.38l-7094.95 12.5c-104.48,0.07 -748.41,218.72 -822.24,292.65 -73.83,73.93 -63.19,325.74 -63.12,430.22l-8.34 8769.74c0.07,104.48 20.81,79.66 94.73,153.49 73.92,73.83 694.49,48.61 798.97,48.54l7086.61 0c522.41,-0.33 1023.29,-208.17 1392.46,-577.8 369.17,-369.63 576.38,-868.29 576.05,-1390.7l0 -5511.8z"/>
   <path class="fil0 str0" d="M20107.64 6887.82l0 78.74c0,35.17 18.76,67.66 49.21,85.24 30.45,17.58 67.97,17.58 98.43,0 30.45,-17.58 49.21,-50.07 49.21,-85.24l0 -78.74c0,-35.17 -18.76,-67.66 -49.21,-85.24 -30.45,-17.58 -67.97,-17.58 -98.43,0 -30.45,17.58 -49.21,50.07 -49.21,85.24z"/>
   <path class="fil0 str0" d="M20097.8 3344.51l0 78.74c0,38.68 20.63,74.42 54.13,93.76 33.5,19.34 74.77,19.34 108.27,0 33.5,-19.34 54.13,-55.08 54.13,-93.76l0 -78.74c0,-38.68 -20.64,-74.42 -54.13,-93.76 -33.5,-19.34 -74.77,-19.34 -108.27,0 -33.5,19.34 -54.13,55.08 -54.13,93.76z"/>
   <path class="fil0 str0" d="M11278.9 853c0,38.68 20.63,74.42 54.13,93.76 33.5,19.34 74.77,19.34 108.27,0 33.5,-19.34 54.13,-55.08 54.13,-93.76l0 -78.74c0,-38.68 14.77,-199.44 -18.71,-218.77 -33.48,-19.32 -139.37,-14.11 -172.86,5.21 -33.48,19.33 -24.96,174.87 -24.96,213.56l0 78.74z"/>
   <path class="fil0 str0" d="M11278.9 6375.43c0,38.68 20.63,74.42 54.13,93.76 33.5,19.34 74.77,19.34 108.27,0 33.5,-19.34 54.13,-55.08 54.13,-93.76l0 -78.74c0,-38.68 -20.63,-74.42 -54.13,-93.76 -33.5,-19.34 -74.77,-19.34 -108.27,0 -33.5,19.34 -54.13,55.08 -54.13,93.76l0 78.74z"/>
   <path class="fil0 str0" d="M11278.9 3934.5l0 78.74c0,38.68 20.63,74.42 54.13,93.76 33.5,19.34 74.77,19.34 108.27,0 33.5,-19.34 54.13,-55.08 54.13,-93.76l0 -78.74c0,-38.68 -20.63,-74.42 -54.13,-93.76 -33.5,-19.34 -74.77,-19.34 -108.27,0 -33.5,19.34 -54.13,55.08 -54.13,93.76z"/>
   <path class="fil0 str0" d="M11495.43 9535.67l0 -78.74c0,-38.68 -20.63,-74.42 -54.13,-93.76 -33.5,-19.34 -74.77,-19.34 -108.27,0 -33.5,19.34 -54.13,55.08 -54.13,93.76l0 78.74c0,38.68 20.63,74.42 54.13,93.76 33.5,19.34 74.77,19.34 108.27,0 33.5,-19.34 54.13,-55.08 54.13,-93.76z"/>
   <path class="fil0 str0" d="M20206.07 5047.27c59.8,0 108.27,48.47 108.27,108.27 0,59.8 -48.47,108.27 -108.27,108.27 -59.8,0 -108.27,-48.47 -108.27,-108.27 0,-59.8 48.47,-108.27 108.27,-108.27z"/>
  </g>
  <g id="_1843977753296">
   <path class="fil0 str0" d="M30764.54 2393.33c-0.33,-522.41 -208.18,-1023.29 -577.81,-1392.46 -369.63,-369.17 -859.95,-834.71 -1382.36,-834.38l-7094.95 12.5c-104.48,0.07 -748.41,218.72 -822.24,292.65 -73.83,73.93 -63.19,325.74 -63.12,430.22l-8.34 8769.74c0.07,104.48 20.81,79.66 94.73,153.49 73.92,73.83 694.49,48.61 798.97,48.54l7086.61 0c522.41,-0.33 1023.29,-208.17 1392.46,-577.8 369.17,-369.63 576.38,-868.29 576.05,-1390.7l0 -5511.8z"/>
   <path class="fil0 str0" d="M30429.89 6882.08l0 78.74c0,35.17 18.76,67.66 49.21,85.24 30.45,17.58 67.97,17.58 98.43,0 30.45,-17.58 49.21,-50.07 49.21,-85.24l0 -78.74c0,-35.17 -18.76,-67.66 -49.21,-85.24 -30.45,-17.58 -67.97,-17.58 -98.43,0 -30.45,17.58 -49.21,50.07 -49.21,85.24z"/>
   <path class="fil0 str0" d="M30420.05 3338.78l0 78.74c0,38.68 20.63,74.42 54.13,93.76 33.5,19.34 74.77,19.34 108.27,0 33.5,-19.34 54.13,-55.08 54.13,-93.76l0 -78.74c0,-38.68 -20.64,-74.42 -54.13,-93.76 -33.5,-19.34 -74.77,-19.34 -108.27,0 -33.5,19.34 -54.13,55.08 -54.13,93.76z"/>
   <path class="fil0 str0" d="M21601.15 847.27c0,38.68 20.63,74.42 54.13,93.76 33.5,19.34 74.77,19.34 108.27,0 33.5,-19.34 54.13,-55.08 54.13,-93.76l0 -78.74c0,-38.68 14.77,-199.44 -18.71,-218.77 -33.48,-19.32 -139.37,-14.11 -172.86,5.21 -33.48,19.33 -24.96,174.87 -24.96,213.56l0 78.74z"/>
   <path class="fil0 str0" d="M21601.15 6369.69c0,38.68 20.63,74.42 54.13,93.76 33.5,19.34 74.77,19.34 108.27,0 33.5,-19.34 54.13,-55.08 54.13,-93.76l0 -78.74c0,-38.68 -20.63,-74.42 -54.13,-93.76 -33.5,-19.34 -74.77,-19.34 -108.27,0 -33.5,19.34 -54.13,55.08 -54.13,93.76l0 78.74z"/>
   <path class="fil0 str0" d="M21601.15 3928.76l0 78.74c0,38.68 20.63,74.42 54.13,93.76 33.5,19.34 74.77,19.34 108.27,0 33.5,-19.34 54.13,-55.08 54.13,-93.76l0 -78.74c0,-38.68 -20.63,-74.42 -54.13,-93.76 -33.5,-19.34 -74.77,-19.34 -108.27,0 -33.5,19.34 -54.13,55.08 -54.13,93.76z"/>
   <path class="fil0 str0" d="M21817.69 9529.93l0 -78.74c0,-38.68 -20.63,-74.42 -54.13,-93.76 -33.5,-19.34 -74.77,-19.34 -108.27,0 -33.5,19.34 -54.13,55.08 -54.13,93.76l0 78.74c0,38.68 20.63,74.42 54.13,93.76 33.5,19.34 74.77,19.34 108.27,0 33.5,-19.34 54.13,-55.08 54.13,-93.76z"/>
   <path class="fil0 str0" d="M30528.32 5041.53c59.8,0 108.27,48.47 108.27,108.27 0,59.8 -48.47,108.27 -108.27,108.27 -59.8,0 -108.27,-48.47 -108.27,-108.27 0,-59.8 48.47,-108.27 108.27,-108.27z"/>
  </g>
  <g id="_1843965339376">
   <path class="fil0 str0" d="M10218.87 12257.22c-0.33,-522.41 -208.18,-1023.29 -577.81,-1392.46 -369.63,-369.17 -859.95,-834.71 -1382.36,-834.38l-7094.95 12.5c-104.48,0.07 -748.41,218.72 -822.24,292.65 -73.83,73.93 -63.19,325.74 -63.12,430.22l-8.34 8769.74c0.07,104.48 20.81,79.66 94.73,153.49 73.92,73.83 694.49,48.61 798.97,48.54l7086.61 0c522.41,-0.33 1023.29,-208.17 1392.46,-577.8 369.17,-369.63 576.38,-868.29 576.05,-1390.7l0 -5511.8z"/>
   <path class="fil0 str0" d="M9884.23 16745.97l0 78.74c0,35.17 18.76,67.66 49.21,85.24 30.45,17.58 67.97,17.58 98.43,0 30.45,-17.58 49.21,-50.07 49.21,-85.24l0 -78.74c0,-35.17 -18.76,-67.66 -49.21,-85.24 -30.45,-17.58 -67.97,-17.58 -98.43,0 -30.45,17.58 -49.21,50.07 -49.21,85.24z"/>
   <path class="fil0 str0" d="M9874.39 13202.66l0 78.74c0,38.68 20.63,74.42 54.13,93.76 33.5,19.34 74.77,19.34 108.27,0 33.5,-19.34 54.13,-55.08 54.13,-93.76l0 -78.74c0,-38.68 -20.64,-74.42 -54.13,-93.76 -33.5,-19.34 -74.77,-19.34 -108.27,0 -33.5,19.34 -54.13,55.08 -54.13,93.76z"/>
   <path class="fil0 str0" d="M1055.48 10711.15c0,38.68 20.63,74.42 54.13,93.76 33.5,19.34 74.77,19.34 108.27,0 33.5,-19.34 54.13,-55.08 54.13,-93.76l0 -78.74c0,-38.68 14.77,-199.44 -18.71,-218.77 -33.48,-19.32 -139.37,-14.11 -172.86,5.21 -33.48,19.33 -24.96,174.87 -24.96,213.56l0 78.74z"/>
   <path class="fil0 str0" d="M1055.48 16233.58c0,38.68 20.63,74.42 54.13,93.76 33.5,19.34 74.77,19.34 108.27,0 33.5,-19.34 54.13,-55.08 54.13,-93.76l0 -78.74c0,-38.68 -20.63,-74.42 -54.13,-93.76 -33.5,-19.34 -74.77,-19.34 -108.27,0 -33.5,19.34 -54.13,55.08 -54.13,93.76l0 78.74z"/>
   <path class="fil0 str0" d="M1055.48 13792.65l0 78.74c0,38.68 20.63,74.42 54.13,93.76 33.5,19.34 74.77,19.34 108.27,0 33.5,-19.34 54.13,-55.08 54.13,-93.76l0 -78.74c0,-38.68 -20.63,-74.42 -54.13,-93.76 -33.5,-19.34 -74.77,-19.34 -108.27,0 -33.5,19.34 -54.13,55.08 -54.13,93.76z"/>
   <path class="fil0 str0" d="M1272.02 19393.81l0 -78.74c0,-38.68 -20.63,-74.42 -54.13,-93.76 -33.5,-19.34 -74.77,-19.34 -108.27,0 -33.5,19.34 -54.13,55.08 -54.13,93.76l0 78.74c0,38.68 20.63,74.42 54.13,93.76 33.5,19.34 74.77,19.34 108.27,0 33.5,-19.34 54.13,-55.08 54.13,-93.76z"/>
   <path class="fil0 str0" d="M9982.65 14905.42c59.8,0 108.27,48.47 108.27,108.27 0,59.8 -48.47,108.27 -108.27,108.27 -59.8,0 -108.27,-48.47 -108.27,-108.27 0,-59.8 48.47,-108.27 108.27,-108.27z"/>
  </g>
  <g id="_1843965341520">
   <path class="fil0 str0" d="M20432.28 12250.74c-0.33,-522.41 -208.18,-1023.29 -577.81,-1392.46 -369.63,-369.17 -859.95,-834.71 -1382.36,-834.38l-7094.95 12.5c-104.48,0.07 -748.41,218.72 -822.24,292.65 -73.83,73.93 -63.19,325.74 -63.12,430.22l-8.34 8769.74c0.07,104.48 20.81,79.66 94.73,153.49 73.92,73.83 694.49,48.61 798.97,48.54l7086.61 0c522.41,-0.33 1023.29,-208.17 1392.46,-577.8 369.17,-369.63 576.38,-868.29 576.05,-1390.7l0 -5511.8z"/>
   <path class="fil0 str0" d="M20097.64 16739.49l0 78.74c0,35.17 18.76,67.66 49.21,85.24 30.45,17.58 67.97,17.58 98.43,0 30.45,-17.58 49.21,-50.07 49.21,-85.24l0 -78.74c0,-35.17 -18.76,-67.66 -49.21,-85.24 -30.45,-17.58 -67.97,-17.58 -98.43,0 -30.45,17.58 -49.21,50.07 -49.21,85.24z"/>
   <path class="fil0 str0" d="M20087.8 13196.18l0 78.74c0,38.68 20.63,74.42 54.13,93.76 33.5,19.34 74.77,19.34 108.27,0 33.5,-19.34 54.13,-55.08 54.13,-93.76l0 -78.74c0,-38.68 -20.64,-74.42 -54.13,-93.76 -33.5,-19.34 -74.77,-19.34 -108.27,0 -33.5,19.34 -54.13,55.08 -54.13,93.76z"/>
   <path class="fil0 str0" d="M11268.9 10704.67c0,38.68 20.63,74.42 54.13,93.76 33.5,19.34 74.77,19.34 108.27,0 33.5,-19.34 54.13,-55.08 54.13,-93.76l0 -78.74c0,-38.68 14.77,-199.44 -18.71,-218.77 -33.48,-19.32 -139.37,-14.11 -172.86,5.21 -33.48,19.33 -24.96,174.87 -24.96,213.56l0 78.74z"/>
   <path class="fil0 str0" d="M11268.9 16227.1c0,38.68 20.63,74.42 54.13,93.76 33.5,19.34 74.77,19.34 108.27,0 33.5,-19.34 54.13,-55.08 54.13,-93.76l0 -78.74c0,-38.68 -20.63,-74.42 -54.13,-93.76 -33.5,-19.34 -74.77,-19.34 -108.27,0 -33.5,19.34 -54.13,55.08 -54.13,93.76l0 78.74z"/>
   <path class="fil0 str0" d="M11268.9 13786.17l0 78.74c0,38.68 20.63,74.42 54.13,93.76 33.5,19.34 74.77,19.34 108.27,0 33.5,-19.34 54.13,-55.08 54.13,-93.76l0 -78.74c0,-38.68 -20.63,-74.42 -54.13,-93.76 -33.5,-19.34 -74.77,-19.34 -108.27,0 -33.5,19.34 -54.13,55.08 -54.13,93.76z"/>
   <path class="fil0 str0" d="M11485.43 19387.33l0 -78.74c0,-38.68 -20.63,-74.42 -54.13,-93.76 -33.5,-19.34 -74.77,-19.34 -108.27,0 -33.5,19.34 -54.13,55.08 -54.13,93.76l0 78.74c0,38.68 20.63,74.42 54.13,93.76 33.5,19.34 74.77,19.34 108.27,0 33.5,-19.34 54.13,-55.08 54.13,-93.76z"/>
   <path class="fil0 str0" d="M20196.07 14898.94c59.8,0 108.27,48.47 108.27,108.27 0,59.8 -48.47,108.27 -108.27,108.27 -59.8,0 -108.27,-48.47 -108.27,-108.27 0,-59.8 48.47,-108.27 108.27,-108.27z"/>
  </g>
  <g id="_1843979141360">
   <path class="fil0 str0" d="M30754.54 12245c-0.33,-522.41 -208.18,-1023.29 -577.81,-1392.46 -369.63,-369.17 -859.95,-834.71 -1382.36,-834.38l-7094.95 12.5c-104.48,0.07 -748.41,218.72 -822.24,292.65 -73.83,73.93 -63.19,325.74 -63.12,430.22l-8.34 8769.74c0.07,104.48 20.81,79.66 94.73,153.49 73.92,73.83 694.49,48.61 798.97,48.54l7086.61 0c522.41,-0.33 1023.29,-208.17 1392.46,-577.8 369.17,-369.63 576.38,-868.29 576.05,-1390.7l0 -5511.8z"/>
   <path class="fil0 str0" d="M30419.89 16733.75l0 78.74c0,35.17 18.76,67.66 49.21,85.24 30.45,17.58 67.97,17.58 98.43,0 30.45,-17.58 49.21,-50.07 49.21,-85.24l0 -78.74c0,-35.17 -18.76,-67.66 -49.21,-85.24 -30.45,-17.58 -67.97,-17.58 -98.43,0 -30.45,17.58 -49.21,50.07 -49.21,85.24z"/>
   <path class="fil0 str0" d="M30410.05 13190.44l0 78.74c0,38.68 20.63,74.42 54.13,93.76 33.5,19.34 74.77,19.34 108.27,0 33.5,-19.34 54.13,-55.08 54.13,-93.76l0 -78.74c0,-38.68 -20.64,-74.42 -54.13,-93.76 -33.5,-19.34 -74.77,-19.34 -108.27,0 -33.5,19.34 -54.13,55.08 -54.13,93.76z"/>
   <path class="fil0 str0" d="M21591.15 10698.94c0,38.68 20.63,74.42 54.13,93.76 33.5,19.34 74.77,19.34 108.27,0 33.5,-19.34 54.13,-55.08 54.13,-93.76l0 -78.74c0,-38.68 14.77,-199.44 -18.71,-218.77 -33.48,-19.32 -139.37,-14.11 -172.86,5.21 -33.48,19.33 -24.96,174.87 -24.96,213.56l0 78.74z"/>
   <path class="fil0 str0" d="M21591.15 16221.36c0,38.68 20.63,74.42 54.13,93.76 33.5,19.34 74.77,19.34 108.27,0 33.5,-19.34 54.13,-55.08 54.13,-93.76l0 -78.74c0,-38.68 -20.63,-74.42 -54.13,-93.76 -33.5,-19.34 -74.77,-19.34 -108.27,0 -33.5,19.34 -54.13,55.08 -54.13,93.76l0 78.74z"/>
   <path class="fil0 str0" d="M21591.15 13780.43l0 78.74c0,38.68 20.63,74.42 54.13,93.76 33.5,19.34 74.77,19.34 108.27,0 33.5,-19.34 54.13,-55.08 54.13,-93.76l0 -78.74c0,-38.68 -20.63,-74.42 -54.13,-93.76 -33.5,-19.34 -74.77,-19.34 -108.27,0 -33.5,19.34 -54.13,55.08 -54.13,93.76z"/>
   <path class="fil0 str0" d="M21807.69 19381.6l0 -78.74c0,-38.68 -20.63,-74.42 -54.13,-93.76 -33.5,-19.34 -74.77,-19.34 -108.27,0 -33.5,19.34 -54.13,55.08 -54.13,93.76l0 78.74c0,38.68 20.63,74.42 54.13,93.76 33.5,19.34 74.77,19.34 108.27,0 33.5,-19.34 54.13,-55.08 54.13,-93.76z"/>
   <path class="fil0 str0" d="M30518.32 14893.2c59.8,0 108.27,48.47 108.27,108.27 0,59.8 -48.47,108.27 -108.27,108.27 -59.8,0 -108.27,-48.47 -108.27,-108.27 0,-59.8 48.47,-108.27 108.27,-108.27z"/>
  </g>
  <rect class="fil0 str1" x="759.23" y="2265.86" width="303.91" height="76.39"/>
  <rect class="fil0 str1" x="10965.5" y="2265.91" width="304.3" height="76.39"/>
  <rect class="fil0 str1" x="21291.58" y="2265.91" width="305.4" height="76.39"/>
  <rect class="fil0 str1" x="21290.53" y="11961.13" width="305.08" height="76.39"/>
  <rect class="fil0 str1" x="10966.55" y="11967.8" width="300.7" height="76.39"/>
  <rect class="fil0 str1" x="755.06" y="11968.07" width="307.21" height="76.39"/>
 </g>
</svg>
